<?xml version="1.0" encoding="utf-8"?>
<!-- Generator: Adobe Illustrator 19.2.0, SVG Export Plug-In . SVG Version: 6.00 Build 0)  -->
<svg version="1.1" id="Layer_1" xmlns="http://www.w3.org/2000/svg" xmlns:xlink="http://www.w3.org/1999/xlink" x="0px" y="0px"
	 viewBox="0 0 174.983 140.567" style="enable-background:new 0 0 174.983 140.567;" xml:space="preserve">
<style type="text/css">
	.st0{fill:#FFFFFF;}
</style>
<g>
	<g>
		<path class="st0" d="M66.353,140.567c-0.13,0-0.258-0.017-0.381-0.05c-0.277,0.072-0.571,0.066-0.849-0.025L1.355,119.558
			c-0.614-0.202-1.03-0.774-1.032-1.42L0,17.144c-0.002-0.69,0.467-1.293,1.137-1.46l62.701-15.63
			c0.111-0.03,0.228-0.048,0.349-0.052c0.001,0,0.003,0,0.004,0C64.209,0,64.228,0,64.247,0.001c0.001,0,0.003-0.001,0.003,0
			c0.1,0.001,0.198,0.012,0.292,0.032l109.129,20.659c0.708,0.134,1.22,0.751,1.221,1.471l0.09,60.201v25.463
			c0,0.667-0.44,1.253-1.08,1.44l-107.129,31.24C66.633,140.548,66.492,140.567,66.353,140.567z M65.751,3.315l1.323,133.98
			l104.909-30.593V82.366l-0.088-58.958L65.751,3.315z M3.319,117.045l60.752,19.943L62.752,3.416L3.004,18.31L3.319,117.045z"/>
	</g>
	<g>
		<path class="st0" d="M86.799,134.605c-0.321,0-0.637-0.103-0.9-0.3c-0.378-0.284-0.6-0.728-0.6-1.2v-91.28
			c0-0.41,0.168-0.803,0.465-1.086c0.297-0.283,0.695-0.441,1.107-0.412l67.354,3.255c0.799,0.039,1.428,0.698,1.428,1.498v68.384
			c0,0.667-0.44,1.253-1.08,1.44l-67.354,19.641C87.081,134.585,86.94,134.605,86.799,134.605z M88.299,43.399v87.706l64.354-18.766
			v-65.83L88.299,43.399z M154.153,113.463h0.01H154.153z"/>
	</g>
	<g>
		<path class="st0" d="M153.122,53.961c-0.017,0-0.035,0-0.052-0.001l-66.321-2.255c-0.828-0.028-1.477-0.722-1.448-1.55
			c0.028-0.828,0.732-1.472,1.55-1.448l66.321,2.255c0.828,0.028,1.477,0.722,1.448,1.55
			C154.592,53.322,153.926,53.961,153.122,53.961z"/>
	</g>
	<g>
		<path class="st0" d="M152.826,63.756c-0.009,0-0.018,0-0.027,0l-66.026-1.189c-0.829-0.015-1.488-0.699-1.473-1.527
			c0.015-0.829,0.703-1.518,1.527-1.473l66.026,1.189c0.829,0.015,1.488,0.699,1.473,1.527
			C154.311,63.102,153.642,63.756,152.826,63.756z"/>
	</g>
	<g>
		<path class="st0" d="M86.799,73.884c-0.82,0-1.49-0.66-1.5-1.482c-0.01-0.828,0.654-1.508,1.482-1.518l66.662-0.791
			c0.006,0,0.012,0,0.018,0c0.82,0,1.49,0.66,1.5,1.482c0.01,0.828-0.654,1.508-1.482,1.518l-66.662,0.791
			C86.811,73.884,86.805,73.884,86.799,73.884z"/>
	</g>
	<g>
		<path class="st0" d="M86.859,86.107c-0.793,0.014-1.466-0.597-1.521-1.397c-0.057-0.826,0.567-1.542,1.394-1.599l66.592-4.581
			c0.825-0.054,1.543,0.567,1.599,1.394c0.057,0.826-0.567,1.542-1.394,1.599l-66.592,4.581
			C86.911,86.105,86.885,86.106,86.859,86.107z"/>
	</g>
	<g>
		<path class="st0" d="M86.797,98.342c-0.745,0-1.391-0.554-1.486-1.312c-0.104-0.822,0.479-1.572,1.3-1.676l66.515-8.396
			c0.828-0.099,1.572,0.479,1.676,1.3c0.104,0.822-0.479,1.572-1.3,1.676L86.987,98.33C86.923,98.338,86.86,98.342,86.797,98.342z"
			/>
	</g>
	<g>
		<path class="st0" d="M86.797,109.802c-0.724,0-1.36-0.524-1.479-1.262c-0.131-0.818,0.425-1.588,1.243-1.719l66.271-10.66
			c0.82-0.13,1.588,0.425,1.719,1.243s-0.425,1.588-1.243,1.719l-66.271,10.66C86.957,109.796,86.876,109.802,86.797,109.802z"/>
	</g>
	<g>
		<path class="st0" d="M86.798,122.718c-0.68,0-1.296-0.466-1.458-1.157c-0.19-0.806,0.31-1.614,1.117-1.803l67.354-15.836
			c0.804-0.19,1.614,0.31,1.803,1.117c0.19,0.806-0.31,1.614-1.117,1.803l-67.354,15.836
			C87.027,122.705,86.912,122.718,86.798,122.718z"/>
	</g>
</g>
</svg>
