<?xml version="1.0" encoding="utf-8"?>
<!-- Generator: Adobe Illustrator 19.2.0, SVG Export Plug-In . SVG Version: 6.00 Build 0)  -->
<svg version="1.1" id="Layer_1" xmlns="http://www.w3.org/2000/svg" xmlns:xlink="http://www.w3.org/1999/xlink" x="0px" y="0px"
	 viewBox="0 0 186.262 148.56" style="enable-background:new 0 0 186.262 148.56;" xml:space="preserve">
<style type="text/css">
	.st0{fill:#FFFFFF;}
</style>
<g>
	<g>
		<path class="st0" d="M74.926,85.992c-0.545,0-1.057-0.298-1.321-0.791L30.511,4.954L3.697,67.614l5.447,0.454l0.121-6.299
			c0.004-0.206,0.05-0.408,0.135-0.595l21.225-46.422c0.344-0.754,1.234-1.085,1.988-0.741c0.753,0.345,1.085,1.234,0.741,1.988
			L12.259,62.138l-0.146,7.586c-0.008,0.415-0.187,0.807-0.495,1.085c-0.308,0.277-0.717,0.412-1.129,0.381l-9.113-0.76
			c-0.48-0.04-0.912-0.308-1.161-0.721s-0.284-0.92-0.094-1.364L28.975,0.919c0.128-0.306,0.358-0.572,0.674-0.741
			c0.252-0.136,0.532-0.188,0.793-0.177l101.083,3.947c0.433,0.017,0.838,0.221,1.11,0.558l47.434,58.895
			c0.325,0.404,0.418,0.947,0.247,1.437c-0.171,0.489-0.584,0.855-1.09,0.968l-31.517,7.004L75.194,85.968
			C75.105,85.984,75.015,85.992,74.926,85.992z M32.92,3.1l42.812,79.721l71.383-12.952l29.101-6.468L130.725,6.919L32.92,3.1z"/>
	</g>
	<g>
		<path class="st0" d="M71.933,148.56h-0.719c-0.159,0-0.317-0.025-0.468-0.075l-60.146-19.745
			c-0.613-0.202-1.029-0.773-1.032-1.418L9.265,61.804c-0.001-0.217,0.045-0.433,0.136-0.63l21.225-46.422
			c0.344-0.754,1.234-1.085,1.988-0.741c0.753,0.345,1.085,1.234,0.741,1.988L12.267,62.121l0.297,64.107l57.869,18.997V88.918
			c0-0.829,0.671-1.5,1.5-1.5s1.5,0.671,1.5,1.5v58.142C73.433,147.889,72.762,148.56,71.933,148.56z"/>
	</g>
	<g>
		<path class="st0" d="M71.935,80.419c-0.535,0-1.052-0.287-1.323-0.791L33.33,10.203c-0.392-0.729-0.118-1.639,0.612-2.031
			c0.729-0.393,1.639-0.118,2.031,0.612l37.282,69.425c0.392,0.729,0.118,1.639-0.612,2.031
			C72.417,80.361,72.174,80.419,71.935,80.419z"/>
	</g>
	<g>
		<path class="st0" d="M71.933,148.56c-0.321,0-0.637-0.103-0.9-0.3c-0.378-0.284-0.6-0.728-0.6-1.2v-35.085
			c0-0.829,0.671-1.5,1.5-1.5s1.5,0.671,1.5,1.5v33.085l98.043-28.59V75.599c0-0.829,0.671-1.5,1.5-1.5s1.5,0.671,1.5,1.5v41.996
			c0,0.667-0.44,1.253-1.08,1.44L72.353,148.5C72.215,148.54,72.074,148.56,71.933,148.56z"/>
	</g>
	<g>
		<path class="st0" d="M110.762,79.451c-0.349,0-0.689-0.122-0.961-0.349c-0.341-0.285-0.539-0.707-0.539-1.151V47.267
			c0-0.829,0.671-1.5,1.5-1.5s1.5,0.671,1.5,1.5v28.886l22.226-4.033V40.236l-9.813-15.559c-0.442-0.701-0.232-1.627,0.468-2.069
			c0.702-0.443,1.627-0.232,2.069,0.468l10.045,15.925c0.151,0.24,0.231,0.517,0.231,0.8v33.571c0,0.725-0.519,1.347-1.232,1.476
			l-25.226,4.577C110.94,79.443,110.851,79.451,110.762,79.451z"/>
	</g>
	<g>
		<path class="st0" d="M111.209,48.767H87.971c-0.829,0-1.5-0.671-1.5-1.5v-28.25c0-0.814,0.65-1.48,1.464-1.5l37.971-0.911
			c0.552-0.015,1.036,0.26,1.315,0.715l15.644,25.517c0.284,0.463,0.295,1.043,0.03,1.517c-0.265,0.474-0.766,0.767-1.309,0.767
			h-3.189c-0.515,0-0.994-0.264-1.269-0.7L125.943,26.69l-13.465,21.376C112.204,48.503,111.725,48.767,111.209,48.767z
			 M89.471,45.767h20.91l14.292-22.689c0.274-0.436,0.753-0.701,1.269-0.701h0c0.515,0,0.994,0.264,1.269,0.7l0.699,1.108
			l-2.795-4.559l-35.644,0.855V45.767z"/>
	</g>
	<g>
		<path class="st0" d="M48.223,141.031c-0.829,0-1.5-0.671-1.5-1.5V95.542l-16.95-4.333l-0.081,41.779
			c-0.001,0.827-0.673,1.497-1.5,1.497c-0.001,0-0.002,0-0.003,0c-0.829-0.001-1.499-0.674-1.497-1.503l0.084-43.707
			c0.001-0.463,0.215-0.899,0.581-1.183c0.366-0.284,0.843-0.383,1.291-0.268l19.946,5.099c0.664,0.169,1.128,0.768,1.128,1.453
			v45.153C49.723,140.36,49.052,141.031,48.223,141.031z"/>
	</g>
	<g>
		<path class="st0" d="M74.412,95.176c-0.542,0-1.053-0.295-1.318-0.786L30.671,16.089c-0.395-0.728-0.124-1.639,0.604-2.033
			c0.729-0.394,1.639-0.125,2.033,0.604l41.896,77.328l106.875-21.316l-4.361-5.573c-0.511-0.652-0.396-1.595,0.257-2.105
			c0.652-0.511,1.595-0.395,2.105,0.257l5.862,7.492c0.321,0.41,0.406,0.958,0.225,1.446c-0.181,0.488-0.602,0.848-1.113,0.95
			L74.706,95.147C74.607,95.167,74.509,95.176,74.412,95.176z"/>
	</g>
	<g>
		<path class="st0" d="M99.401,125.259c-0.334,0-0.662-0.111-0.929-0.323c-0.36-0.284-0.571-0.718-0.571-1.177v-22.384
			c0-0.694,0.477-1.298,1.151-1.459l40.876-9.763c0.447-0.106,0.918-0.003,1.278,0.282c0.36,0.284,0.571,0.718,0.571,1.177v22.384
			c0,0.694-0.477,1.298-1.151,1.459l-40.876,9.763C99.634,125.246,99.517,125.259,99.401,125.259z M100.901,102.559v19.299
			l37.876-9.047V93.513L100.901,102.559z M140.277,113.996h0.01H140.277z"/>
	</g>
</g>
</svg>
