<svg id="Layer_1" xmlns="http://www.w3.org/2000/svg" viewBox="0 0 187.369 190"><style>.st0{fill:#fff}.st1{fill:none;stroke:#fff;stroke-width:3;stroke-linecap:round;stroke-linejoin:round;stroke-miterlimit:10}</style><path class="st0" d="M66.01 162.969a1.24 1.24 0 0 1-.325-.043l-36.671-9.724a1.269 1.269 0 1 1 .65-2.454l35.076 9.3V3.215L30.608 18.224v80.503a1.27 1.27 0 1 1-2.54 0V17.395c0-.503.298-.96.758-1.162L65.499.108A1.272 1.272 0 0 1 67.28 1.27v160.429a1.268 1.268 0 0 1-1.27 1.27z"/><path class="st0" d="M66.01 162.969c-.107 0-.214-.013-.319-.041l-64.514-16.77a1.27 1.27 0 0 1-.95-1.221L0 106.035a1.27 1.27 0 0 1 .95-1.236l64.454-16.764a1.268 1.268 0 0 1 1.589 1.224l.286 72.435a1.27 1.27 0 0 1-1.269 1.275zM2.76 143.946l61.974 16.109-.273-69.151-61.916 16.104.215 36.938z"/><path class="st0" d="M66.01 162.969a1.268 1.268 0 0 1-1.269-1.27V1.27A1.27 1.27 0 0 1 66.386.057l52.743 16.298c.531.164.894.655.895 1.211l.226 133.776a1.269 1.269 0 0 1-1.026 1.248l-52.97 10.355a1.261 1.261 0 0 1-.244.024zM67.28 2.991v157.166l50.429-9.858-.223-131.794L67.28 2.991z"/><path class="st0" d="M118.979 152.614a1.267 1.267 0 0 1-1.269-1.269V88.569a1.269 1.269 0 0 1 1.493-1.249l66.923 11.95a1.269 1.269 0 0 1 1.046 1.243l.197 38.007a1.27 1.27 0 0 1-1.032 1.254l-67.12 12.818a1.262 1.262 0 0 1-.238.022zm1.27-62.528v59.724l64.575-12.332-.186-35.895-64.389-11.497z"/><path class="st0" d="M180.25 109.24c-.068 0-.137-.005-.206-.017l-61.269-9.989a1.27 1.27 0 1 1 .408-2.506l61.269 9.989a1.27 1.27 0 0 1-.202 2.523zM180.25 119.955c-.036 0-.072-.002-.109-.005l-61.269-5.225a1.27 1.27 0 0 1-1.157-1.373 1.271 1.271 0 0 1 1.373-1.157l61.269 5.225a1.27 1.27 0 0 1-.107 2.535zM118.979 133.169a1.27 1.27 0 0 1-.058-2.538l61.269-2.819a1.27 1.27 0 0 1 .117 2.537l-61.269 2.819-.059.001zM7.588 112.59a1.27 1.27 0 0 1-.213-2.522l58.134-9.951a1.27 1.27 0 1 1 .429 2.503l-58.134 9.951a1.22 1.22 0 0 1-.216.019zM7.588 123.305a1.27 1.27 0 0 1-.112-2.534l58.134-5.226a1.27 1.27 0 1 1 .227 2.529L7.703 123.3a1.474 1.474 0 0 1-.115.005zM65.725 136.623c-.021 0-.043 0-.065-.002l-58.134-2.922a1.27 1.27 0 1 1 .128-2.536l58.134 2.922a1.27 1.27 0 0 1-.063 2.538zM71.845 151.035a1.27 1.27 0 0 1-1.27-1.269V9.06a1.27 1.27 0 0 1 1.667-1.206L112.458 21.1c.521.172.872.658.872 1.206v122.685a1.27 1.27 0 0 1-1.12 1.261l-40.215 4.775c-.05.005-.1.008-.15.008zm1.27-140.22v137.521l37.676-4.474V23.224L73.115 10.815z"/></svg>