<svg id="Layer_1" xmlns="http://www.w3.org/2000/svg" viewBox="0 0 186.262 148.56"><style>.st0{fill:#fff}</style><path class="st0" d="M74.926 85.992a1.5 1.5 0 0 1-1.321-.791L30.511 4.954 3.697 67.614l5.447.454.121-6.299c.004-.206.05-.408.135-.595l21.225-46.422a1.5 1.5 0 1 1 2.729 1.247L12.259 62.138l-.146 7.586a1.5 1.5 0 0 1-1.624 1.466l-9.113-.76a1.501 1.501 0 0 1-1.255-2.085L28.975.919a1.49 1.49 0 0 1 .674-.741 1.54 1.54 0 0 1 .793-.177l101.083 3.947c.433.017.838.221 1.11.558l47.434 58.895a1.502 1.502 0 0 1-.843 2.405l-31.517 7.004-72.515 13.158a1.517 1.517 0 0 1-.268.024zM32.92 3.1l42.812 79.721 71.383-12.952 29.101-6.468-45.491-56.482L32.92 3.1z"/><path class="st0" d="M71.933 148.56h-.719c-.159 0-.317-.025-.468-.075L10.6 128.74a1.501 1.501 0 0 1-1.032-1.418l-.303-65.518a1.488 1.488 0 0 1 .136-.63l21.225-46.422a1.5 1.5 0 1 1 2.729 1.247L12.267 62.121l.297 64.107 57.869 18.997V88.918a1.5 1.5 0 1 1 3 0v58.142a1.5 1.5 0 0 1-1.5 1.5zM71.935 80.419a1.5 1.5 0 0 1-1.323-.791L33.33 10.203a1.5 1.5 0 1 1 2.643-1.419l37.282 69.425a1.5 1.5 0 0 1-1.32 2.21z"/><path class="st0" d="M71.933 148.56a1.5 1.5 0 0 1-1.5-1.5v-35.085a1.5 1.5 0 1 1 3 0v33.085l98.043-28.59V75.599a1.5 1.5 0 1 1 3 0v41.996a1.5 1.5 0 0 1-1.08 1.44L72.353 148.5c-.138.04-.279.06-.42.06zM110.762 79.451a1.499 1.499 0 0 1-1.5-1.5V47.267a1.5 1.5 0 1 1 3 0v28.886l22.226-4.033V40.236l-9.813-15.559a1.5 1.5 0 0 1 2.537-1.601l10.045 15.925c.151.24.231.517.231.8v33.571a1.5 1.5 0 0 1-1.232 1.476l-25.226 4.577a1.36 1.36 0 0 1-.268.026z"/><path class="st0" d="M111.209 48.767H87.971a1.5 1.5 0 0 1-1.5-1.5v-28.25c0-.814.65-1.48 1.464-1.5l37.971-.911a1.476 1.476 0 0 1 1.315.715l15.644 25.517a1.5 1.5 0 0 1-1.279 2.284h-3.189a1.5 1.5 0 0 1-1.269-.7L125.943 26.69l-13.465 21.376a1.496 1.496 0 0 1-1.269.701zm-21.738-3h20.91l14.292-22.689a1.5 1.5 0 0 1 2.538-.001l.699 1.108-2.795-4.559-35.644.855v25.286zM48.223 141.031a1.5 1.5 0 0 1-1.5-1.5V95.542l-16.95-4.333-.081 41.779a1.5 1.5 0 0 1-1.5 1.497h-.003a1.499 1.499 0 0 1-1.497-1.503l.084-43.707a1.5 1.5 0 0 1 1.872-1.451l19.946 5.099a1.499 1.499 0 0 1 1.128 1.453v45.153a1.498 1.498 0 0 1-1.499 1.502z"/><path class="st0" d="M74.412 95.176a1.498 1.498 0 0 1-1.318-.786L30.671 16.089a1.5 1.5 0 1 1 2.637-1.429l41.896 77.328 106.875-21.316-4.361-5.573a1.5 1.5 0 1 1 2.362-1.848l5.862 7.492a1.5 1.5 0 0 1-.888 2.396L74.706 95.147a1.48 1.48 0 0 1-.294.029zM99.401 125.259a1.5 1.5 0 0 1-1.5-1.5v-22.384a1.5 1.5 0 0 1 1.151-1.459l40.876-9.763a1.5 1.5 0 0 1 1.849 1.459v22.384a1.5 1.5 0 0 1-1.151 1.459l-40.876 9.763a1.485 1.485 0 0 1-.349.041zm1.5-22.7v19.299l37.876-9.047V93.513l-37.876 9.046zm39.376 11.437h.01-.01z"/></svg>