<svg id="Layer_1" xmlns="http://www.w3.org/2000/svg" viewBox="0 0 174.983 140.567"><style>.st0{fill:#fff}</style><path class="st0" d="M66.353 140.567a1.47 1.47 0 0 1-.381-.05 1.507 1.507 0 0 1-.849-.025L1.355 119.558a1.5 1.5 0 0 1-1.032-1.42L0 17.144a1.5 1.5 0 0 1 1.137-1.46L63.838.054c.111-.03.228-.048.349-.052h.004a.347.347 0 0 1 .056-.001h.003c.1.001.198.012.292.032l109.129 20.659c.708.134 1.22.751 1.221 1.471l.09 60.201v25.463a1.5 1.5 0 0 1-1.08 1.44l-107.129 31.24a1.49 1.49 0 0 1-.42.06zM65.751 3.315l1.323 133.98 104.909-30.593V82.366l-.088-58.958L65.751 3.315zM3.319 117.045l60.752 19.943L62.752 3.416 3.004 18.31l.315 98.735z"/><path class="st0" d="M86.799 134.605a1.5 1.5 0 0 1-1.5-1.5v-91.28c0-.41.168-.803.465-1.086a1.461 1.461 0 0 1 1.107-.412l67.354 3.255a1.5 1.5 0 0 1 1.428 1.498v68.384a1.5 1.5 0 0 1-1.08 1.44l-67.354 19.641c-.138.04-.279.06-.42.06zm1.5-91.206v87.706l64.354-18.766v-65.83l-64.354-3.11zm65.854 70.064h.01-.01z"/><path class="st0" d="M153.122 53.961l-.052-.001-66.321-2.255a1.5 1.5 0 0 1-1.448-1.55 1.509 1.509 0 0 1 1.55-1.448l66.321 2.255a1.5 1.5 0 0 1-.05 2.999zM152.826 63.756h-.027l-66.026-1.189A1.5 1.5 0 0 1 85.3 61.04c.015-.829.703-1.518 1.527-1.473l66.026 1.189a1.5 1.5 0 0 1-.027 3zM86.799 73.884a1.5 1.5 0 0 1-.018-3l66.662-.791h.018a1.5 1.5 0 0 1 .018 3l-66.662.791h-.018zM86.859 86.107a1.5 1.5 0 0 1-.127-2.996l66.592-4.581a1.5 1.5 0 1 1 .205 2.993l-66.592 4.581-.078.003zM86.797 98.342a1.5 1.5 0 0 1-.186-2.988l66.515-8.396a1.5 1.5 0 0 1 .376 2.976L86.987 98.33a1.527 1.527 0 0 1-.19.012zM86.797 109.802a1.5 1.5 0 0 1-.236-2.981l66.271-10.66a1.5 1.5 0 1 1 .476 2.962l-66.271 10.66c-.08.013-.161.019-.24.019zM86.798 122.718a1.5 1.5 0 0 1-.341-2.96l67.354-15.836a1.5 1.5 0 1 1 .686 2.92l-67.354 15.836c-.116.027-.231.04-.345.04z"/></svg>