<?xml version="1.0" encoding="utf-8"?>
<!-- Generator: Adobe Illustrator 19.2.0, SVG Export Plug-In . SVG Version: 6.00 Build 0)  -->
<svg version="1.1" id="Layer_1" xmlns="http://www.w3.org/2000/svg" xmlns:xlink="http://www.w3.org/1999/xlink" x="0px" y="0px"
	 viewBox="0 0 204.537 126.183" style="enable-background:new 0 0 204.537 126.183;" xml:space="preserve">
<style type="text/css">
	.st0{fill:none;stroke:#454545;stroke-width:3;stroke-linecap:round;stroke-linejoin:round;stroke-miterlimit:10;}
	.st1{fill:#FFFFFF;}
</style>
<g>
	<g>
		<path class="st0" d="M136.588,37.977"/>
	</g>
	<g>
		<path class="st1" d="M96.379,113.639c-0.333,0-0.66-0.111-0.927-0.321c-0.362-0.284-0.573-0.719-0.573-1.179V1.5
			c0-0.448,0.201-0.873,0.547-1.158c0.346-0.284,0.804-0.399,1.241-0.314l106.658,20.886c0.704,0.138,1.212,0.755,1.212,1.472
			v60.747c0,0.645-0.412,1.217-1.023,1.422l-18.296,6.134c-0.787,0.262-1.636-0.161-1.899-0.945
			c-0.263-0.786,0.16-1.636,0.945-1.899l17.273-5.791V23.62L97.879,3.322V110.23l64.192-15.62c0.803-0.198,1.616,0.297,1.812,1.103
			c0.196,0.805-0.298,1.616-1.103,1.812l-66.047,16.071C96.616,113.624,96.497,113.639,96.379,113.639z"/>
	</g>
	<g>
		<path class="st1" d="M172.345,112.617c-0.147,0-0.294-0.004-0.442-0.012c-3.317-0.178-6.276-2.332-8.333-6.067
			c-1.93-3.506-2.853-8.049-2.599-12.792c0.548-10.218,6.204-17.925,12.883-17.584c6.677,0.358,11.479,8.642,10.932,18.86
			c-0.254,4.743-1.657,9.162-3.951,12.442C178.501,110.801,175.501,112.617,172.345,112.617z M173.425,79.15
			c-4.726,0-9.024,6.656-9.458,14.756l0,0c-0.225,4.191,0.567,8.164,2.231,11.186c1.538,2.793,3.621,4.397,5.864,4.518
			c2.256,0.117,4.486-1.253,6.313-3.865c1.977-2.827,3.189-6.692,3.414-10.883c0.442-8.253-3.265-15.445-8.096-15.704
			C173.605,79.153,173.515,79.15,173.425,79.15z M162.469,93.826h0.01H162.469z"/>
	</g>
	<g>
		<path class="st1" d="M145.377,111.173c-0.143,0-0.285-0.004-0.428-0.011c-3.941-0.211-7.453-3.334-9.393-8.355
			c-0.299-0.772,0.085-1.641,0.858-1.939c0.772-0.301,1.641,0.085,1.939,0.858c1.502,3.887,4.027,6.294,6.755,6.44
			c3.93,0.213,7.8-4.33,9.202-10.796c0.176-0.81,0.975-1.324,1.784-1.148c0.81,0.175,1.324,0.974,1.148,1.784
			C155.545,105.836,150.705,111.173,145.377,111.173z"/>
	</g>
	<g>
		<path class="st1" d="M172.618,104.154c-0.087,0-0.175-0.002-0.263-0.007c-3.724-0.2-6.412-4.645-6.12-10.119l0,0
			c0.133-2.484,0.875-4.808,2.089-6.543c1.363-1.949,3.182-2.955,5.077-2.864c1.911,0.103,3.595,1.306,4.742,3.39
			c1.021,1.855,1.51,4.245,1.377,6.729c-0.133,2.484-0.875,4.808-2.088,6.543C176.132,103.142,174.431,104.154,172.618,104.154z
			 M169.232,94.188c-0.213,3.988,1.56,6.871,3.284,6.963c1.138,0.076,2.025-0.968,2.458-1.587c0.884-1.264,1.449-3.081,1.551-4.984
			c0.102-1.904-0.266-3.771-1.01-5.122c-0.364-0.662-1.144-1.781-2.274-1.841c-1.133-0.065-2.025,0.968-2.458,1.587
			C169.9,90.468,169.334,92.285,169.232,94.188L169.232,94.188z"/>
	</g>
	<g>
		<path class="st1" d="M51.183,126.183c-0.429,0-0.858-0.023-1.29-0.07c-4.159-0.45-7.805-3.031-10.266-7.269
			c-2.374-4.088-3.365-9.265-2.79-14.576c1.206-11.135,9.029-19.455,17.428-18.544c8.405,0.91,14.262,10.709,13.056,21.845
			c-0.575,5.311-2.65,10.156-5.845,13.641C58.51,124.449,54.896,126.183,51.183,126.183z M52.987,88.655
			c-6.392,0-12.188,6.896-13.167,15.937c-0.506,4.68,0.346,9.207,2.402,12.747c1.969,3.391,4.808,5.448,7.994,5.792
			c3.192,0.344,6.4-1.057,9.049-3.948c2.765-3.018,4.567-7.257,5.074-11.938c1.027-9.49-3.636-17.807-10.396-18.539
			C53.623,88.672,53.304,88.655,52.987,88.655z"/>
	</g>
	<g>
		<path class="st1" d="M22.658,119.714c-0.464,0-0.94-0.019-1.43-0.056c-6.373-0.491-11.066-7.258-10.464-15.084
			c0.063-0.826,0.784-1.446,1.611-1.38c0.826,0.063,1.444,0.785,1.38,1.611c-0.476,6.177,2.98,11.499,7.703,11.862
			c5.682,0.436,8.776-2.06,9.188-7.421c0.064-0.826,0.79-1.444,1.611-1.38c0.826,0.063,1.444,0.785,1.38,1.611
			C33.133,116.043,29.158,119.713,22.658,119.714z"/>
	</g>
	<g>
		<path class="st1" d="M51.629,116.966c-0.246,0-0.493-0.013-0.74-0.04c-2.355-0.255-4.408-1.697-5.781-4.061
			c-1.287-2.214-1.825-5.008-1.515-7.865l0,0c0.657-6.069,5.006-10.589,9.679-10.088c4.68,0.507,7.953,5.857,7.296,11.926
			c-0.309,2.857-1.433,5.47-3.163,7.358C55.752,116,53.724,116.966,51.629,116.966z M46.575,105.324
			c-0.241,2.226,0.159,4.37,1.127,6.036c0.881,1.517,2.127,2.435,3.509,2.584c1.39,0.15,2.796-0.48,3.981-1.773
			c1.302-1.42,2.151-3.429,2.392-5.655c0.471-4.35-1.652-8.297-4.636-8.621C49.966,97.577,47.047,100.974,46.575,105.324
			L46.575,105.324z"/>
	</g>
	<g>
		<path class="st1" d="M96.379,113.639c-0.096,0-0.193-0.009-0.289-0.028l-30.414-5.97c-0.813-0.159-1.342-0.948-1.183-1.761
			c0.159-0.812,0.945-1.344,1.761-1.183l28.625,5.619V3.203L38.527,10.39c-1.095,0.14-1.92,1.077-1.92,2.181v16.851
			c0,0.829-0.671,1.5-1.5,1.5s-1.5-0.671-1.5-1.5V12.571c0-2.61,1.952-4.827,4.541-5.156l58.041-7.402
			c0.43-0.055,0.858,0.078,1.181,0.362c0.323,0.285,0.509,0.695,0.509,1.126v110.639c0,0.448-0.201,0.874-0.547,1.158
			C97.061,113.519,96.723,113.639,96.379,113.639z"/>
	</g>
	<g>
		<path class="st1" d="M26.69,111.173c-0.761,0-1.414-0.577-1.491-1.351c-0.082-0.824,0.52-1.559,1.344-1.642l9.476-0.945
			c0.831-0.078,1.56,0.52,1.642,1.344s-0.52,1.559-1.344,1.642l-9.476,0.945C26.79,111.171,26.739,111.173,26.69,111.173z"/>
	</g>
	<g>
		<path class="st1" d="M62.276,64.038c-0.055,0-0.109-0.003-0.165-0.009l-36.393-3.974c-0.824-0.09-1.418-0.831-1.329-1.654
			c0.09-0.824,0.834-1.413,1.654-1.329l36.393,3.974c0.824,0.09,1.418,0.831,1.329,1.654C63.681,63.469,63.031,64.038,62.276,64.038
			z"/>
	</g>
	<g>
		<path class="st1" d="M26.692,111.173c-0.201,0-0.402-0.04-0.592-0.122l-22.875-9.831c-0.761-0.327-1.113-1.209-0.786-1.97
			c0.328-0.761,1.211-1.112,1.97-0.786l20.545,8.829c-0.666-7.477-2.15-29.114,2.115-36.972c5.68-10.466,28.513-9.101,34.695-8.527
			c0.493-4.347,2.036-16.994,4.036-23.849c3.279-11.244,20.906-16.765,21.655-16.994c0.46-0.143,0.962-0.053,1.347,0.24
			c0.384,0.292,0.604,0.751,0.592,1.233l-2.132,81.395c-0.022,0.829-0.754,1.497-1.539,1.46c-0.828-0.021-1.482-0.71-1.46-1.539
			l2.075-79.215c-4.542,1.729-15.423,6.599-17.658,14.259c-2.312,7.929-4.078,24.645-4.096,24.812
			c-0.042,0.4-0.243,0.767-0.558,1.017c-0.315,0.25-0.716,0.365-1.117,0.315c-7.696-0.943-28.659-1.555-33.204,6.822
			c-4.639,8.548-1.554,37.467-1.522,37.758c0.058,0.53-0.17,1.052-0.6,1.369C27.321,111.074,27.007,111.173,26.692,111.173z"/>
	</g>
	<g>
		<path class="st1" d="M3.815,101.343c-0.687,0-1.307-0.475-1.462-1.174c-0.202-0.904-4.888-22.245-0.446-31.515
			C6.763,58.519,20.423,57.227,24.895,57.08c0.353-3.754,1.457-14.3,3.271-20.836c1.591-5.729,9.978-10.294,14.683-12.088
			c0.137-0.053,0.281-0.084,0.428-0.095l44.512-3.172c0.826-0.074,1.543,0.563,1.603,1.39s-0.563,1.544-1.39,1.603l-44.288,3.157
			c-4.531,1.768-11.493,5.818-12.657,10.009c-2.114,7.618-3.282,21.504-3.293,21.644c-0.066,0.792-0.748,1.403-1.533,1.375
			c-0.167-0.003-16.742-0.292-21.618,9.885C0.616,78.287,5.233,99.305,5.28,99.516c0.18,0.809-0.329,1.61-1.137,1.791
			C4.033,101.331,3.923,101.343,3.815,101.343z"/>
	</g>
	<g>
		<path class="st1" d="M65.744,42.672c-0.005,0-0.011,0-0.016,0l-37.094-0.379c-0.829-0.009-1.493-0.687-1.485-1.515
			c0.008-0.823,0.678-1.485,1.5-1.485c0.005,0,0.011,0,0.016,0l37.094,0.379c0.829,0.009,1.493,0.687,1.485,1.515
			C67.235,42.01,66.565,42.672,65.744,42.672z"/>
	</g>
	<g>
		<path class="st1" d="M65.963,107.668c-0.748,0-1.396-0.559-1.487-1.32c-0.099-0.822,0.487-1.57,1.31-1.669l19.797-2.388
			c0.825-0.096,1.57,0.487,1.669,1.31c0.099,0.822-0.487,1.57-1.31,1.669l-19.797,2.388
			C66.083,107.665,66.023,107.668,65.963,107.668z"/>
	</g>
</g>
</svg>
