<svg id="Layer_1" xmlns="http://www.w3.org/2000/svg" viewBox="0 0 204.537 126.183"><style>.st0{fill:none;stroke:#454545;stroke-width:3;stroke-linecap:round;stroke-linejoin:round;stroke-miterlimit:10}.st1{fill:#fff}</style><path class="st1" d="M96.379 113.639a1.5 1.5 0 0 1-1.5-1.5V1.5A1.501 1.501 0 0 1 96.667.028l106.658 20.886a1.5 1.5 0 0 1 1.212 1.472v60.747a1.5 1.5 0 0 1-1.023 1.422l-18.296 6.134a1.5 1.5 0 0 1-.954-2.844l17.273-5.791V23.62L97.879 3.322V110.23l64.192-15.62a1.5 1.5 0 1 1 .709 2.915l-66.047 16.071a1.524 1.524 0 0 1-.354.043z"/><path class="st1" d="M172.345 112.617c-.147 0-.294-.004-.442-.012-3.317-.178-6.276-2.332-8.333-6.067-1.93-3.506-2.853-8.049-2.599-12.792.548-10.218 6.204-17.925 12.883-17.584 6.677.358 11.479 8.642 10.932 18.86-.254 4.743-1.657 9.162-3.951 12.442-2.334 3.337-5.334 5.153-8.49 5.153zm1.08-33.467c-4.726 0-9.024 6.656-9.458 14.756-.225 4.191.567 8.164 2.231 11.186 1.538 2.793 3.621 4.397 5.864 4.518 2.256.117 4.486-1.253 6.313-3.865 1.977-2.827 3.189-6.692 3.414-10.883.442-8.253-3.265-15.445-8.096-15.704a4.739 4.739 0 0 0-.268-.008zm-10.956 14.676h.01-.01zM145.377 111.173c-.143 0-.285-.004-.428-.011-3.941-.211-7.453-3.334-9.393-8.355a1.498 1.498 0 1 1 2.797-1.081c1.502 3.887 4.027 6.294 6.755 6.44 3.93.213 7.8-4.33 9.202-10.796a1.5 1.5 0 1 1 2.932.636c-1.697 7.83-6.537 13.167-11.865 13.167z"/><path class="st1" d="M172.618 104.154c-.087 0-.175-.002-.263-.007-3.724-.2-6.412-4.645-6.12-10.119.133-2.484.875-4.808 2.089-6.543 1.363-1.949 3.182-2.955 5.077-2.864 1.911.103 3.595 1.306 4.742 3.39 1.021 1.855 1.51 4.245 1.377 6.729s-.875 4.808-2.088 6.543c-1.3 1.859-3.001 2.871-4.814 2.871zm-3.386-9.966c-.213 3.988 1.56 6.871 3.284 6.963 1.138.076 2.025-.968 2.458-1.587.884-1.264 1.449-3.081 1.551-4.984.102-1.904-.266-3.771-1.01-5.122-.364-.662-1.144-1.781-2.274-1.841-1.133-.065-2.025.968-2.458 1.587-.883 1.264-1.449 3.081-1.551 4.984zM51.183 126.183c-.429 0-.858-.023-1.29-.07-4.159-.45-7.805-3.031-10.266-7.269-2.374-4.088-3.365-9.265-2.79-14.576 1.206-11.135 9.029-19.455 17.428-18.544 8.405.91 14.262 10.709 13.056 21.845-.575 5.311-2.65 10.156-5.845 13.641-2.966 3.239-6.58 4.973-10.293 4.973zm1.804-37.528c-6.392 0-12.188 6.896-13.167 15.937-.506 4.68.346 9.207 2.402 12.747 1.969 3.391 4.808 5.448 7.994 5.792 3.192.344 6.4-1.057 9.049-3.948 2.765-3.018 4.567-7.257 5.074-11.938 1.027-9.49-3.636-17.807-10.396-18.539a9.047 9.047 0 0 0-.956-.051zM22.658 119.714c-.464 0-.94-.019-1.43-.056-6.373-.491-11.066-7.258-10.464-15.084a1.5 1.5 0 1 1 2.991.231c-.476 6.177 2.98 11.499 7.703 11.862 5.682.436 8.776-2.06 9.188-7.421a1.5 1.5 0 1 1 2.991.231c-.504 6.566-4.479 10.236-10.979 10.237z"/><path class="st1" d="M51.629 116.966c-.246 0-.493-.013-.74-.04-2.355-.255-4.408-1.697-5.781-4.061-1.287-2.214-1.825-5.008-1.515-7.865.657-6.069 5.006-10.589 9.679-10.088 4.68.507 7.953 5.857 7.296 11.926-.309 2.857-1.433 5.47-3.163 7.358-1.653 1.804-3.681 2.77-5.776 2.77zm-5.054-11.642c-.241 2.226.159 4.37 1.127 6.036.881 1.517 2.127 2.435 3.509 2.584 1.39.15 2.796-.48 3.981-1.773 1.302-1.42 2.151-3.429 2.392-5.655.471-4.35-1.652-8.297-4.636-8.621-2.982-.318-5.901 3.079-6.373 7.429zM96.379 113.639a1.49 1.49 0 0 1-.289-.028l-30.414-5.97a1.5 1.5 0 0 1 .578-2.944l28.625 5.619V3.203L38.527 10.39a2.203 2.203 0 0 0-1.92 2.181v16.851a1.5 1.5 0 1 1-3 0V12.571a5.207 5.207 0 0 1 4.541-5.156L96.189.013a1.497 1.497 0 0 1 1.69 1.488V112.14a1.5 1.5 0 0 1-1.5 1.499zM26.69 111.173a1.5 1.5 0 0 1-.147-2.993l9.476-.945a1.5 1.5 0 1 1 .298 2.986l-9.476.945a1.555 1.555 0 0 1-.151.007z"/><path class="st1" d="M62.276 64.038c-.055 0-.109-.003-.165-.009l-36.393-3.974a1.501 1.501 0 0 1-1.329-1.654 1.506 1.506 0 0 1 1.654-1.329l36.393 3.974a1.501 1.501 0 0 1-.16 2.992z"/><path class="st1" d="M26.692 111.173c-.201 0-.402-.04-.592-.122L3.225 101.22a1.5 1.5 0 0 1 1.184-2.756l20.545 8.829c-.666-7.477-2.15-29.114 2.115-36.972 5.68-10.466 28.513-9.101 34.695-8.527.493-4.347 2.036-16.994 4.036-23.849 3.279-11.244 20.906-16.765 21.655-16.994a1.502 1.502 0 0 1 1.939 1.473l-2.132 81.395c-.022.829-.754 1.497-1.539 1.46a1.499 1.499 0 0 1-1.46-1.539l2.075-79.215c-4.542 1.729-15.423 6.599-17.658 14.259-2.312 7.929-4.078 24.645-4.096 24.812a1.498 1.498 0 0 1-1.675 1.332c-7.696-.943-28.659-1.555-33.204 6.822-4.639 8.548-1.554 37.467-1.522 37.758.058.53-.17 1.052-.6 1.369a1.48 1.48 0 0 1-.891.296z"/><path class="st1" d="M3.815 101.343a1.5 1.5 0 0 1-1.462-1.174c-.202-.904-4.888-22.245-.446-31.515C6.763 58.519 20.423 57.227 24.895 57.08c.353-3.754 1.457-14.3 3.271-20.836 1.591-5.729 9.978-10.294 14.683-12.088.137-.053.281-.084.428-.095l44.512-3.172c.826-.074 1.543.563 1.603 1.39s-.563 1.544-1.39 1.603l-44.288 3.157c-4.531 1.768-11.493 5.818-12.657 10.009-2.114 7.618-3.282 21.504-3.293 21.644a1.5 1.5 0 0 1-1.533 1.375c-.167-.003-16.742-.292-21.618 9.885-3.997 8.335.62 29.353.667 29.564a1.5 1.5 0 0 1-1.465 1.827z"/><path class="st1" d="M65.744 42.672h-.016l-37.094-.379a1.5 1.5 0 0 1 .015-3h.016l37.094.379a1.5 1.5 0 0 1-.015 3zM65.963 107.668a1.5 1.5 0 0 1-.177-2.989l19.797-2.388a1.5 1.5 0 0 1 .359 2.979l-19.797 2.388a1.61 1.61 0 0 1-.182.01z"/></svg>