<?xml version="1.0" encoding="utf-8"?>
<!-- Generator: Adobe Illustrator 19.2.0, SVG Export Plug-In . SVG Version: 6.00 Build 0)  -->
<svg version="1.1" id="Layer_1" xmlns="http://www.w3.org/2000/svg" xmlns:xlink="http://www.w3.org/1999/xlink" x="0px" y="0px"
	 viewBox="0 0 187.369 190" style="enable-background:new 0 0 187.369 190;" xml:space="preserve">
<style type="text/css">
	.st0{fill:#FFFFFF;}
	.st1{fill:none;stroke:#FFFFFF;stroke-width:3;stroke-linecap:round;stroke-linejoin:round;stroke-miterlimit:10;}
</style>
<g>
	<g>
		<path class="st0" d="M66.01,162.969c-0.109,0-0.218-0.014-0.325-0.043l-36.671-9.724c-0.678-0.179-1.082-0.875-0.902-1.552
			c0.18-0.678,0.876-1.081,1.552-0.902l35.076,9.3V3.215L30.608,18.224v80.503c0,0.701-0.568,1.27-1.27,1.27s-1.27-0.568-1.27-1.27
			V17.395c0-0.503,0.298-0.96,0.758-1.162L65.499,0.108c0.393-0.172,0.846-0.135,1.205,0.099c0.359,0.235,0.576,0.634,0.576,1.063
			v160.429c0,0.394-0.183,0.766-0.496,1.006C66.56,162.878,66.287,162.969,66.01,162.969z"/>
	</g>
	<g>
		<path class="st0" d="M66.01,162.969c-0.107,0-0.214-0.013-0.319-0.041l-64.514-16.77c-0.557-0.145-0.947-0.646-0.95-1.221
			L0,106.035c-0.003-0.581,0.388-1.09,0.95-1.236l64.454-16.764c0.381-0.098,0.784-0.017,1.094,0.223
			c0.311,0.239,0.493,0.609,0.495,1.001l0.286,72.435c0.002,0.394-0.18,0.766-0.491,1.008
			C66.563,162.877,66.289,162.969,66.01,162.969z M2.76,143.946l61.974,16.109l-0.273-69.151L2.545,107.008L2.76,143.946z"/>
	</g>
	<g>
		<path class="st0" d="M66.01,162.969c-0.292,0-0.578-0.101-0.807-0.29c-0.293-0.241-0.462-0.601-0.462-0.98V1.27
			c0-0.403,0.191-0.782,0.516-1.022c0.324-0.24,0.743-0.311,1.129-0.191l52.743,16.298c0.531,0.164,0.894,0.655,0.895,1.211
			l0.226,133.776c0.001,0.608-0.429,1.132-1.026,1.248l-52.97,10.355C66.173,162.961,66.091,162.969,66.01,162.969z M67.28,2.991
			v157.166l50.429-9.858l-0.223-131.794L67.28,2.991z"/>
	</g>
	<g>
		<path class="st0" d="M118.979,152.614c-0.293,0-0.58-0.101-0.809-0.291c-0.292-0.241-0.46-0.6-0.46-0.978V88.569
			c0-0.376,0.167-0.732,0.455-0.973c0.288-0.241,0.669-0.341,1.038-0.276l66.923,11.95c0.603,0.107,1.043,0.631,1.046,1.243
			l0.197,38.007c0.003,0.612-0.431,1.139-1.032,1.254l-67.12,12.818C119.139,152.607,119.059,152.614,118.979,152.614z
			 M120.249,90.086v59.724l64.575-12.332l-0.186-35.895L120.249,90.086z"/>
	</g>
	<g>
		<path class="st0" d="M180.25,109.24c-0.068,0-0.137-0.005-0.206-0.017l-61.269-9.989c-0.692-0.113-1.162-0.765-1.049-1.457
			c0.113-0.693,0.768-1.161,1.457-1.049l61.269,9.989c0.692,0.113,1.162,0.765,1.049,1.457
			C181.4,108.797,180.862,109.24,180.25,109.24z"/>
	</g>
	<g>
		<path class="st0" d="M180.25,119.955c-0.036,0-0.072-0.002-0.109-0.005l-61.269-5.225c-0.698-0.06-1.217-0.675-1.157-1.373
			c0.06-0.699,0.667-1.208,1.373-1.157l61.269,5.225c0.699,0.06,1.217,0.674,1.157,1.373
			C181.457,119.455,180.903,119.955,180.25,119.955z"/>
	</g>
	<g>
		<path class="st0" d="M118.979,133.169c-0.674,0-1.236-0.531-1.268-1.211c-0.032-0.701,0.51-1.294,1.21-1.327l61.269-2.819
			c0.71-0.028,1.294,0.51,1.327,1.21c0.032,0.701-0.51,1.294-1.21,1.327l-61.269,2.819
			C119.018,133.169,118.998,133.169,118.979,133.169z"/>
	</g>
	<g>
		<path class="st0" d="M7.588,112.59c-0.607,0-1.144-0.437-1.25-1.056c-0.118-0.691,0.346-1.347,1.037-1.466l58.134-9.951
			c0.689-0.121,1.347,0.346,1.466,1.037c0.118,0.691-0.346,1.347-1.037,1.466l-58.134,9.951
			C7.732,112.584,7.659,112.59,7.588,112.59z"/>
	</g>
	<g>
		<path class="st0" d="M7.588,123.305c-0.65,0-1.204-0.496-1.263-1.156c-0.063-0.698,0.453-1.316,1.151-1.378l58.134-5.226
			c0.695-0.062,1.316,0.453,1.378,1.151c0.063,0.698-0.453,1.316-1.151,1.378L7.703,123.3
			C7.665,123.303,7.626,123.305,7.588,123.305z"/>
	</g>
	<g>
		<path class="st0" d="M65.725,136.623c-0.021,0-0.043,0-0.065-0.002l-58.134-2.922c-0.701-0.035-1.239-0.632-1.204-1.332
			c0.035-0.7,0.633-1.241,1.332-1.204l58.134,2.922c0.701,0.035,1.239,0.632,1.204,1.332
			C66.958,136.095,66.397,136.623,65.725,136.623z"/>
	</g>
	<g>
		<path class="st1" d="M47.603,164.975"/>
	</g>
	<g>
		<path class="st1" d="M75.307,164.404"/>
	</g>
	<g>
		<path class="st0" d="M71.845,151.035c-0.309,0-0.61-0.113-0.843-0.32c-0.271-0.241-0.427-0.586-0.427-0.949V9.06
			c0-0.408,0.195-0.79,0.525-1.029c0.331-0.24,0.755-0.304,1.142-0.177L112.458,21.1c0.521,0.172,0.872,0.658,0.872,1.206v122.685
			c0,0.643-0.481,1.185-1.12,1.261l-40.215,4.775C71.945,151.032,71.895,151.035,71.845,151.035z M73.115,10.815v137.521
			l37.676-4.474V23.224L73.115,10.815z"/>
	</g>
</g>
</svg>
