<?xml version="1.0" encoding="utf-8"?>
<!-- Generator: Adobe Illustrator 19.2.0, SVG Export Plug-In . SVG Version: 6.00 Build 0)  -->
<svg version="1.1" id="Layer_1" xmlns="http://www.w3.org/2000/svg" xmlns:xlink="http://www.w3.org/1999/xlink" x="0px" y="0px"
	 viewBox="0 0 728.413 131.946" style="enable-background:new 0 0 728.413 131.946;" xml:space="preserve">
<style type="text/css">
	.st0{fill:#FFFFFF;stroke:#B4B4B4;stroke-width:0.5;stroke-miterlimit:10;}
	.st1{fill:#E74C37;}
</style>
<g>
	<g>
		<path class="st0" d="M221.785,130.463L251.529,1.625h37.609c4.959,0,9.15,0.646,12.572,1.941c3.422,1.294,6.225,3.396,8.41,6.309
			c2.186,2.912,3.424,6.941,3.719,12.091c0.295,5.149-0.404,11.391-2.098,18.724c-1.455,6.308-3.15,11.714-5.078,16.215
			c-1.93,4.502-4.377,8.507-7.342,12.01c-2.967,3.507-6.633,6.135-11,7.887c-4.369,1.753-9.438,2.628-15.207,2.628h-11.564
			l-11.781,51.034H221.785z M274.098,25.079l-7.188,31.138h1.617c1.51,0,2.664-0.041,3.465-0.121
			c0.801-0.081,1.762-0.268,2.881-0.566c1.119-0.295,2.014-0.78,2.682-1.455c0.668-0.674,1.404-1.59,2.213-2.75
			c0.805-1.158,1.514-2.655,2.127-4.489c0.611-1.831,1.217-4.044,1.815-6.631c1.307-5.661,1.473-9.597,0.502-11.809
			c-0.973-2.21-3.293-3.316-6.959-3.316H274.098z"/>
		<path class="st0" d="M341.758,71.826l-13.537,58.637h-28.793L329.172,1.625h43.674c4.475,0,8.162,0.607,11.064,1.82
			c2.9,1.213,5.041,2.805,6.42,4.772c1.379,1.969,2.219,4.583,2.516,7.845c0.299,3.263,0.234,6.524-0.197,9.786
			c-0.43,3.264-1.18,7.212-2.25,11.85c-0.559,2.426-1.057,4.406-1.492,5.943c-0.435,1.537-1.182,3.479-2.234,5.824
			c-1.055,2.345-2.221,4.299-3.498,5.863c-1.277,1.564-3.02,3.101-5.228,4.609c-2.209,1.51-4.729,2.67-7.557,3.479
			c2.529,0.484,4.504,1.388,5.926,2.709c1.42,1.321,2.283,2.951,2.59,4.893c0.307,1.941,0.404,3.734,0.295,5.379
			c-0.109,1.646-0.4,3.491-0.873,5.54c-4.918,21.298-8.76,37.474-11.527,48.526h-27.822l11.596-50.226
			c0.461-1.994,0.625-3.585,0.494-4.771c-0.129-1.185-0.69-2.034-1.676-2.547c-0.986-0.513-1.98-0.821-2.978-0.931
			C345.412,71.881,343.861,71.826,341.758,71.826z M352.619,25.484l-5.547,24.02h7.117c3.773,0,6.57-3.934,8.387-11.807
			c1.209-5.23,1.238-8.574,0.092-10.029c-1.146-1.457-3.982-2.184-8.512-2.184H352.619z"/>
		<path class="st0" d="M386.392,95.685L400.564,34.3c2.477-10.729,7.295-19.047,14.455-24.951c7.158-5.903,16.58-8.936,28.264-9.099
			c11.934,0.162,20.115,3.195,24.549,9.099c4.432,5.904,5.41,14.222,2.934,24.951l-14.172,61.385
			c-1.207,5.23-2.967,9.988-5.277,14.275c-2.311,4.286-5.201,8.103-8.668,11.444c-3.467,3.344-7.717,5.932-12.75,7.764
			c-5.033,1.833-10.523,2.67-16.471,2.508c-6.346,0.162-11.613-0.675-15.799-2.508c-4.188-1.832-7.244-4.42-9.168-7.764
			c-1.924-3.342-3.053-7.158-3.383-11.444C384.746,105.673,385.185,100.915,386.392,95.685z M419.01,106.442
			c1.023,0,1.975-0.203,2.85-0.607c0.873-0.404,1.639-1.022,2.289-1.859c0.65-0.835,1.199-1.631,1.643-2.387
			c0.443-0.754,0.865-1.765,1.268-3.032c0.398-1.267,0.689-2.237,0.873-2.912c0.182-0.673,0.412-1.603,0.686-2.79
			c0.062-0.269,0.111-0.484,0.148-0.646l11.951-51.761c0.074-0.324,0.236-0.971,0.488-1.941c0.25-0.971,0.418-1.699,0.504-2.184
			c0.084-0.486,0.223-1.201,0.414-2.145c0.19-0.941,0.277-1.67,0.262-2.184c-0.018-0.512-0.029-1.158-0.037-1.941
			c-0.01-0.78-0.129-1.374-0.357-1.778c-0.23-0.404-0.51-0.835-0.834-1.294c-0.326-0.457-0.791-0.781-1.395-0.971
			c-0.602-0.188-1.309-0.283-2.117-0.283c-1.133,0-2.16,0.189-3.084,0.566c-0.922,0.377-1.723,0.984-2.4,1.82
			c-0.68,0.836-1.258,1.59-1.736,2.264c-0.478,0.676-0.926,1.672-1.338,2.992c-0.414,1.322-0.684,2.265-0.814,2.83
			c-0.131,0.566-0.352,1.525-0.664,2.873c-0.049,0.215-0.092,0.404-0.131,0.565c-0.037,0.161-0.074,0.323-0.111,0.485
			l-11.949,51.762c-0.275,1.187-0.48,2.13-0.613,2.83c-0.137,0.701-0.305,1.727-0.508,3.073c-0.203,1.348-0.254,2.44-0.15,3.275
			c0.103,0.837,0.293,1.712,0.566,2.629s0.775,1.604,1.506,2.062C416.945,106.214,417.877,106.442,419.01,106.442z"/>
	</g>
	<g>
		<g>
			<path class="st1" d="M514.148,65.352h-12.734l2.873-46.305l-10.691,46.305h-13.621l14.822-64.199h21.602l-1.769,33.49
				l13.658-33.49h21.803l-14.822,64.199h-13.783l10.69-46.305L514.148,65.352z"/>
			<path class="st1" d="M545.434,48.023l7.062-30.588c1.234-5.347,3.635-9.491,7.203-12.433c3.566-2.942,8.262-4.453,14.082-4.534
				c5.947,0.081,10.023,1.592,12.234,4.534c2.207,2.941,2.695,7.086,1.461,12.433l-7.062,30.588
				c-0.602,2.606-1.479,4.978-2.629,7.112c-1.15,2.137-2.592,4.038-4.318,5.703c-1.729,1.666-3.846,2.957-6.354,3.869
				c-2.508,0.913-5.244,1.33-8.207,1.249c-3.164,0.081-5.787-0.336-7.873-1.249c-2.086-0.912-3.609-2.203-4.568-3.869
				c-0.959-1.665-1.519-3.566-1.685-5.703C544.613,53,544.832,50.629,545.434,48.023z M561.688,53.383
				c0.51,0,0.982-0.102,1.42-0.303c0.435-0.201,0.814-0.51,1.141-0.927c0.324-0.416,0.598-0.812,0.818-1.188
				c0.221-0.376,0.432-0.881,0.631-1.512c0.199-0.631,0.344-1.115,0.436-1.451c0.09-0.335,0.205-0.799,0.342-1.39
				c0.029-0.134,0.055-0.241,0.074-0.322l5.953-25.792c0.039-0.162,0.119-0.484,0.244-0.969c0.125-0.482,0.209-0.846,0.252-1.087
				c0.041-0.241,0.109-0.598,0.207-1.069c0.094-0.469,0.137-0.831,0.129-1.087c-0.008-0.255-0.016-0.577-0.018-0.968
				c-0.004-0.389-0.065-0.686-0.18-0.886c-0.113-0.202-0.252-0.417-0.414-0.646c-0.162-0.229-0.394-0.389-0.695-0.482
				c-0.301-0.095-0.652-0.143-1.055-0.143c-0.564,0-1.076,0.096-1.535,0.283c-0.461,0.188-0.859,0.49-1.197,0.906
				c-0.338,0.417-0.627,0.793-0.865,1.129c-0.24,0.336-0.461,0.832-0.668,1.49c-0.205,0.659-0.34,1.129-0.404,1.41
				c-0.066,0.283-0.176,0.76-0.332,1.432c-0.023,0.107-0.045,0.201-0.065,0.281c-0.018,0.082-0.037,0.162-0.055,0.242l-5.955,25.792
				c-0.137,0.593-0.24,1.062-0.307,1.411s-0.152,0.86-0.252,1.531c-0.102,0.672-0.127,1.216-0.076,1.633
				c0.053,0.417,0.146,0.853,0.283,1.309c0.137,0.457,0.387,0.8,0.75,1.028C560.658,53.269,561.123,53.383,561.688,53.383z"/>
			<path class="st1" d="M607.525,65.352h-19.344l6.076-64.199h14.307l-5.834,42.558l14.057-42.558h14.307L607.525,65.352z"/>
			<path class="st1" d="M620.139,65.352l14.822-64.199h13.703l-14.822,64.199H620.139z"/>
			<path class="st1" d="M690.496,1.152l-14.822,64.199H661.81l0.322-32.119l-7.416,32.119h-13.863l14.822-64.199h14.59
				l-0.561,30.709l7.09-30.709H690.496z"/>
			<path class="st1" d="M711.26,65.352l-1.162-5.44c-3.475,4.11-7.846,6.166-13.111,6.166c-10.236,0-13.826-6.622-10.768-19.868
				l6.42-27.808c0.701-3.035,1.715-5.682,3.043-7.939c1.326-2.258,2.715-3.996,4.166-5.219c1.451-1.223,3.107-2.197,4.967-2.923
				c1.861-0.726,3.506-1.189,4.936-1.39c1.43-0.202,2.951-0.302,4.562-0.302c1.988,0,3.756,0.141,5.303,0.423
				c1.549,0.282,2.838,0.719,3.869,1.31c1.033,0.591,1.906,1.256,2.623,1.995c0.715,0.738,1.236,1.652,1.562,2.74
				c0.328,1.088,0.549,2.162,0.668,3.225c0.117,1.061,0.098,2.336-0.059,3.828c-0.156,1.49-0.35,2.881-0.58,4.171
				c-0.231,1.29-0.547,2.808-0.951,4.554h-13.541l1.174-5.078c0.234-1.02,0.322-1.867,0.264-2.539
				c-0.06-0.671-0.254-1.148-0.578-1.43c-0.324-0.282-0.637-0.47-0.936-0.564c-0.301-0.094-0.654-0.141-1.057-0.141
				c-0.807,0-1.482,0.107-2.029,0.322c-0.547,0.215-0.998,0.482-1.356,0.806c-0.355,0.322-0.699,0.907-1.027,1.753
				c-0.33,0.847-0.596,1.646-0.797,2.398c-0.201,0.753-0.486,1.934-0.859,3.546l-5.73,24.826c-0.217,0.942-0.367,1.733-0.449,2.378
				c-0.082,0.646-0.088,1.343-0.02,2.095c0.068,0.753,0.332,1.324,0.793,1.713c0.461,0.391,1.121,0.584,1.98,0.584
				c1.424,0,2.5-0.557,3.229-1.672c0.727-1.115,1.379-2.922,1.957-5.42l1.711-7.416h-3.787l2.559-11.082h17.168l-8.635,37.398
				H711.26z"/>
		</g>
		<g>
			<path class="st1" d="M499.533,106.227l-2.283,9.887c-1.051,4.554-3.115,7.898-6.191,10.034
				c-3.078,2.134-6.936,3.202-11.578,3.202c-4.117,0-7.195-1.177-9.236-3.53c-2.039-2.354-2.559-5.699-1.559-10.034l5.604-24.272
				c1.199-5.189,3.238-9.07,6.121-11.645c2.883-2.571,6.764-3.858,11.648-3.858c1.992,0,3.773,0.246,5.346,0.738
				c1.572,0.493,2.9,1.222,3.98,2.186c1.08,0.964,1.811,2.228,2.195,3.792c0.383,1.566,0.338,3.368-0.131,5.404l-2.131,9.229h-11.43
				l1.402-6.076c0.723-3.131,0.164-4.697-1.674-4.697c-1.096,0-1.898,0.346-2.408,1.036c-0.51,0.688-0.906,1.646-1.188,2.873
				l-5.711,24.732c-0.248,1.072-0.217,2.003,0.094,2.792c0.311,0.788,0.871,1.182,1.682,1.182c0.744,0,1.457-0.289,2.139-0.87
				c0.682-0.58,1.195-1.614,1.539-3.104l2.076-9H499.533z"/>
			<path class="st1" d="M501.6,114.635l5.756-24.93c1.006-4.356,2.961-7.733,5.869-10.132c2.906-2.397,6.732-3.629,11.479-3.694
				c4.846,0.065,8.168,1.297,9.969,3.694c1.801,2.398,2.197,5.775,1.191,10.132l-5.754,24.93c-0.492,2.125-1.205,4.057-2.145,5.798
				c-0.938,1.74-2.111,3.289-3.519,4.647c-1.408,1.357-3.135,2.409-5.178,3.153c-2.045,0.744-4.273,1.083-6.689,1.018
				c-2.576,0.065-4.715-0.273-6.416-1.018c-1.699-0.744-2.941-1.796-3.723-3.153c-0.781-1.358-1.24-2.907-1.373-4.647
				C500.932,118.691,501.109,116.76,501.6,114.635z M514.846,119.003c0.416,0,0.801-0.082,1.156-0.246
				c0.356-0.164,0.666-0.416,0.932-0.756c0.264-0.339,0.484-0.661,0.666-0.969c0.18-0.306,0.352-0.716,0.514-1.23
				c0.162-0.516,0.281-0.909,0.355-1.184c0.074-0.272,0.166-0.65,0.277-1.133c0.025-0.109,0.047-0.197,0.06-0.263l4.854-21.021
				c0.031-0.131,0.096-0.394,0.199-0.789c0.102-0.394,0.17-0.688,0.205-0.887c0.033-0.196,0.09-0.486,0.166-0.869
				c0.078-0.384,0.113-0.679,0.107-0.887c-0.008-0.209-0.012-0.472-0.014-0.789c-0.004-0.317-0.053-0.559-0.147-0.723
				c-0.094-0.164-0.207-0.34-0.338-0.525c-0.133-0.186-0.32-0.317-0.566-0.395c-0.244-0.076-0.531-0.114-0.859-0.114
				c-0.461,0-0.879,0.076-1.252,0.229c-0.377,0.153-0.701,0.399-0.977,0.739c-0.275,0.34-0.51,0.646-0.705,0.919
				c-0.193,0.274-0.375,0.68-0.543,1.217c-0.168,0.536-0.277,0.919-0.332,1.149c-0.053,0.229-0.143,0.618-0.268,1.165
				c-0.021,0.088-0.039,0.165-0.055,0.23c-0.014,0.065-0.029,0.131-0.045,0.197l-4.854,21.02c-0.109,0.482-0.193,0.864-0.248,1.149
				c-0.055,0.285-0.123,0.701-0.205,1.248c-0.084,0.547-0.103,0.99-0.062,1.33c0.043,0.34,0.119,0.695,0.231,1.067
				c0.111,0.372,0.314,0.652,0.611,0.838C514.008,118.911,514.387,119.003,514.846,119.003z"/>
			<path class="st1" d="M559.727,128.759h-10.379l2.34-37.739l-8.713,37.739h-11.102l12.08-52.322h17.603l-1.439,27.295
				l11.129-27.295h17.77l-12.078,52.322h-11.234l8.713-37.739L559.727,128.759z"/>
			<path class="st1" d="M582.65,128.759l12.08-52.322h15.271c2.016,0,3.717,0.263,5.106,0.789c1.391,0.524,2.529,1.378,3.418,2.562
				c0.887,1.183,1.389,2.819,1.51,4.91c0.119,2.091-0.166,4.626-0.852,7.604c-0.592,2.562-1.279,4.757-2.062,6.585
				c-0.785,1.829-1.779,3.454-2.982,4.878c-1.205,1.423-2.693,2.491-4.469,3.203c-1.773,0.711-3.83,1.066-6.174,1.066h-4.697
				l-4.783,20.726H582.65z M603.894,85.961l-2.918,12.646h0.656c0.613,0,1.082-0.018,1.406-0.05c0.326-0.033,0.715-0.109,1.172-0.23
				c0.453-0.12,0.816-0.316,1.088-0.591c0.271-0.273,0.57-0.645,0.898-1.117c0.328-0.47,0.615-1.078,0.863-1.822
				c0.248-0.744,0.496-1.642,0.738-2.693c0.531-2.299,0.598-3.896,0.203-4.795c-0.394-0.898-1.338-1.348-2.826-1.348H603.894z"/>
			<path class="st1" d="M647.25,76.437l-6.299,52.322h-11.168l0.998-7.883h-5.846l-2.541,7.883H611.16l17.992-52.322H647.25z
				 M636.344,86.257h-1.051l-7.338,25.094h4.139L636.344,86.257z"/>
			<path class="st1" d="M684.955,76.437l-12.08,52.322h-11.299l0.264-26.178l-6.043,26.178h-11.299l12.078-52.322h11.891
				l-0.457,25.028l5.777-25.028H684.955z"/>
			<path class="st1" d="M695.309,128.759h-10.904l3.973-17.211l-1.123-35.111h11.463l-0.877,17.736l7.315-17.736h11.43
				l-17.303,35.111L695.309,128.759z"/>
		</g>
	</g>
	<g>
		<path class="st1" d="M204.84,129.654h-45.238l29.75-128.858h45.238L204.84,129.654z M124.07,0.796H93.91L64.162,129.654h30.16
			L124.07,0.796z M44.828,0.797h-15.08L0,129.654h15.078L44.828,0.797z M79.584,0.796H58.473L28.725,129.654h21.111L79.584,0.796z
			 M174.609,0.796h-36.191L108.67,129.654h36.191L174.609,0.796z"/>
	</g>
</g>
</svg>
