<svg id="Layer_1" xmlns="http://www.w3.org/2000/svg" viewBox="0 0 365 76.861"><style>.st0{fill:#da1e25}.st1{fill:#68c030}</style><g id="XMLID_1_"><path id="XMLID_7_" class="st0" d="M87.9 10.523c-18.255 0-33.063 14.806-33.063 33.063 0 18.257 14.808 33.057 33.063 33.057 18.258 0 33.063-14.8 33.063-33.057S106.158 10.523 87.9 10.523zm0 48.991c-8.802 0-15.935-7.125-15.935-15.929 0-8.798 7.133-15.941 15.935-15.941 8.798 0 15.941 7.143 15.941 15.941 0 8.804-7.143 15.929-15.941 15.929"/><path id="XMLID_8_" class="st0" d="M294.862 12.602h-17.294v37.931c0 5.613-2.864 10.458-9.458 10.458-6.057 0-9.654-4.88-9.654-9.719v-38.67h-17.105c-.699 0-1.307.609-1.307 1.312v35.603c0 15.97 11.416 27.344 28.066 27.344 19.007 0 28.059-13.447 28.059-27.527v-35.42c0-.703-.608-1.312-1.307-1.312"/><path id="XMLID_9_" class="st0" d="M234.426 18.003c.177-.414.402-1.058.402-1.802 0-.562-.012-3.598-.012-3.598h-47.042c-.696 0-1.311.609-1.311 1.312v14.009h21.992l-21.299 42.274a5.71 5.71 0 0 0-.285.561 4.186 4.186 0 0 0-.347 1.613c0 .603-.035 3.669-.035 3.669h48.317V61.878c0-.691-.613-1.306-1.312-1.306h-21.18c-.001 0 21.995-42.309 22.112-42.569"/><path id="XMLID_10_" class="st0" d="M362.656 12.602c-2.363 0-3.279.485-4.042 1.087l-.054.047-24.294 24.058-24.294-24.058-.054-.047c-.762-.603-1.673-1.087-4.041-1.087h-2.345v63.432h16.804V45.488l14.191 14.8 13.812-14.215.048 29.961H365V12.602h-2.344"/><path id="XMLID_11_" class="st0" d="M177.695 12.602l-16.66-.012v27.426L132.419 13.69c-.756-.591-1.678-1.064-4-1.064h-2.34v63.402l17.49.006-.025-28.123 30.251 28.188 5.211-.012V13.914c0-.703-.613-1.312-1.311-1.312"/><path id="XMLID_12_" class="st0" d="M48.584 28.206L35.961 15.592l-18.349 17.01V12.597H1.314c-.696 0-1.314.608-1.314 1.305v62.315h17.613v-20.13L37.697 76.01l23.513-.006-30.087-30.185 17.461-17.613"/><path id="XMLID_13_" class="st1" d="M51.558 0L38.944 12.62l12.621 12.62 12.613-12.62L51.558 0"/></g></svg>