<?xml version="1.0" encoding="utf-8"?>
<!-- Generator: Adobe Illustrator 19.2.0, SVG Export Plug-In . SVG Version: 6.00 Build 0)  -->
<svg version="1.1" id="Layer_1" xmlns="http://www.w3.org/2000/svg" xmlns:xlink="http://www.w3.org/1999/xlink" x="0px" y="0px"
	 viewBox="0 0 192 34" style="enable-background:new 0 0 192 34;" xml:space="preserve">
<style type="text/css">
	.st0{fill:#122E82;}
</style>
<path class="st0" d="M26.8,26.3c-2.3-2.4-3.7-5.7-3.7-9.3s1.3-6.9,3.7-9.3c2,2,3.3,4.4,3.7,7.3h23c-1-8.4-8.1-15-17.1-15
	c-3.6,0-6.9,1.1-9.6,2.9c-2.7-1.8-6-2.9-9.6-2.9C7.7,0,0,7.6,0,17s7.7,17,17.2,17c3.6,0,6.9-1.1,9.6-2.9c2.8,1.8,6.1,2.9,9.6,2.9
	c8.9,0,16.1-6.7,17.1-15H30.4C30,21.9,28.8,24.2,26.8,26.3z M36.5,3.6c5.5,0,10.2,3.3,12.3,8H33.6c-0.8-2.3-2.2-4.5-3.8-6.3
	C31.7,4.2,34.1,3.6,36.5,3.6z M17.2,30.4c-7.5,0-13.4-6-13.4-13.4c0-7.3,5.8-13.4,13.4-13.4c2.5,0,4.8,0.7,6.7,1.8
	c-2.8,3-4.6,7.1-4.6,11.5c0,4.5,1.8,8.6,4.6,11.6C21.9,29.6,19.6,30.4,17.2,30.4z M48.8,22.4c-2,4.9-6.8,8-12.3,8
	c-2.5,0-4.8-0.6-6.7-1.8c1.6-1.8,3-3.9,3.8-6.2C33.6,22.4,48.8,22.4,48.8,22.4z M71.6,15.2c2.4,0,4.4-0.9,5.2-1.5l-0.7-2.6
	c-1.4,1.1-2.8,1.6-4.3,1.6c-2.4,0-3.8-1.5-3.8-4C68,6.5,69.5,5,71.9,5c1.4,0,2.8,0.4,4.2,1.4l0.7-2.6C76,3.1,74.3,2.3,72,2.3
	c-4.3,0-7.3,2.3-7.3,6.4C64.7,13,67.4,15.2,71.6,15.2z M111.2,12.9h5.2l0.9,1.9h3.3l-5.5-12.2h-2.3l-5.3,12.2h2.8L111.2,12.9z
	 M113.8,6.8l1.7,3.8h-3.3C112.2,10.6,113.8,6.8,113.8,6.8z M148.1,12.9l0.9,1.9h3.3l-5.5-12.2h-2.3l-5.3,12.2h2.8l0.8-1.9H148.1z
	 M145.4,6.8l1.7,3.8h-3.3C143.8,10.6,145.4,6.8,145.4,6.8z M124.2,14.9h3.1V5.1h4V2.7h-11.2v2.4h4.1L124.2,14.9z M106.6,8.8
	c0-4.2-3.2-6.4-6.9-6.4c-3.6,0-6.9,2.2-6.9,6.4s3.3,6.4,6.9,6.4S106.6,13,106.6,8.8z M99.7,12.8c-2.3,0-3.6-1.5-3.6-4
	c0-2.4,1.4-4,3.6-4c2.3,0,3.6,1.6,3.6,4S102,12.8,99.7,12.8z M82.6,10.5l2.6-0.3l2.3,4.6h3.3l-2.7-5.2c1.8-0.7,2.7-1.8,2.7-3.5
	c0-2.1-1.4-3.5-3.8-3.5h-7.4v12.2h3.1v-4.3L82.6,10.5z M82.6,5.1H86c1.1,0,1.7,0.4,1.7,1.2c0,1.1-1.1,1.5-2.2,1.6l-2.8,0.3V5.1H82.6
	z M133.9,2.7h3.1v12.2h-3.1V2.7z M175,27.2c0,1.2-0.2,1.9-1.4,1.9c-0.6,0-1.3-0.3-2.2-0.9l-0.7,2.5c0.9,0.6,2.2,0.9,3,0.9
	c2.5,0,4.4-1.2,4.4-3.9v-8.6H175V27.2z M183.9,28.9v-3h4.9v-2.3h-4.9v-2h6.9v-2.4h-9.9v12.2H191v-2.5L183.9,28.9z M113.2,24.5h-6
	v2.3h3.1v2c-0.8,0.2-1.6,0.3-2.4,0.3c-2.4,0-3.8-1.6-3.8-4c0-2.3,1.5-3.7,3.9-3.7c1.4,0,2.8,0.4,4.2,1.4l0.7-2.6
	c-0.9-0.6-2.5-1.4-4.8-1.4c-4.2,0-7.3,2.3-7.3,6.4c0,4.2,2.7,6.4,6.9,6.4c2.3,0,4.1-0.6,5.4-1.3h0.1L113.2,24.5L113.2,24.5z
	 M141.5,22.7c0-2.1-1.4-3.5-3.8-3.5h-7.4v12.2h3.1V27l2.6-0.3l2.3,4.6h3.3l-2.7-5.2C140.6,25.5,141.5,24.3,141.5,22.7L141.5,22.7z
	 M136.2,24.3l-2.8,0.3v-3.1h3.4c1.1,0,1.7,0.4,1.7,1.2C138.5,23.8,137.3,24.2,136.2,24.3L136.2,24.3z M71.6,18.9
	c-3.6,0-6.9,2.2-6.9,6.4s3.3,6.4,6.9,6.4s6.9-2.2,6.9-6.4C78.5,21,75.3,18.9,71.6,18.9z M71.6,29.3c-2.3,0-3.6-1.5-3.6-4
	c0-2.4,1.4-4,3.6-4c2.3,0,3.6,1.6,3.6,4S73.9,29.3,71.6,29.3z M94.9,19.2H98v12.2h-3.1V19.2z M86.1,23.6C84.3,23.3,84,23,84,22.4
	c0-0.5,0.5-1,2.3-1s3.3,0.5,4.4,1.4l0.7-2.6c-0.9-0.6-2.5-1.3-5-1.3c-3.6,0-5.4,1.7-5.4,3.8c0,2.4,1.7,3.5,5.7,4
	c1.8,0.3,2.2,0.6,2.2,1.2c0,0.8-0.8,1.2-2.8,1.2c-1.5,0-2.7-0.3-4.4-1.3L81,30.4c1.5,0.7,3,1.2,5.2,1.2c3.4,0,5.8-1.4,5.8-4.1
	C91.9,24.8,90.1,24.2,86.1,23.6z M148.1,19.2l-5.3,12.2h2.9l0.8-1.9h5.2l0.9,1.9h3.3l-5.5-12.2H148.1L148.1,19.2z M147.4,27.2
	l1.6-3.8l1.7,3.8H147.4z M124.6,26.3c0,1.9-0.7,2.9-2.7,2.9c-1.9,0-2.6-1-2.6-2.9v-7.1h-3.1v7.2c0,3.6,1.9,5.3,5.8,5.3
	c3.7,0,5.4-1.9,5.4-4.8v-7.7h-2.7v7.1L124.6,26.3z M166.7,26.3l-6.5-7.1h-2.6v12.2h2.7v-7.5l6.8,7.5h2.3V19.2h-2.7V26.3z M155.2,5.6
	h0.5c0.1,0.1,0.2,0.2,0.4,0.5l0.1,0.3c0.2,0.3,0.2,0.4,0.3,0.5h0.7c-0.1-0.1-0.3-0.3-0.4-0.6l-0.2-0.4c-0.1-0.2-0.2-0.4-0.4-0.5
	c0.4-0.1,0.7-0.5,0.7-0.9c0-0.5-0.3-0.9-1-0.9h-1.3v3.2h0.6L155.2,5.6L155.2,5.6z M155.2,4.1h0.6c0.4,0,0.6,0.2,0.6,0.5
	s-0.2,0.6-0.6,0.6h-0.5V4.1H155.2z"/>
<path class="st0" d="M155.7,8.5c1.8,0,3.2-1.4,3.2-3.2s-1.4-3.2-3.2-3.2s-3.2,1.5-3.2,3.2C152.5,7.1,153.9,8.5,155.7,8.5z
	 M155.7,2.6c1.5,0,2.7,1.2,2.7,2.7S157.2,8,155.7,8S153,6.8,153,5.3S154.2,2.6,155.7,2.6z"/>
</svg>
