<?xml version="1.0" encoding="utf-8"?>
<!-- Generator: Adobe Illustrator 19.2.0, SVG Export Plug-In . SVG Version: 6.00 Build 0)  -->
<svg version="1.1" id="Layer_1" xmlns="http://www.w3.org/2000/svg" xmlns:xlink="http://www.w3.org/1999/xlink" x="0px" y="0px"
	 viewBox="0 0 365 76.861" style="enable-background:new 0 0 365 76.861;" xml:space="preserve">
<style type="text/css">
	.st0{fill:#DA1E25;}
	.st1{fill:#68C030;}
</style>
<g id="XMLID_1_">
	<path id="XMLID_7_" class="st0" d="M87.9,10.523c-18.255,0-33.063,14.806-33.063,33.063c0,18.257,14.808,33.057,33.063,33.057
		c18.258,0,33.063-14.8,33.063-33.057C120.963,25.329,106.158,10.523,87.9,10.523z M87.9,59.514
		c-8.802,0-15.935-7.125-15.935-15.929c0-8.798,7.133-15.941,15.935-15.941c8.798,0,15.941,7.143,15.941,15.941
		C103.841,52.389,96.698,59.514,87.9,59.514"/>
	<path id="XMLID_8_" class="st0" d="M294.862,12.602h-17.294v37.931c0,5.613-2.864,10.458-9.458,10.458
		c-6.057,0-9.654-4.88-9.654-9.719v-38.67h-17.105c-0.699,0-1.307,0.609-1.307,1.312v35.603c0,15.97,11.416,27.344,28.066,27.344
		c19.007,0,28.059-13.447,28.059-27.527v-35.42C296.169,13.211,295.561,12.602,294.862,12.602"/>
	<path id="XMLID_9_" class="st0" d="M234.426,18.003c0.177-0.414,0.402-1.058,0.402-1.802c0-0.562-0.012-3.598-0.012-3.598h-47.042
		c-0.696,0-1.311,0.609-1.311,1.312v14.009h21.992l-21.299,42.274c-0.065,0.112-0.173,0.307-0.285,0.561
		c-0.177,0.414-0.347,0.987-0.347,1.613c0,0.603-0.035,3.669-0.035,3.669h48.317V61.878c0-0.691-0.613-1.306-1.312-1.306h-21.18
		C212.313,60.572,234.309,18.263,234.426,18.003"/>
	<path id="XMLID_10_" class="st0" d="M362.656,12.602c-2.363,0-3.279,0.485-4.042,1.087l-0.054,0.047l-24.294,24.058l-24.294-24.058
		l-0.054-0.047c-0.762-0.603-1.673-1.087-4.041-1.087c-1.519,0-2.345,0-2.345,0v63.432h16.804V45.488l14.191,14.8l13.812-14.215
		l0.048,29.961H365V12.602C365,12.602,364.18,12.602,362.656,12.602"/>
	<path id="XMLID_11_" class="st0" d="M177.695,12.602l-16.66-0.012v27.426L132.419,13.69c-0.756-0.591-1.678-1.064-4-1.064
		c-0.932,0-2.34,0-2.34,0v63.402l17.49,0.006l-0.025-28.123l30.251,28.188l5.211-0.012V13.914
		C179.006,13.211,178.393,12.602,177.695,12.602"/>
	<path id="XMLID_12_" class="st0" d="M48.584,28.206L35.961,15.592l-18.349,17.01V12.597H1.314C0.618,12.597,0,13.205,0,13.902
		v62.315h17.613v-20.13L37.697,76.01l23.513-0.006L31.123,45.819L48.584,28.206"/>
	<polyline id="XMLID_13_" class="st1" points="51.558,0 38.944,12.62 51.565,25.24 64.178,12.62 51.558,0 	"/>
</g>
</svg>
