<svg id="Layer_1" xmlns="http://www.w3.org/2000/svg" viewBox="0 0 186.2 40.667"><style>.st0{fill:#002f67}.st1{fill:#939598}</style><path class="st0" d="M49.956 40.552a5.351 5.351 0 0 1-1.251-.174v-.718s.688.194 1.251.194c.738 0 1.352-.213 1.352-1.096 0-.718-.425-1.018-.913-1.367l-.726-.524c-.463-.33-.863-.805-.863-1.542 0-1.367 1.163-1.755 2.127-1.755.563 0 1.164.155 1.164.155v.689s-.613-.174-1.164-.174c-.663 0-1.151.32-1.151 1.009 0 .572.325.873.738 1.174l.675.494c.563.417 1.114.902 1.114 1.804 0 1.618-1.364 1.831-2.353 1.831zM57.902 40.455l-.438-1.61h-2.428l-.438 1.61h-1.101l2.165-6.79h1.176l2.165 6.79h-1.101zm-1.264-4.733c-.175-.659-.388-1.6-.388-1.6s-.213.941-.388 1.6l-.663 2.464h2.102l-.663-2.464zM66.707 40.455h-1.352l-1.952-6.79h1.189l1.076 4.655c.162.699.363 1.795.363 1.795s.213-1.096.375-1.795l1.064-4.655h1.188l-1.951 6.79zM73.624 40.455l-.437-1.61h-2.428l-.438 1.61H69.22l2.165-6.79h1.176l2.165 6.79h-1.102zm-1.263-4.733c-.175-.659-.388-1.6-.388-1.6s-.213.941-.388 1.6l-.663 2.464h2.102l-.663-2.464zM81.994 40.455l-.088-3.55c-.012-.747.013-1.765.013-1.765s-.401.922-.651 1.358l-1.539 2.725-1.552-2.725c-.25-.436-.638-1.348-.638-1.348s.026 1.067.012 1.756l-.088 3.55h-.988l.3-6.79h.801l2.153 4.122 2.165-4.122h.788l.3 6.79h-.988v-.001zM89.137 40.455l-.438-1.61h-2.428l-.438 1.61h-1.101l2.165-6.79h1.176l2.165 6.79h-1.101zm-1.264-4.733c-.174-.659-.388-1.6-.388-1.6s-.212.941-.388 1.6l-.663 2.464h2.103l-.664-2.464zM92.404 40.552a.65.65 0 0 1-.64-.66c0-.359.281-.65.64-.65s.631.291.631.65c.001.369-.272.66-.631.66zM100.357 40.552c-1.439 0-2.165-.476-2.165-1.843v-5.044h1.001v5.189c0 .756.363 1.067 1.164 1.067.714 0 1.164-.301 1.164-1.067v-5.189h1.001v5.044c-.001 1.329-.777 1.843-2.165 1.843zM104.461 40.455v-.591l2.627-5.529h-2.627v-.669h3.628v.591l-2.627 5.529h2.627v.669h-3.628zM116.083 40.455h-1.351l-1.952-6.79h1.19l1.076 4.655c.163.699.363 1.795.363 1.795s.212-1.096.375-1.795l1.064-4.655h1.189l-1.954 6.79zM123 40.455l-.438-1.61h-2.428l-.438 1.61h-1.101l2.165-6.79h1.176l2.165 6.79H123zm-1.263-4.733c-.175-.659-.388-1.6-.388-1.6s-.213.941-.388 1.6l-.663 2.464h2.102l-.663-2.464zM126.692 40.552c-.625 0-1.251-.174-1.251-.174v-.718s.688.194 1.251.194c.738 0 1.351-.213 1.351-1.096 0-.718-.425-1.018-.913-1.367l-.726-.524c-.462-.33-.862-.805-.862-1.542 0-1.367 1.164-1.755 2.127-1.755.563 0 1.164.155 1.164.155v.689s-.613-.174-1.164-.174c-.663 0-1.152.32-1.152 1.009 0 .572.326.873.739 1.174l.675.494c.563.417 1.114.902 1.114 1.804-.001 1.618-1.365 1.831-2.353 1.831zM131.524 40.552a.65.65 0 0 1-.64-.66c0-.359.281-.65.64-.65s.63.291.63.65c0 .369-.272.66-.63.66zM137.597 40.455v-.591l2.628-5.529h-2.628v-.669h3.629v.591l-2.628 5.529h2.628v.669h-3.629zM146.918 40.455l-.439-1.61h-2.427l-.438 1.61h-1.102l2.165-6.79h1.177l2.165 6.79h-1.101zm-1.265-4.733c-.175-.659-.388-1.6-.388-1.6s-.212.941-.388 1.6l-.663 2.464h2.102l-.663-2.464zM155.723 40.455h-1.351l-1.952-6.79h1.189l1.076 4.655c.162.699.363 1.795.363 1.795s.213-1.096.376-1.795l1.063-4.655h1.189l-1.953 6.79zM162.641 40.455l-.439-1.61h-2.427l-.438 1.61h-1.102l2.165-6.79h1.177l2.165 6.79h-1.101zm-1.264-4.733c-.176-.659-.388-1.6-.388-1.6s-.212.941-.388 1.6l-.663 2.464h2.102l-.663-2.464zM166.332 40.552a5.351 5.351 0 0 1-1.251-.174v-.718s.688.194 1.251.194c.738 0 1.351-.213 1.351-1.096 0-.718-.426-1.018-.913-1.367l-.726-.524c-.463-.33-.863-.805-.863-1.542 0-1.367 1.164-1.755 2.127-1.755.563 0 1.164.155 1.164.155v.689s-.612-.174-1.164-.174c-.663 0-1.151.32-1.151 1.009 0 .572.325.873.738 1.174l.676.494c.564.417 1.114.902 1.114 1.804-.001 1.618-1.365 1.831-2.353 1.831zM171.164 40.552a.651.651 0 0 1-.641-.66c0-.359.282-.65.641-.65.358 0 .63.291.63.65 0 .369-.272.66-.63.66z"/><path class="st1" d="M36.6 24.68c.472-.803.737-2.068.737-2.992 0-2.24-.3-4.263-2.958-6.777-1.745-1.654-4.984-3.03-8.082-3.03-6.58 0-12.068 3.767-18.882 10.901-2.291-1.192-3.503-2.936-3.503-5.265 0-2.834 1.026-5.68 5.67-10.322 2.156-2.154 5.562-4.767 8.442-6.524.818-.5 1.214-.671 1.514-.671.301 0 .638.087 1.664.6 3.004 1.505 7.587 4.287 10.753 6.805 6.251 4.968 7.471 8.599 7.471 12.428 0 1.867-.852 3.83-2.826 4.847z"/><path class="st0" d="M2.828 15.985c-.474.803-.736 2.07-.736 2.993 0 2.238.298 4.262 2.955 6.778 1.746 1.653 4.986 3.027 8.086 3.027 6.576 0 12.064-3.766 18.88-10.898 2.305 1.137 3.504 2.614 3.504 4.94 0 3.135-.962 5.793-5.671 10.647-2.042 2.1-6.04 5.038-8.474 6.523-.819.498-1.181.672-1.481.672-.305 0-.642-.088-1.666-.601-3.003-1.505-7.94-4.56-10.721-6.965C1.714 28.096 0 24.383 0 20.801 0 18.932.854 17 2.828 15.985zM54.691 29.529v-6.214h-2.642v6.214h-3.208v-14.12h3.208v5.547h2.642v-5.547h3.208v14.12h-3.208zM66.017 24.981v4.548h-3.123v-4.548l-3.361-6.984h3.499l1.424 4.777 1.423-4.777h3.499l-3.361 6.984zM74.123 26.037v3.492h-3.144V17.997h3.48c3.243 0 4.626.955 4.626 3.953-.001 2.999-1.76 4.004-4.962 4.087zm.493-6.195h-.494v4.482c1.681-.149 1.878-.758 1.878-2.373 0-1.73-.395-2.109-1.384-2.109zM85.351 29.694c-2.096 0-4.626-.544-4.626-5.931 0-5.272 2.511-5.93 4.626-5.93 2.036 0 4.626.675 4.626 5.93 0 5.272-2.411 5.931-4.626 5.931zm0-9.984c-1.009 0-1.502.626-1.502 4.052 0 3.493.593 4.053 1.502 4.053.869 0 1.503-.494 1.503-4.053 0-3.228-.436-4.052-1.503-4.052z"/><path class="st1" d="M102.125 29.529l-.461-2.769h-2.978l-.463 2.769h-3.48l3.48-14.679h3.922l3.461 14.679h-3.481zm-1.279-8.388c-.209-1.405-.671-4.697-.671-4.697s-.441 3.313-.651 4.697l-.482 3.166h2.265l-.461-3.166zM113.047 29.529h-5.712V17.997h3.142v9.423h2.966l-.396 2.109zM118.484 26.037v3.492h-3.143V17.997h3.479c3.243 0 4.627.955 4.627 3.953-.001 2.999-1.761 4.004-4.963 4.087zm.494-6.195h-.494v4.482c1.681-.149 1.878-.758 1.878-2.373 0-1.73-.396-2.109-1.384-2.109zM131.887 20.106h-3.559v2.421h3.262v1.928h-3.262v2.965h3.756v2.109h-6.9V17.997h7l-.297 2.109zM143.792 29.529l-.444-2.663h-2.865l-.444 2.663h-3.347l3.347-14.12h3.773l3.328 14.12h-3.348zm-1.231-8.069c-.202-1.351-.645-4.518-.645-4.518s-.423 3.188-.625 4.518l-.465 3.046h2.179l-.444-3.046zM152.634 29.529h-3.381V17.997h3.381c2.728 0 5.297.577 5.297 5.683 0 5.173-2.392 5.849-5.297 5.849zm.217-9.555h-.455v7.545h.356c1.463 0 2.036-.477 2.036-3.838 0-3.262-.692-3.707-1.937-3.707zM165.107 29.529l-.455-2.636c-.178-1.054-.416-1.746-.771-2.043l-.771.065v4.613h-3.143V17.997h3.973c2.551 0 4.309.543 4.309 3.327 0 1.532-.73 2.422-1.877 2.932.791.329 1.206 1.351 1.463 2.521l.613 2.752h-3.341zm-1.403-9.67h-.593v3.36c1.522-.115 1.997-.379 1.997-1.861-.001-1.269-.455-1.499-1.404-1.499zM170.681 29.529V17.997h3.183v11.532h-3.183zM182.918 29.529l-.435-2.175h-2.806l-.436 2.175h-3.281l3.281-11.532h3.697l3.262 11.532h-3.282zm-1.206-6.59c-.198-1.104-.633-3.69-.633-3.69s-.415 2.603-.613 3.69l-.454 2.488h2.134l-.434-2.488z"/></svg>