<svg id="Layer_1" xmlns="http://www.w3.org/2000/svg" viewBox="0 0 250 104.1"><style>.st0{fill:#00497b}.st1{fill:#ec1c24}</style><path class="st0" d="M.6 25.5c0-2.9 1.3-4.3 4.1-4.3H31v5.9c0 2.9-1.4 4.2-4.3 4.2H12.6V40h15.8v9.8H12.6v9.4h18.8v5.9c0 2.9-1.4 4.2-4.3 4.2H4.7C1.8 69.3.6 67.9.6 65V25.5zm35.7 0c0-2.9 1.3-4.3 4.1-4.3H56c11 0 17.3 5 17.3 14.5 0 6.5-2.5 10.7-8.4 13.1l9.4 18.3c.3.7.7 1.4.7 2.1H64.6c-2.2 0-3.1 0-4.1-2.2L52 49.7h-3.8v19.5h-12V25.5zm12 5.8V40h6.8c3.5 0 6.2-.5 6.2-4.3s-2.7-4.4-6.2-4.4h-6.8zM93 20.8c10 0 15.2 1.1 15.2 5.8v4.7H94.5c-3.7 0-4.7 1-4.7 2.9 0 5.8 20.9 4.6 20.9 20.8 0 7.7-4.4 14.6-17.9 14.6-8.9 0-15.8-1.4-15.8-5.8v-4.7h16c3.3 0 4.9-1.1 4.9-3.4C97.8 49.4 77 50.6 77 34c0-7.4 4.9-13.2 16-13.2zm50.7.4v6.1c0 2.8-1.4 4.1-4.2 4.1h-5.9v37.9h-12v-38h-10.1v-6.1c0-2.8 1.4-4.1 4.2-4.1h28zm3.7 4.3c0-2.9 1.3-4.3 4.1-4.3h26.3v5.9c0 2.9-1.4 4.2-4.3 4.2h-14.1V40h15.8v9.8h-15.8v9.4h18.8v5.9c0 2.9-1.4 4.2-4.3 4.2h-22.4c-2.9 0-4.1-1.4-4.1-4.3V25.5zM9.5 79.7c4.4 0 5.7.4 5.7 2.1v1.1H9.5c-4.1 0-5.8 2.1-5.8 9s1.7 9 5.8 9h5.7v1.1c0 1.7-1.2 2.1-5.7 2.1-6.4 0-9.5-3.8-9.5-12.2 0-8.4 3.1-12.2 9.5-12.2zm19.3 24.2c-1.2 0-1.7-.6-1.7-1.6v-.6c-1.5 1.7-3.6 2.4-5.3 2.4-3.4 0-5.5-2.1-5.5-5.2 0-4.7 5-5.9 10.7-6.2v-1.8c0-2.6-1.7-3.3-4-3.3h-5.4v-1c0-1.7 2-1.7 5.9-1.7 4.3 0 6.9 1.9 6.9 5.8v13.1h-1.6zm-1.7-9.1c-5.1.1-7.2 1.2-7.2 3.6 0 2.1 1.5 2.8 3.4 2.8 1.4 0 2.9-.6 3.8-1.5v-4.9zm7.5 9.1V85.1h1.7c1.1 0 1.6.9 1.7 2.3 1.5-2 3.4-2.5 4.8-2.5.6 0 1.3.2 1.3.9v2.4h-.9c-2.7 0-4.1.7-5.2 1.6v14h-3.4zm24.8 0h-1.7c-1.2 0-1.7-.6-1.7-1.6v-.6c-1.1 1.2-2.7 2.4-4.9 2.4-4.4 0-6.5-3.6-6.5-9.6 0-5.9 2.1-9.6 6.5-9.6 2.1 0 3.8 1.1 4.9 2.4v-6.6c0-.9.5-1.6 1.7-1.6h1.7v24.8zm-7.2-2.6c1.5 0 2.8-.7 3.8-1.6V89.2c-1-.9-2.3-1.6-3.8-1.6-3 0-4.1 2.5-4.1 6.9s1.2 6.8 4.1 6.8zm27.4-21.6c4.4 0 5.7.4 5.7 2.1v1.1h-5.7c-4.1 0-5.8 2.1-5.8 9s1.7 9 5.8 9h5.7v1.1c0 1.7-1.2 2.1-5.7 2.1-6.4 0-9.5-3.8-9.5-12.2 0-8.4 3.1-12.2 9.5-12.2zm11.2 24.2h-3.4v-23c0-1.1.4-1.8 1.5-1.8h1.8v24.8zM109 85.1v18.8h-1.7c-1.2 0-1.7-.6-1.7-1.5v-.6c-1.6 1.7-3.5 2.4-5.3 2.4-3.7 0-5.5-2.3-5.5-5.7V85.1h3.4v13.1c0 2.2 1.3 3.2 3.4 3.2 1.4 0 2.9-.7 3.9-1.6V85.1h3.5zm12.4 19c-2.1 0-3.8-1.1-4.9-2.4v.6c0 .9-.5 1.6-1.7 1.6h-1.7v-23c0-1.1.3-1.8 1.5-1.8h1.8v8.2c1.1-1.2 2.7-2.4 4.9-2.4 4.4 0 6.5 3.6 6.5 9.6.1 6-2 9.6-6.4 9.6zm-1.2-16.5c-1.5 0-2.8.7-3.8 1.6v10.5c1 .9 2.3 1.6 3.8 1.6 2.9 0 4.1-2.4 4.1-6.8.1-4.4-1.1-6.9-4.1-6.9z"/><path class="st1" d="M220.5 0c2.4 0 4.5.9 6.2 2.7 1.7 1.8 2.6 3.9 2.6 6.4 0 2.5-.9 4.6-2.6 6.4-1.7 1.8-3.9 2.7-6.3 2.7s-4.6-.9-6.3-2.7c-1.7-1.8-2.6-3.9-2.6-6.4 0-2.4.9-4.6 2.6-6.4 1.9-1.8 4-2.7 6.4-2.7zM250 35.9v-5.5c0-5.2-4.2-9.4-9.4-9.4h-40.1c-5.2 0-9.4 4.2-9.4 9.4v20.7h44.7v3.1H191v5.5c0 5.2 4.2 9.4 9.4 9.4h40.1c5.2 0 9.4-4.2 9.4-9.4V39.1h-44.7V36H250z"/></svg>