<?xml version="1.0" encoding="utf-8"?>
<!-- Generator: Adobe Illustrator 19.2.0, SVG Export Plug-In . SVG Version: 6.00 Build 0)  -->
<svg version="1.1" id="Calque_1" xmlns="http://www.w3.org/2000/svg" xmlns:xlink="http://www.w3.org/1999/xlink" x="0px" y="0px"
	 viewBox="0 0 443.759 215.585" style="enable-background:new 0 0 443.759 215.585;" xml:space="preserve">
<style type="text/css">
	.st0{fill:#6C797E;}
	.st1{fill:#48555B;}
	.st2{fill:#E86C8A;}
	.st3{fill:#00B4D8;}
	.st4{fill:#FBC400;}
	.st5{fill:#79AB20;}
</style>
<g>
	<g>
		<path class="st0" d="M13.847,200.273c-1.465-0.868-3.224-1.338-4.877-1.338c-4.092,0-6.29,3.018-6.29,7.185
			c0,4.645,2.46,7.185,6.347,7.185c0.969,0,1.938-0.128,2.908-0.396v-7.259h2.57v8.939c-1.627,0.605-3.649,0.974-5.61,0.974
			c-5.772,0-8.895-3.649-8.895-9.259c0-5.82,3.439-9.57,9.049-9.57c2.074,0,4.065,0.548,5.689,1.495L13.847,200.273z"/>
	</g>
	<polygon class="st0" points="35.242,215.273 35.242,196.971 37.812,196.971 37.812,213.12 44.685,213.12 44.685,215.273 	"/>
	<g>
		<path class="st0" d="M70.453,198.856c-4.224,0-5.715,3.281-5.715,7.084c0,4.324,1.491,7.447,6.053,7.447
			c4.302,0,5.746-3.307,5.746-7.109C76.536,202.059,74.988,198.856,70.453,198.856 M70.532,215.585
			c-5.746,0-8.548-3.566-8.548-9.307c0-5.715,3.065-9.623,8.732-9.623c5.61,0,8.57,3.697,8.57,9.285
			C79.286,211.761,76.295,215.585,70.532,215.585"/>
		<path class="st0" d="M104.405,206.856h-2.597v6.32h3.197c1.838,0,3.391-1.048,3.391-3.043
			C108.396,208.011,107.027,206.856,104.405,206.856 M104.036,199.041h-2.228v5.794h2.649c2.074,0,2.859-1.285,2.859-2.987
			C107.317,200.115,106.374,199.041,104.036,199.041 M104.747,215.273h-5.478v-18.303h5.009c3.72,0,5.663,1.627,5.663,4.535
			c0,1.838-0.969,3.224-2.439,3.93c1.965,0.369,3.566,2.075,3.566,4.461C111.067,213.515,108.312,215.273,104.747,215.273"/>
		<path class="st0" d="M136.523,199.62l-0.022,0.048c-1.079,2.938-2.153,5.904-3.123,8.812h6.294
			C138.703,205.599,137.629,202.606,136.523,199.62 M141.795,215.273c-0.443-1.521-0.943-3.175-1.443-4.75H132.8
			c-0.526,1.605-1.048,3.229-1.491,4.75h-2.649c2.018-6.478,4.167-12.535,6.526-18.303h2.886c2.544,6.11,4.746,12.299,6.688,18.303
			H141.795z"/>
	</g>
	<polygon class="st0" points="163.949,215.273 163.949,196.971 166.52,196.971 166.52,213.12 173.392,213.12 173.392,215.273 	"/>
	<g>
		<path class="st0" d="M227.449,215.585c-1.438,0-2.754-0.21-4.166-0.574l0.338-2.255c1.259,0.391,2.596,0.632,4.039,0.632
			c2.285,0,3.588-1.101,3.588-3.018c0-1.891-1.597-2.623-3.614-3.539c-2.491-1.128-4.22-2.413-4.22-5.167
			c0-3.093,2.439-5.009,5.873-5.009c1.202,0,2.645,0.21,3.588,0.548l-0.416,2.07c-0.943-0.28-2.097-0.491-3.251-0.491
			c-2.101,0-3.069,1.101-3.069,2.566c0,1.887,1.521,2.623,3.333,3.466c2.513,1.148,4.557,2.28,4.557,5.241
			C234.028,213.62,231.305,215.585,227.449,215.585"/>
	</g>
	<polygon class="st0" points="253.695,215.273 253.695,196.971 263.766,196.971 263.766,199.094 256.266,199.094 256.266,204.703 
		262.797,204.703 262.797,206.831 256.266,206.831 256.266,213.146 263.871,213.146 263.871,215.273 	"/>
	<g>
		<path class="st0" d="M288.911,199.067h-2.202v6.083h2.065c2.549,0,3.702-1.333,3.702-3.096
			C292.477,200.511,291.586,199.067,288.911,199.067 M293.209,215.273l-4.403-8.074h-2.097v8.074h-2.574v-18.303h5.035
			c3.934,0,6.061,1.86,6.061,4.825c0,2.671-1.68,4.245-3.828,4.903l4.903,8.574H293.209z"/>
		<path class="st0" d="M323.147,215.273h-2.934c-2.597-6.109-4.799-12.271-6.61-18.303h3.014c1.342,5.084,3.254,10.619,5.22,15.549
			l0.026-0.026c1.942-5.22,3.671-10.57,5.061-15.522h2.728C327.814,203.002,325.691,209.028,323.147,215.273"/>
	</g>
	<rect x="348.552" y="196.971" class="st0" width="2.57" height="18.303"/>
	<g>
		<path class="st0" d="M379.601,215.506c-5.193,0-8.522-3.197-8.522-9.15c0-5.977,3.408-9.622,8.496-9.622
			c1.732,0,3.145,0.232,4.798,0.995l-0.842,2.044c-1.308-0.579-2.491-0.838-4.009-0.838c-3.491,0-5.689,2.938-5.689,7.185
			c0,4.75,2.381,7.162,6.109,7.162c1.391,0,2.702-0.368,3.829-0.864l0.68,2.04C382.986,215.116,381.28,215.506,379.601,215.506"/>
	</g>
	<polygon class="st0" points="403.645,215.273 403.645,196.971 413.715,196.971 413.715,199.094 406.215,199.094 406.215,204.703 
		412.741,204.703 412.741,206.831 406.215,206.831 406.215,213.146 413.815,213.146 413.815,215.273 	"/>
	<g>
		<path class="st0" d="M437.18,215.585c-1.443,0-2.755-0.21-4.176-0.574l0.347-2.255c1.259,0.391,2.597,0.632,4.04,0.632
			c2.28,0,3.592-1.101,3.592-3.018c0-1.891-1.601-2.623-3.618-3.539c-2.496-1.128-4.224-2.413-4.224-5.167
			c0-3.093,2.439-5.009,5.877-5.009c1.201,0,2.648,0.21,3.588,0.548l-0.417,2.07c-0.947-0.28-2.101-0.491-3.255-0.491
			c-2.096,0-3.065,1.101-3.065,2.566c0,1.887,1.522,2.623,3.329,3.466c2.518,1.148,4.562,2.28,4.562,5.241
			C443.759,213.62,441.03,215.585,437.18,215.585"/>
	</g>
	<path class="st1" d="M27.553,109.922l-10.342,31.114h20.864L27.553,109.922z M46.15,165.344l-5.899-17.509H15.04l-5.899,17.509
		H0.706l22.224-64.132h10.605l22.228,64.132H46.15z"/>
	<polygon class="st1" points="103.304,108.83 103.304,165.344 94.233,165.344 94.233,108.83 74.461,108.83 74.461,101.396 
		123.08,101.396 123.08,108.83 	"/>
	<path class="st1" d="M168.629,109.922l-10.347,31.114h20.869L168.629,109.922z M187.221,165.344l-5.899-17.509h-25.211
		l-5.899,17.509h-8.434l22.224-64.132h10.614l22.22,64.132H187.221z"/>
	<polygon class="st1" points="220.432,165.344 220.432,101.391 229.41,101.391 229.41,157.817 257.165,157.817 257.165,165.344 	"/>
	<rect x="282.213" y="101.391" class="st1" width="9.07" height="63.953"/>
	<path class="st1" d="M342.723,109.922l-10.347,31.114h20.869L342.723,109.922z M361.314,165.344l-5.898-17.509h-25.211
		l-5.899,17.509h-8.435l22.225-64.132h10.605l22.227,64.132H361.314z"/>
	<polygon class="st1" points="434.982,165.344 402.601,114.821 402.601,165.344 394.521,165.344 394.521,101.391 403.775,101.391 
		434.618,149.559 434.618,101.391 442.78,101.391 442.78,165.344 	"/>
	<polygon class="st2" points="247.831,59.171 226.722,68.584 226.722,41.075 247.831,31.667 	"/>
	<polygon class="st3" points="201.625,59.171 222.73,68.584 222.73,41.075 201.625,31.667 	"/>
	<polygon class="st4" points="272.941,9.403 251.822,0 251.822,27.5 272.941,36.913 	"/>
	<polygon class="st5" points="226.722,9.403 247.836,0 247.836,27.5 226.722,36.913 	"/>
</g>
</svg>
