<svg id="Layer_1" xmlns="http://www.w3.org/2000/svg" viewBox="0 0 234.4 44.3"><style>.st0{fill:#fff}.st1{fill:#4ec9f5}</style><path class="st0" d="M29.9 27.3h5.4c6.2 0 9.3-2.7 9.3-8V9.6c0-5.3-3.1-8-9.3-8H9.9L0 11.5v31.4h9.4V27.3h9.1l16.6 15.6h13.7L29.9 27.3zm-20.5-7V8.7H31c1.5 0 2.5.2 3.1.5.8.5 1.2 1.4 1.2 2.8v5c0 1.4-.4 2.3-1.2 2.8-.6.3-1.6.5-3.1.5H9.4zM169.1 1.6h-29.5l-5.9 5.9v35.4h9.4V26.8H169c6.2 0 9.3-2.7 9.3-8V9.6c.1-5.3-3-8-9.2-8m0 14.9c0 1.4-.4 2.4-1.2 2.8-.6.3-1.6.5-3.1.5h-21.6V8.7h21.6c1.5 0 2.5.2 3.1.5.8.5 1.2 1.4 1.2 2.8v4.5zM221.5 42.9L234.4 30V11.4c0-3.8-.7-6.4-2.2-7.8-1.4-1.3-4.1-2-8.1-2h-30.4c-3.9 0-6.6.7-8.1 2-1.4 1.3-2.2 3.9-2.2 7.8v21.7c0 3.8.7 6.4 2.2 7.8 1.4 1.3 4.1 2 8.1 2h27.8zM193.1 9h31.6v26.1h-31.6V9z"/><path class="st1" d="M126.8 0l-17 17L94.3 1.6H84l42.8 42.7V34L115 22.2l11.8-11.8zM104.6 32.6l-5.2-5.2-8.1 8.1H60.6v-9.6h17.1v-7.4H60.6V8.9h20.3l-7.4-7.3H53.3v41.2h41z"/></svg>