<svg id="Layer_1" xmlns="http://www.w3.org/2000/svg" xmlns:xlink="http://www.w3.org/1999/xlink" viewBox="0 0 365 295.924"><style>.st0{clip-path:url(#SVGID_2_);fill:#c51f1b}</style><defs><path id="SVGID_1_" d="M0 0h365v295.924H0z"/></defs><clipPath id="SVGID_2_"><use xlink:href="#SVGID_1_" overflow="visible"/></clipPath><path class="st0" d="M69.329 262.301l.034-25.11c15.742 0 21.522-.787 24.264 18.509h1.659v-21.48l-42.866.017v2.954h7.422v55.264h-8.184v2.911h44.178v-22.58h-2.209c-2.2 17.07-6.534 19.677-18.67 19.677h-5.628V265.61h3.258c5.45.135 8.548 3.318 9.656 12.686h2.006l-.017-27.759H82.26c0 .135-.389 11.933-9.91 11.764h-3.021zM51.813 263.408H27.625v2.742h8.285v19.872c-1.396 5.044-8.836 7.151-11.053 7.151-15.445 0-14.337-22.597-14.337-28.648 0-5.535-.559-28.665 14.337-28.665 10.494 0 16.021 10.452 18.23 19.838h1.676c0-3.868.068-22.267.025-22.224l-7.219 5.112c.161-.034-3.309-4.942-12.712-4.942-18.23 0-24.916 18.187-24.856 30.882.085 11.611 5.433 31.398 24.856 31.398 6.11 0 10.41-3.106 12.712-6.635l7.727 6.085V266.15h6.517v-2.742zM263.096 273.313l8.819-26.422 9.403 26.422h-18.222zm-34.25-10.553h-9.919v-25.601h12.686c7.448 1.125 7.752 9.733 7.752 12.466.001 6.627-2.767 13.135-10.519 13.135m105.561 10.029c-2.209 17.07-6.534 19.635-18.67 19.635h-.745v-55.256h7.727v-2.979h-25.398v2.979h7.727v55.256h-6.136l-22.563-59.885h-3.326l-18.788 54.494c.042-.161-1.422 4.663-4.519 5.264-2.852.135-2.64-1.354-2.64-1.879v-10.469c0-2.751-.212-8.996-3.064-11.857-3.208-3.225-8.675-3.462-8.548-3.588 0 0 13.88-2.869 13.88-16.055 0-9.242-6.432-13.837-17.18-14.243h-30.493v2.971h7.794v55.256h-7.794v2.937h25.017v-2.937h-7.803v-26.566h10.401c18.052 1.49-3.097 29.528 20.557 29.503h14.912v-2.945c-.829 0-6.297.152-6.635-3.648-.22-2.759 3.597-12.635 3.597-12.635h20.303l6.373 16.292h-7.075v2.937h55.298v-22.58h-2.209zM171.588 237.155c15.742 0 21.556-.753 24.298 18.551h1.659v-21.488h-62.501v2.937h1.633c2.209 0 7.439.161 7.744 4.773v35.249l-29.24-42.959H99.262v2.937h2.64c3.14 0 7.541.144 7.744 4.773v45.168c0 4.409-6.601 6.077-9.36 6.077h-.034v2.192h21.547v-2.192c-2.759 0-9.403-1.667-9.403-6.077l.076-39.768c11.578 16.546 33.421 48.071 33.624 48.037h1.092v-53.436c.296-4.612 5.535-4.773 7.735-4.773h7.177v55.307h-8.184v2.903h44.186v-22.58h-2.217c-2.2 17.079-6.525 19.677-18.67 19.677h-5.628v-26.854h3.258c5.45.135 8.548 3.318 9.656 12.686h2.014l-.017-27.759h-1.972c0 .135-.398 11.942-9.919 11.764h-3.021v-25.145zM364.4 237.165v-2.979h-24.933v2.979h7.829l.034 55.23h-7.863v2.971H364.4v-2.971h-7.828v-55.23zM275.536 183.406c.745-1.904 2.184-3.114 4.172-3.495l20.176-4.502-1.82-17.993-.059-.389c-.499-2.361-1.997-9.538-11.374-10.308-36.062-2.911-44.423-8.26-53.191-13.922l-.034-.076-.051.025-.567-.372c-9.369-6.06-18.67-6.11-19.584-6.085-10.215.008-23.138 4.054-24.196 4.392-3.114.914-6.034 1.845-8.853 2.751-11.298 3.631-21.056 6.779-37.441 6.288l-2.988-.085-.77 2.886c-.593 2.226-5.18 20.345-.753 31.982-3.969 3.123-3.961 6.737-3.944 7.228.161 3.978-.779 4.959-1.083 5.281-1.896 1.955-8.175 2.217-13.465 2.217h-1.998l-1.134 1.557c-3.258 4.494-10.308 5.543-14.819 4.393-1.989-6.034-2.04-10.647-.127-13.397 2.26-3.25 7.05-3.605 9.005-3.605h1.134c4.79 0 8.683-3.918 8.683-8.734V137.01c1.464-2.251 2.632-4.849 3.656-7.769 7.913-1.269 13.973-7.981 13.973-16.055 0-3.097-.914-6.093-2.564-8.649 7.321-3.521 13.575-10.714 13.575-20.151 0-9.428-4.748-13.753-9.25-16.588 1.27-3.622 3.368-9.986 4.79-16.393l6.331-22.681c2.835-8.895 10.232-14.633 18.864-14.633h111.528c-4.722 6.644-11.425 9.783-20.718 9.783h-67.485l-3.529 7.549h60.486c-4.756 7.558-11.713 11.121-21.59 11.121h-43.856l-3.521 7.549h39.125c-4.739 7.278-11.62 10.714-21.319 10.714h-23.908l-3.521 7.549h25.06c.229.313.855 1.456.855 4.519 0 4.841-4.079 8.793-9.089 8.793-1.727 0-3.191-.398-5.772-1.447-1.109-.474-2.217-.939-3.326-1.405l-5.814 5.213c1.092.465 2.175.931 3.267 1.388v.008c5.036 2.175 7.837 3.318 11.645 3.318a16.27 16.27 0 0 0 11.721-4.959c4.299.271 11.222.846 17.934 1.396 8.015.66 15.589 1.278 19.499 1.49 1.963.102 3.8.195 5.552.279 3.326.161 6.373.313 9.411.533 15.225 24.721 23.028 27.971 52.506 31.5 2.124 3.808 4.045 7.828 5.865 11.882v48.122l.008.279c.161 2.217.161 2.962-.135 3.368-1.024 1.337-5.577 3.233-7.16 3.885l-24.848 9.369c-3.292-4.458-4.477-9.121-3.165-12.481m-5.375 13.075h-49.129l21.056-22.224c4.248-4.392 5.603-9.673 3.817-14.861-1.024-2.996-3.8-8.726-6.694-14.607 8.353 3.885 21.023 7.371 46.801 9.453 3.106.254 3.927 1.312 4.545 4.139l1.134 11.121-13.473 3.013c-4.519.889-8.065 3.859-9.733 8.158-1.844 4.738-1.218 10.324 1.676 15.808m-88.609 0c-1.363-5.349-.804-9.614 1.633-12.407 2.327-2.666 5.907-3.478 8.438-3.115l14.362 2.666.364.059h1.997l10.147-10.934.093-.102c1.735-2.023 7.008-8.133 1.625-15.936l-13.566-22.351c2.251-.322 4.502-.516 6.584-.516l.093-.008c.068.008 6.872-.093 14.159 4.147.982 2.116 2.353 4.9 3.885 7.998 2.844 5.772 6.39 12.957 7.38 15.86.313.914 1.269 3.682-2.124 7.194l-25.999 27.446h-29.071zm-4.071-17.366c-2.734 3.131-5.4 8.598-3.673 17.366h-46.251c4.968-.491 8.582-1.659 11.07-4.249 3.03-3.148 3.301-7.456 3.199-10.528.102-.271.601-1.312 2.869-2.336l3.986-1.82-2.395-3.673c-3.952-6.077-2.226-19.347-.694-26.557h.355c15.682 0 25.83-3.258 36.527-6.703 2.793-.897 5.67-1.82 8.709-2.708l.093-.034c.059-.017 3.191-1.007 7.448-1.997l15.081 24.848.127.203c1.506 2.141 1.693 3.563-1.041 6.745l-7.558 8.158-12.39-2.302-.11-.017c-5.594-.862-11.62 1.338-15.352 5.604m-82.059-1.642c-3.216 4.629-3.605 11.011-1.185 19.008h-7.82v-61.02c2.801-.423 5.814-1.227 8.624-2.505-.161 2.657-.525 4.765-1.024 7.574-.118.652-.237 1.337-.355 2.065l-.753 4.401h4.477c6.686 0 11.679-1.049 15.513-3.03v25.474c0 .652-.508 1.185-1.126 1.185h-1.134c-6.644.001-12.187 2.498-15.217 6.848m-16.571 12.39l-35.613-9.267-35.613 9.267v-63.702l35.613-9.242 35.613 9.242v63.702zm-66.656 6.618l31.043-8.082 31.043 8.082H12.195zm12.416-93.789c1.49-2.268 4.892-4.232 9.149-3.495l3.225.559 1.016-3.106c.271-.829.635-1.447 1.143-1.921.906-.855 2.26-1.261 3.978-1.21 4.553.144 10.257 3.317 14.887 8.285 1.684 1.803 3.174 3.893 4.502 6.017.262.44.559.923.821 1.346.372.592.686 1.075.753 1.185.169.288 2.454 3.732 2.293 3.952 1.566-2.201 3.131-4.401 4.697-6.593.042-.059-.025-.262-.161-.55-.347-.753-1.176-2.056-1.676-2.835l-.355-.559-.025-.051c-.051-.076-.262-.406-.533-.829-.525-.821-1.27-2.006-1.6-2.649l9.851-15.758c2.463.516 4.553.592 5.552.592h.246c13.896 0 28.267-8.015 28.267-21.437v-.322c-.169-3.656-.855-7.143-1.405-9.944-.364-1.845-.702-3.588-.702-4.46 0-1.464 2.065-3.097 5.027-3.097h4.494l-2.031-11.645c6.322-4.655 10.206-12.238 10.012-19.482 6.813 5.23 11.62 14.286 12.5 23.934.254 2.793-.296 6.711-1.202 10.833l-.491 1.718.085.025c-1.608 6.72-3.986 13.643-5.239 16.918l-1.168 3.03 2.827 1.6c5.078 2.869 8.192 4.968 8.192 11.645 0 7.659-6.898 13.533-13.558 14.777l-9.106 1.701 7.702 5.146c2.471 1.642 3.944 4.333 3.944 7.177 0 4.807-4.088 8.726-9.115 8.726h-2.903l-.821 2.666c-2.827 9.208-5.899 13.71-15.767 14.667.449-2.793.77-5.484.77-9.293 0-.897-.076-3.402-.118-4.206l-.44-8.582-6.034 6.127c-2.048 2.082-5.679 3.732-9.674 4.519v-7.49l-43.179-11.205-15.361 3.986c-3.43-3.43-4.124-9.092-3.269-10.412m46.632-27.734c.11-.516.533-.931.982-.923l6.5.212c7.93-.279 16.004-3.546 16.918-11.798 0-5.586-3.969-11.028-9.572-11.028-2.996 0-6.364 2.065-10.147 4.57-2.463 1.642-4.418 2.928-5.89 2.928-.999 0-1.811-.669-1.811-1.21l.051-.279 4.155-5.56-3.588-2.412c-.77-.499-1.955-1.447-2.09-2.15-.068-.33.415-.931.567-1.109 1.49-1.735 3.199-3.851 4.917-6.457 1.066-1.481 1.676-2.302 3.453-2.302 1.76 0 3.191 1.413 3.191 3.14 0 1.142 1.261 2.048 2.818 2.048 1.557 0 2.26-1.109 3.224-2.048 0 0 3.699-3.402 1.743-5.01-2.243-1.828-11.214 1.913-8.717-6.322l.626-1.176c.956-1.269 5.247-4.443 14.108-4.443 1.676 0 3.453.118 5.264.338l1.329.169 18.814-11.603c.169.398.22.677.22.677l.025.119c.982 5.696-2.615 12.475-8.353 15.767l-2.294 1.312 1.481 8.489c-4.833 1.481-8.201 5.357-8.201 10.012 0 1.608.372 3.504.846 5.907.525 2.674 1.117 5.696 1.27 8.768 0 8.827-12.187 14.675-22.495 14.337l-.262-.008c-.432-.008-6.991-.533-8.599-1.803-.322-.229-.568-.754-.483-1.152m15.589-58.929c1.193-1.515 3.123-3.199 5.433-4.722 1.803-1.193 4.155-2.251 6.457-2.92 3.648-1.049 7.837-1.117 12.17-.288l-13.346 8.235a48.232 48.232 0 0 0-4.866-.262c-2.26 0-4.342.186-6.254.491l.406-.534m203.353-1.938h50.322c-4.714 6.644-11.425 9.783-20.718 9.783h-37.145c2.963-2.598 5.476-5.864 7.541-9.783m-2.522 28.453h-37.145c3.284-2.877 6.017-6.601 8.201-11.121h50.542c-4.756 7.558-11.713 11.121-21.598 11.121m-29.562 18.264h-37.145c3.174-2.801 5.84-6.381 7.989-10.714h50.474c-4.738 7.269-11.619 10.714-21.318 10.714m8.54 28.343c11.764 1.938 21.403 7.236 28.639 15.742a80.8 80.8 0 0 1 4.511 5.848c-19.795-2.598-26.684-5.476-37.754-22.284 1.472.195 2.996.423 4.604.694m78.987 81.467c.728 1.168 1.346 2.268 1.947 3.326.736 1.303 1.464 2.581 2.31 3.902-5.73-.355-10.071-3.529-14.083-9.53 3.698-1.295 8.175-.381 9.826 2.302m-47.064 25.863l7.718-2.92.11-.042c10.96-4.536 12.517-7.371 12.009-14.658V149.4c8.336 21.175 16.216 36.062 32.38 36.053 2.201 0 4.553-.271 7.075-.838l6.305-1.43-4.342-4.782c-2.768-3.055-4.113-5.425-5.662-8.167a100.337 100.337 0 0 0-2.09-3.58c-3.783-6.136-12.779-8.218-20.066-4.951-3.309-6.567-6.635-15.124-10.638-25.686l-.872-2.014c-.694-1.574-1.388-3.165-2.09-4.756v-.262h-.118c-2.48-5.577-5.129-11.171-8.294-16.419-2.878-4.765-5.806-8.878-8.946-12.568-8.429-9.902-19.592-16.055-33.167-18.297-9.386-1.549-16.038-1.879-24.45-2.294-1.743-.076-3.571-.178-5.51-.279-3.808-.212-11.679-.846-19.296-1.481-5.129-.415-10.393-.846-14.531-1.151.279-1.168.44-2.37.44-3.622 0-1.684-.152-3.182-.449-4.519h54.02c13.922 0 24.002-6.161 29.993-18.272 13.846-.127 23.858-6.407 29.773-18.661h1.921c14.413 0 24.721-6.576 30.628-19.55l2.437-5.34H169.83c-12.026 0-22.267 7.854-26.092 19.982l-.118.423c-3.115-8.675-8.81-16.038-16.114-20.379-10.147-6.043-21.691-8.065-30.891-5.425-3.038.88-6.068 2.251-8.522 3.876-2.116 1.388-5.069 3.631-7.228 6.381-2.336 2.996-4.595 6.627-6.254 10.02-1.058.872-1.87 1.752-2.437 2.615l-2.192 4.113-.118.229c-2.615 5.924-5.806 10.029-8.294 12.923-2.463 2.877-2.59 5.611-2.26 7.397.364 1.946 1.413 3.546 2.531 4.748l-.068.11a8.332 8.332 0 0 0-1.109 4.164c0 4.824 4.198 8.48 9.369 8.48 3.758 0 6.83-1.752 10.08-3.901 1.32-.88 4.815-3.199 5.958-3.326 1.447 0 2.767 1.32 2.767 2.767 0 3.952-5.103 6.085-8.759 6.347l-7.431.796c-5.349.508-7.888 3.343-7.888 5.874 0 2.547 1.219 3.978 2.074 4.832l.55.559 1.887 1.684-7.888 12.695c-5.62-5.205-12.195-8.362-18.027-8.539-3.766-.127-7.024 1.007-9.419 3.275a11.977 11.977 0 0 0-1.828 2.234h-.135c-6.229 0-11.239 3.335-13.693 7.084-2.666 4.096-1.71 11.18 1.676 16.588L.06 120.323v95.118H365v-18.958h-66.436z"/><path class="st0" d="M70.964 135.944l-23.799-6.178v7.795l23.799 6.186zM15.516 143.744l23.799-6.178v-7.804l-23.799 6.179zM15.516 159.419l23.799-6.169v-7.812l-23.799 6.178zM70.964 151.615l-23.799-6.169v7.803l23.799 6.169zM70.964 167.304l-23.799-6.187v7.803l23.799 6.178zM15.516 175.1l23.799-6.178v-7.803l-23.799 6.186z"/></svg>