<?xml version="1.0" encoding="utf-8"?>
<!-- Generator: Adobe Illustrator 19.2.0, SVG Export Plug-In . SVG Version: 6.00 Build 0)  -->
<svg version="1.1" xmlns="http://www.w3.org/2000/svg" xmlns:xlink="http://www.w3.org/1999/xlink" x="0px" y="0px"
	 viewBox="0 0 928.822 201.056" style="enable-background:new 0 0 928.822 201.056;" xml:space="preserve">
<style type="text/css">
	.st0{display:none;}
	.st1{fill:#E2007A;}
</style>
<g id="Fläche">
</g>
<g id="Hilfslinien" class="st0">
</g>
<g id="Hvratski">
	<path class="st1" d="M122.519,132.277h40.173V92.104h-40.173V132.277z M40.177,92.104H0v40.174h40.177V92.104z M1.985,0.833
		L0,70.843l10.53,1.822c1.96-20.63,7.373-35.942,16.239-45.929c9.333-10.448,22.187-15.91,38.706-16.379v146.449
		c0,12.799-1.791,21.1-5.524,24.934c-3.17,3.269-8.538,5.28-16.099,6.016c-2.239,0.189-6.064,0.28-11.48,0.28v11.203h97.949v-11.203
		c-5.413,0-9.237-0.091-11.483-0.28c-7.558-0.735-12.925-2.747-16.099-6.016c-3.733-3.834-5.543-12.135-5.543-24.934V10.358
		c16.525,0.469,29.396,5.931,38.725,16.379c8.87,9.986,14.286,25.299,16.246,45.929l10.527-1.822l-1.985-70.01H1.985z
		 M243.045,132.277h40.177V92.104h-40.177V132.277z M577.58,37.472l16.848,46.182h5.273l17.063-46.298
		c2.103-5.521,3.938-7.123,8.105-7.253v-3.808h-19.641v3.808h2.075c3.328,0,5.287,1.601,5.287,4.427
		c0,1.224-0.356,2.942-1.086,4.778L600.079,70.27L588.64,38.578c-0.983-2.708-1.353-4.049-1.353-5.286
		c0-1.966,2.207-3.189,5.669-3.189h2.215v-3.808h-25.586v3.808h1.107C573.902,30.103,575.491,31.703,577.58,37.472z M839.96,13.763
		c3.685,0,6.751-3.073,6.751-6.765c0-3.679-3.066-6.764-6.627-6.764c-3.796,0-6.876,2.969-6.876,6.764
		C833.208,10.689,836.289,13.763,839.96,13.763z M793.524,78.992h-2.329c-5.163,0-6.265-1.73-6.265-9.946v-10.43l4.903-4.31
		l17.707,28.502h15.494v-3.816h-1.003c-3.944,0-6.282-1.849-9.961-7.733L797.22,47.562l13.503-12.057
		c5.026-4.544,6.641-5.403,10.201-5.403h1.23v-3.808h-24.19v3.808h1.829c3.687,0,5.281,0.859,5.281,2.708
		c0,1.589-1.329,3.672-3.561,5.651L784.93,52.705V0l-17.948,0.859v3.803h1.368c5.148,0,6.256,1.724,6.256,9.829v54.555
		c0,8.098-1.107,9.946-6.256,9.946h-1.967v3.816h27.141V78.992z M689.123,64.489c0,8.605,0.748,12.173,3.431,15.363
		c2.219,2.721,6.021,4.166,10.669,4.166c9.721,0,14.641-6.25,14.641-18.286v-2.344h-4.056v1.731c0,8.587-2.831,13.757-7.5,13.757
		c-2.837,0-5.168-1.85-6.014-4.791c-0.605-2.332-0.859-4.545-0.859-9.596v-34.01h16.574v-4.184h-16.574V5.038h-3.431
		c-1.491,14.491-5.053,19.407-15.716,21.991v3.45h8.835V64.489z M475.515,78.876h-1.464c-2.839,0-5.277-0.742-6.491-1.85
		c-1.491-1.471-1.872-3.671-1.872-10.201V41.639h30.601v25.187c0,6.53-0.384,8.73-1.856,10.201c-1.216,1.107-3.672,1.85-6.503,1.85
		h-1.465v3.933h31.19v-3.933h-1.712c-2.826,0-5.279-0.742-6.505-1.85c-1.347-1.471-1.862-3.801-1.862-10.201v-49.99
		c0-6.393,0.384-8.723,1.862-10.188c1.226-1.12,3.679-1.855,6.505-1.855h1.712V0.859h-31.19v3.933h1.465
		c2.831,0,5.287,0.734,6.503,1.855c1.472,1.466,1.856,3.679,1.856,10.188v20.142h-30.601V16.835c0-6.51,0.381-8.723,1.872-10.188
		c1.214-1.12,3.652-1.855,6.491-1.855h1.464V0.859H444.44v3.933h1.602c2.826,0,5.289,0.734,6.511,1.855
		c1.48,1.466,1.839,3.679,1.839,10.188v49.99c0,6.53-0.358,8.73-1.839,10.201c-1.222,1.107-3.685,1.85-6.511,1.85h-1.602v3.933
		h31.075V78.876z M363.578,132.277h40.178V92.104h-40.178V132.277z M627.076,69.046c0,8.977,6.282,15.48,14.87,15.48
		c7.238,0,13.025-3.685,17.321-11.067c1.237,6.758,4.428,10.194,9.823,10.194c4.188,0,7.39-2.577,8.972-7.135
		c0.84-2.434,1.1-3.789,1.237-8.566h-3.925l-0.13,0.723c-0.268,5.527-1.356,7.74-3.464,7.74c-2.071,0-2.807-1.85-2.807-6.875V45.583
		c0-6.64-0.879-10.938-2.702-13.748c-3.195-4.688-9.107-7.266-16.964-7.266c-10.69,0-19.16,6.145-19.16,13.893
		c0,4.048,2.82,6.861,6.765,6.861c4.166,0,7.004-2.813,7.004-6.861c0-3.334-1.849-5.781-4.901-6.759
		c2.064-2.102,4.16-2.831,8.072-2.831c8.365,0,11.556,3.938,11.556,14.01v6.758C638.377,49.763,627.076,56.755,627.076,69.046z
		 M658.643,57.249c0,7.24-0.594,10.566-2.448,14.257c-2.232,4.414-6.014,6.999-10.077,6.999c-4.804,0-7.851-3.796-7.851-9.713
		c0-5.403,2.688-10.072,7.237-12.52c2.832-1.601,7.136-2.461,13.139-2.577V57.249z M754.836,52.472
		c-2.577-1.967-5.911-3.32-13.638-5.899c-7.729-2.474-10.202-4.68-10.202-9.348c0-4.909,3.926-8.593,9.244-8.593
		c7.599,0,12.232,5.037,14.334,15.467h3.692V26.295h-3.692c-0.356,1.594-1.1,2.694-1.823,2.694c-0.376,0-1.119-0.227-1.861-0.606
		c-3.438-2.088-7.584-3.307-11.528-3.307c-9.837,0-16.594,6.38-16.594,15.456c0,7.994,4.558,13.279,14.375,16.47
		c7.979,2.701,8.11,2.701,10.799,4.427c3.204,1.96,5.045,5.156,5.045,8.724c0,5.768-4.18,9.947-9.935,9.947
		c-5.044,0-9.837-2.578-12.917-6.874c-1.729-2.709-2.934-5.547-4.523-11.179h-3.464v20.762h3.464
		c0.834-2.84,1.334-3.816,2.199-3.816c0.495,0,0.97,0.131,1.583,0.496c6.159,3.691,8.861,4.53,13.775,4.53
		c10.807,0,18.423-7.5,18.423-18.033C761.592,60.309,759.391,56.025,754.836,52.472z M443.958,117.369l-0.612,28.391l3.56,0.24
		c0.608-6.874,1.464-10.688,3.066-14.504c2.95-6.484,8.72-10.182,15.834-10.182h2.597v62.027c0,6.511-0.369,8.73-1.847,10.182
		c-1.22,1.139-3.694,1.855-6.513,1.855h-2.822v3.92h33.658v-3.92h-2.812c-2.834,0-5.301-0.717-6.524-1.855
		c-1.47-1.451-1.843-3.671-1.843-10.182v-62.027h1.843c11.914,0,17.447,6.758,19.759,24.686l3.711-0.24l-0.515-28.391H443.958z
		 M845.982,69.046V25.435l-17.941,0.86v3.808h1.367c5.157,0,6.249,1.732,6.249,9.83v29.113c0,8.098-1.092,9.946-6.249,9.946h-1.973
		v3.816h26.763v-3.816h-1.953C847.076,78.992,845.982,77.262,845.982,69.046z M888.642,92.104v40.174h40.18V92.104H888.642z
		 M726.237,141.099c-15.012,0-24.939,12.037-24.939,29.953c0,17.805,9.928,30.004,24.555,30.004
		c15.26,0,25.181-11.815,25.181-30.122C751.033,153.136,741.112,141.099,726.237,141.099z M726.237,197.105
		c-8.861,0-13.033-8.586-13.033-26.652c0-7.753,0.983-13.632,2.831-18.085c1.967-4.512,5.898-7.344,10.202-7.344
		c4.179,0,8.099,2.832,10.077,7.344c1.837,4.322,2.818,10.332,2.818,18.449C739.132,188.519,734.843,197.105,726.237,197.105z
		 M834.447,185.556v-22.089c0-7.773-0.859-11.815-3.074-15.371c-2.557-4.08-7.238-6.522-12.401-6.522
		c-6.749,0-11.672,3.568-15.188,11.191c-3.119-7.741-7.52-11.191-14.426-11.191c-6.251,0-12.024,4.186-14.354,10.442v-10.084
		l-17.201,0.859v3.828h1.381c4.986,0,6.249,1.966,6.249,9.816v29.12c0,7.968-1.263,9.94-6.249,9.94h-1.998v3.803h26.534v-3.803
		h-1.727c-5.271,0-6.269-1.575-6.269-9.94v-15.351c0-9.726,0.501-13.385,2.611-17.44c1.946-3.822,4.895-5.912,8.333-5.912
		c2.812,0,5.155,1.485,6.503,4.311c1.354,2.709,1.595,5.272,1.595,15.48v32.655h18.312v-3.803h-1.731
		c-5.138,0-6.257-1.706-6.257-9.94v-15.351c0-10.319,0.489-13.516,2.714-17.44c2.077-3.822,5.151-5.912,8.483-5.912
		c2.806,0,5.018,1.485,6.399,4.05c0.956,2.233,1.445,6.296,1.445,13.899v34.497h17.953v-3.803h-1.373
		C835.552,195.496,834.447,193.66,834.447,185.556z M527.87,141.099c-12.909,0-22.252,12.401-22.252,29.718
		c0,18.307,9.225,30.239,23.462,30.239c9.102,0,15.612-4.811,20.898-15.5l-3.69-1.966c-4.296,9.087-8.6,12.655-15.232,12.655
		c-9.693,0-13.895-7.61-14.011-25.552h33.663C550.093,152.511,541.234,141.099,527.87,141.099z M517.16,166.409
		c0.132-12.799,4.441-21.02,11.303-21.02c6.882,0,10.929,7.877,10.826,21.02H517.16z M565.446,33.169
		c0-4.786-3.822-8.093-9.206-8.093c-7.147,0-11.939,5.026-15.481,16.197l0.476-15.839l-17.558,0.86v3.808h1.354
		c5.157,0,6.265,1.732,6.265,9.83v29.113c0,8.098-1.107,9.946-6.265,9.946h-1.945v3.816h28.468v-3.816h-4.042
		c-2.351,0-3.92-0.487-4.799-1.471c-1.088-1.236-1.088-1.472-1.088-8.476v-4.063c0-11.053,0.972-18.306,3.289-24.816
		c2.362-6.743,6.158-11.054,9.484-11.054c0.234,0,0.6,0,1.088,0.131h0.625c-2.343,1.472-3.08,2.688-3.08,4.922
		c0,3.307,2.599,5.885,6.021,5.885C562.745,40.05,565.446,37.106,565.446,33.169z M611.991,141.099
		c-12.87,0-22.212,12.401-22.212,29.718c0,18.307,9.206,30.239,23.477,30.239c9.067,0,15.564-4.811,20.852-15.5l-3.685-1.966
		c-4.265,9.087-8.586,12.655-15.232,12.655c-9.693,0-13.861-7.61-13.978-25.552h33.638
		C634.231,152.511,625.389,141.099,611.991,141.099z M601.328,166.409c0.138-12.799,4.414-21.02,11.282-21.02
		c6.895,0,10.931,7.877,10.814,21.02H601.328z M575.535,185.556v-69.039l-17.959,0.853v3.822h1.359c5.163,0,6.269,1.718,6.269,9.837
		v54.527c0,8.234-1.106,9.94-6.269,9.94h-1.961v3.803h26.759v-3.803h-1.934C576.642,195.496,575.535,193.66,575.535,185.556z
		 M686.819,187.763l-14.875-23.69l13.494-12.057c5.072-4.524,6.646-5.396,10.24-5.396h1.218v-3.828h-24.218v3.828h1.857
		c3.69,0,5.279,0.872,5.279,2.689c0,1.594-1.354,3.696-3.55,5.67l-16.605,14.217v-52.679l-17.928,0.853v3.822h1.354
		c5.142,0,6.255,1.718,6.255,9.837v54.527c0,8.105-1.113,9.94-6.255,9.94h-1.953v3.803h27.127v-3.803h-2.317
		c-5.163,0-6.282-1.706-6.282-9.94V175.1l4.935-4.283l17.68,28.482h15.477v-3.803h-0.983
		C692.828,195.496,690.51,193.66,686.819,187.763z"/>
</g>
</svg>
