<svg xmlns="http://www.w3.org/2000/svg" width="260" height="55.667" viewBox="0 0 260 55.667"><g fill-rule="evenodd" clip-rule="evenodd" fill="#0060A3"><path d="M56.863 31.114l10.188-2.471c.188-.063.312.061.374.246l.246.68c.062.186 0 .369-.123.432l-9.573 4.572c-.124.061-.309-.063-.37-.25l-.926-2.775c-.063-.186-.001-.374.184-.434m-2.592-7.781l10.189-2.471c.185-.062.308.062.369.246l.249.68c.062.249 0 .372-.125.493l-9.57 4.571c-.123.063-.308-.063-.369-.246l-.927-2.781c-.063-.245-.001-.43.184-.492zm-2.595-7.409l10.252-2.533c.186 0 .309.062.37.246l.247.741c.062.186 0 .371-.124.432l-9.573 4.57c-.12.062-.309-.062-.371-.246l-.927-2.78c-.06-.184.002-.43.126-.43zM48.96 7.646l11.055-6.544c.121-.123.369.061.43.246l.246.681c.062.185-.062.307-.246.43l-10.312 8.646c-.185.186-.434 0-.495-.185l-.927-2.778c-.058-.187.065-.372.249-.496zM18.455 18.577c-1.237.432-1.915 1.792-1.484 3.026l7.348 22.046c.434 1.236 1.792 1.916 3.026 1.482l22.046-7.35c1.236-.434 1.915-1.791 1.484-3.025l-7.35-22.045c-.432-1.234-1.79-1.916-3.026-1.482l-22.044 7.348zM14.13 15.86l28.222-9.447c1.606-.492 3.336.372 3.89 1.915l9.45 28.283c.494 1.541-.372 3.334-1.914 3.826l-28.283 9.449c-1.546.557-3.338-.311-3.83-1.914l-9.447-28.22c-.557-1.606.308-3.335 1.912-3.892zm14.453 9.635l2.714 8.027 7.967-2.719-2.657-7.965-8.024 2.657zm-17.54-.62L.792 27.409c-.123 0-.307-.125-.369-.309l-.248-.68c-.062-.184 0-.371.125-.434l9.57-4.568c.123-.062.31.061.371.247l.924 2.778c.065.186.001.372-.122.432zm2.594 7.782l-10.25 2.469c-.186.063-.309-.061-.371-.246l-.249-.682c-.062-.184 0-.367.126-.43l9.57-4.631c.123-.064.307.061.37.309l.925 2.775c.063.19.002.375-.121.436zm2.531 7.47l-10.25 2.471c-.123.064-.308-.063-.369-.248l-.247-.678c-.062-.25 0-.373.186-.496l9.511-4.566c.121-.063.308.061.369.246l.927 2.779c.058.246-.001.432-.127.492zm2.717 8.213L7.894 54.889c-.184.123-.432 0-.493-.186l-.249-.742c-.059-.188.125-.311.249-.434l10.313-8.643c.185-.123.432 0 .494.184l.926 2.779c.06.187-.064.37-.249.493zM162.461 40.127c.863.559 2.408.928 3.89.928 3.273 0 6.113-1.543 6.484-4.691.185-2.166-1.482-3.645-3.643-4.816-1.854-1.051-2.284-1.67-2.161-2.721.062-.988 1.049-1.975 2.716-1.975 1.051 0 1.852.309 2.594.68l1.05-1.854c-.804-.434-1.912-.803-3.521-.803-3.023 0-5.619 1.791-5.865 4.322-.185 1.791 1.049 3.148 3.521 4.51 1.975 1.049 2.345 1.854 2.222 3.086-.123 1.42-1.359 2.285-3.148 2.285-1.237 0-2.471-.494-3.151-.805l-.988 1.854M239.588 40.872h3.214l.864-8.709a8.98 8.98 0 0 1 .308-1.482c.494-1.791 2.161-3.271 4.2-3.271.245 0 .43 0 .618.061l.246-2.594h-.619c-1.85 0-3.703 1.234-4.507 2.717h-.123l.123-2.467h-2.902c-.062 1.17-.062 2.713-.246 4.072l-1.176 11.673M204.945 25.125l3.274 15.746h2.716l3.152-7.537a55.33 55.33 0 0 0 1.665-4.814h.062c.185 1.791.308 3.148.681 4.691l1.541 7.66h2.596l6.667-15.746h-3.21l-2.653 7.654a46.712 46.712 0 0 0-1.607 5.064h-.184c-.123-1.791-.435-3.459-.742-5.188l-1.42-7.531h-2.473l-3.148 7.777c-.554 1.482-1.234 3.273-1.726 4.941h-.188c-.062-1.668-.309-3.334-.555-5.002l-1.174-7.717h-3.274"/><path d="M198.4 22.468l-.246 2.657h-2.471l-.185 1.85h2.471l-.93 9.139c-.246 2.223 0 3.271.745 4.014.677.682 1.789.928 3.084.928 1.053 0 1.793-.123 2.41-.246v-1.916c-.307.063-.74.063-1.298.063-1.174 0-2.038-.492-1.789-2.592l.926-9.389h4.444l-.368-1.85h-3.83l.37-3.707-3.333 1.049"/><path d="M191.791 40.872l1.424-13.896h3.705l.185-1.85h-3.645l.062-.989c.246-2.04.927-3.952 3.211-3.952.865 0 1.357.123 1.791.246l.68-1.976c-.557-.185-1.359-.369-2.471-.369-1.233 0-2.839.308-4.137 1.357-1.604 1.234-2.1 3.026-2.284 4.694l-.062.989h-2.534l-.185 1.85h2.534l-1.423 13.896h3.149M87.187 40.872h5.433V30.866c0-.492.062-.928.185-1.174.369-.988 1.234-1.48 2.038-1.48 1.729 0 1.854 1.543 1.854 2.717v9.943h5.433V30.803c0-.43.062-.926.185-1.111.311-.926 1.05-1.48 2.038-1.48 1.606 0 1.854 1.48 1.854 3.273v9.387h5.435V30.743c0-3.768-1.607-6.053-5.312-6.053-.988 0-1.977.186-2.78.555-.801.434-1.603.992-2.1 1.607h-.062c-.739-1.357-2.161-2.162-4.444-2.162-2.1 0-3.769.928-4.818 2.1h-.062l-.308-1.852H85.95c.558.307 1.172.926 1.172 1.236.066 1.234.066 2.158.066 3.58v11.118M78.354 37.844c-1.915 0-2.471-2.283-2.471-4.941 0-2.223.369-4.939 2.41-4.939 1.851 0 2.284 2.717 2.284 4.939 0 2.285-.433 4.941-2.223 4.941m-.061 3.274c3.026 0 7.717-1.67 7.717-8.275 0-5.004-2.902-8.152-7.717-8.152-.988 0-2.222.125-2.657.248-.864.307-6.112.123-5.682.307.989.25 3.026 1.361 2.78 1.545-1.359 1.357-2.284 3.396-2.284 6.176.062 5.125 2.963 8.152 7.781 8.152h.062zM118.184 31.424c.062-1.609.742-3.586 2.53-3.586 1.607 0 2.288 1.543 2.288 3.586h-4.818m9.632 2.961c.064-.432.126-1.051.126-2.164 0-4.813-2.533-7.531-6.917-7.531-4.572 0-8.09 3.211-8.09 8.521 0 5.002 3.026 7.844 8.582 7.844 2.039 0 4.138-.307 5.561-.742l-.743-3.027c-.988.248-2.345.496-3.83.496-2.407 0-4.26-.926-4.322-3.396h9.633zM139.119 35.002c0 .432-.064.928-.249 1.234-.431.865-1.11 1.176-1.789 1.176-1.605 0-2.655-1.482-2.655-4.447 0-2.592.741-4.691 2.717-4.691.928 0 1.481.615 1.728 1.357.123.307.249.742.249 1.111v4.26M144.553 30c0-1.914.062-3.58.185-5.063h-4.753l-.31 1.668h-.063c-.803-1.234-2.161-1.916-3.767-1.916-3.766 0-6.792 3.088-6.792 8.336 0 3.83 1.789 7.723 6.298 7.723 1.543 0 2.965-.559 3.703-1.609h.064v.988c0 2.471-1.049 3.893-3.829 3.893a10.84 10.84 0 0 1-3.829-.682l-.987 3.275c1.419.492 3.149.738 5.063.738 2.902 0 5.063-.615 6.608-1.727 1.603-1.236 2.407-3.09 2.407-6.547V30zM154.804 35.868c0 .309-.062.555-.123.742-.373.988-1.357 1.357-2.223 1.357s-1.977-.555-1.977-2.1c0-2.223 2.529-2.719 4.322-2.779v2.78m5.31-4.571c0-3.211-.988-6.607-7.164-6.607-2.902 0-5.186.742-6.359 1.174l.989 2.902c1.233-.555 2.529-.928 4.137-.928 1.977 0 2.903.928 2.903 2.162v.373c-4.634.059-9.324 1.725-9.263 5.926 0 2.779 2.284 4.818 5.31 4.818 1.792 0 3.457-.617 4.507-1.855h.122l.312 1.609h4.816c-.187-1.113-.248-2.408-.248-3.646l-.062-5.928zM179.814 39.139c-2.842 0-3.088-3.578-2.842-6.174.246-2.408 1.173-6.113 4.076-6.113 2.78 0 3.025 3.705 2.78 6.113-.25 2.469-1.237 6.174-3.953 6.174h-.061m-.31 1.979c3.088 0 6.854-2.039 7.535-8.152.554-5.496-2.1-8.09-5.683-8.09-3.457 0-6.979 2.41-7.532 8.15-.618 5.498 2.037 8.092 5.68 8.092zM234.339 35.868c-.062.309-.123.615-.246.926-.554 1.543-1.791 2.346-3.21 2.346-1.111 0-2.347-.676-2.16-2.775.369-3.398 4.26-3.645 5.927-3.645l-.311 3.148m3.644-5.436c.371-3.518-1.111-5.557-5.187-5.557-1.976 0-3.828.557-4.756.988l.495 1.791c1.05-.494 2.161-.803 3.396-.803 2.532 0 3.088 1.422 2.84 3.58l-.062.496c-4.509 0-8.707 1.729-9.138 5.682-.248 2.775 1.664 4.508 4.321 4.508 1.729 0 3.211-.744 4.198-1.916h.123l.062 1.67h2.842c-.124-1.051.062-2.408.185-3.586l.681-6.853zM250.768 31.362c.369-2.164 1.666-4.572 3.765-4.572 1.546 0 2.903 1.422 2.534 4.572h-6.299m9.075 1.849c.126-.369.188-.801.249-1.42.369-3.58-.926-6.916-5.001-6.916-4.077 0-7.103 3.148-7.66 8.273-.492 4.818 1.73 7.906 6.486 7.906 1.42 0 2.53-.123 3.642-.492.186-.063 1.05.369 2.41 1.541l-1.914-3.641c-.804.369-1.977.615-3.337.615-2.284 0-4.63-1.051-4.135-5.867h9.26zM257.324 17.195c1.198 0 2.083 1.021 2.083 2.311 0 1.263-.885 2.285-2.083 2.285-1.199 0-2.11-1.022-2.11-2.315 0-1.26.911-2.281 2.078-2.281h.032m0-.602c-1.543 0-2.769 1.294-2.769 2.883 0 1.624 1.226 2.917 2.769 2.917 1.538 0 2.765-1.293 2.765-2.917 0-1.589-1.227-2.883-2.765-2.883zm-.428 1.954c.057-.03.171-.03.342-.03.399 0 .6.15.6.42 0 .299-.286.422-.655.422h-.286v-.812zm-.029 1.29h.314c.341 0 .512.151.57.451.085.361.112.602.199.692h.654c-.083-.09-.143-.272-.227-.692-.087-.389-.201-.63-.486-.719v-.032c.315-.12.57-.361.57-.691a.774.774 0 0 0-.255-.602c-.201-.149-.428-.238-.943-.238-.397 0-.742.059-.969.089v2.884h.571v-1.142z"/></g></svg>