<?xml version="1.0" encoding="utf-8"?>
<!-- Generator: Adobe Illustrator 20.1.0, SVG Export Plug-In . SVG Version: 6.00 Build 0)  -->
<svg version="1.1" id="Layer_1" xmlns="http://www.w3.org/2000/svg" xmlns:xlink="http://www.w3.org/1999/xlink" x="0px" y="0px"
	 viewBox="0 0 250 104.1" style="enable-background:new 0 0 250 104.1;" xml:space="preserve">
<style type="text/css">
	.st0{fill:#00497B;}
	.st1{fill:#EC1C24;}
</style>
<g>
	<path class="st0" d="M0.6,25.5c0-2.9,1.3-4.3,4.1-4.3H31v5.9c0,2.9-1.4,4.2-4.3,4.2H12.6V40h15.8v9.8H12.6v9.4h18.8v5.9
		c0,2.9-1.4,4.2-4.3,4.2H4.7c-2.9,0-4.1-1.4-4.1-4.3V25.5z M36.3,25.5c0-2.9,1.3-4.3,4.1-4.3H56c11,0,17.3,5,17.3,14.5
		c0,6.5-2.5,10.7-8.4,13.1l9.4,18.3c0.3,0.7,0.7,1.4,0.7,2.1H64.6c-2.2,0-3.1,0-4.1-2.2L52,49.7h-3.8v19.5h-12V25.5z M48.3,31.3V40
		h6.8c3.5,0,6.2-0.5,6.2-4.3c0-3.8-2.7-4.4-6.2-4.4H48.3z M93,20.8c10,0,15.2,1.1,15.2,5.8v4.7H94.5c-3.7,0-4.7,1-4.7,2.9
		c0,5.8,20.9,4.6,20.9,20.8c0,7.7-4.4,14.6-17.9,14.6c-8.9,0-15.8-1.4-15.8-5.8v-4.7H93c3.3,0,4.9-1.1,4.9-3.4
		C97.8,49.4,77,50.6,77,34C77,26.6,81.9,20.8,93,20.8z M143.7,21.2v6.1c0,2.8-1.4,4.1-4.2,4.1h-5.9v37.9h-12V31.3h-10.1v-6.1
		c0-2.8,1.4-4.1,4.2-4.1H143.7z M147.4,25.5c0-2.9,1.3-4.3,4.1-4.3h26.3v5.9c0,2.9-1.4,4.2-4.3,4.2h-14.1V40h15.8v9.8h-15.8v9.4
		h18.8v5.9c0,2.9-1.4,4.2-4.3,4.2h-22.4c-2.9,0-4.1-1.4-4.1-4.3V25.5z M9.5,79.7c4.4,0,5.7,0.4,5.7,2.1v1.1H9.5
		c-4.1,0-5.8,2.1-5.8,9c0,6.9,1.7,9,5.8,9h5.7v1.1c0,1.7-1.2,2.1-5.7,2.1c-6.4,0-9.5-3.8-9.5-12.2C0,83.5,3.1,79.7,9.5,79.7z
		 M28.8,103.9c-1.2,0-1.7-0.6-1.7-1.6v-0.6c-1.5,1.7-3.6,2.4-5.3,2.4c-3.4,0-5.5-2.1-5.5-5.2c0-4.7,5-5.9,10.7-6.2v-1.8
		c0-2.6-1.7-3.3-4-3.3h-5.4v-1c0-1.7,2-1.7,5.9-1.7c4.3,0,6.9,1.9,6.9,5.8v13.1H28.8z M27.1,94.8c-5.1,0.1-7.2,1.2-7.2,3.6
		c0,2.1,1.5,2.8,3.4,2.8c1.4,0,2.9-0.6,3.8-1.5V94.8z M34.6,103.9V85.1h1.7c1.1,0,1.6,0.9,1.7,2.3c1.5-2,3.4-2.5,4.8-2.5
		c0.6,0,1.3,0.2,1.3,0.9v2.4h-0.9c-2.7,0-4.1,0.7-5.2,1.6v14H34.6z M59.4,103.9h-1.7c-1.2,0-1.7-0.6-1.7-1.6v-0.6
		c-1.1,1.2-2.7,2.4-4.9,2.4c-4.4,0-6.5-3.6-6.5-9.6c0-5.9,2.1-9.6,6.5-9.6c2.1,0,3.8,1.1,4.9,2.4v-6.6c0-0.9,0.5-1.6,1.7-1.6h1.7
		V103.9z M52.2,101.3c1.5,0,2.8-0.7,3.8-1.6V89.2c-1-0.9-2.3-1.6-3.8-1.6c-3,0-4.1,2.5-4.1,6.9C48.1,98.9,49.3,101.3,52.2,101.3z
		 M79.6,79.7c4.4,0,5.7,0.4,5.7,2.1v1.1h-5.7c-4.1,0-5.8,2.1-5.8,9c0,6.9,1.7,9,5.8,9h5.7v1.1c0,1.7-1.2,2.1-5.7,2.1
		c-6.4,0-9.5-3.8-9.5-12.2C70.1,83.5,73.2,79.7,79.6,79.7z M90.8,103.9h-3.4v-23c0-1.1,0.4-1.8,1.5-1.8h1.8V103.9z M109,85.1v18.8
		h-1.7c-1.2,0-1.7-0.6-1.7-1.5v-0.6c-1.6,1.7-3.5,2.4-5.3,2.4c-3.7,0-5.5-2.3-5.5-5.7V85.1h3.4v13.1c0,2.2,1.3,3.2,3.4,3.2
		c1.4,0,2.9-0.7,3.9-1.6V85.1H109z M121.4,104.1c-2.1,0-3.8-1.1-4.9-2.4v0.6c0,0.9-0.5,1.6-1.7,1.6h-1.7v-23c0-1.1,0.3-1.8,1.5-1.8
		h1.8v8.2c1.1-1.2,2.7-2.4,4.9-2.4c4.4,0,6.5,3.6,6.5,9.6C127.9,100.5,125.8,104.1,121.4,104.1z M120.2,87.6c-1.5,0-2.8,0.7-3.8,1.6
		v10.5c1,0.9,2.3,1.6,3.8,1.6c2.9,0,4.1-2.4,4.1-6.8C124.4,90.1,123.2,87.6,120.2,87.6z"/>
	<path class="st1" d="M220.5,0c2.4,0,4.5,0.9,6.2,2.7c1.7,1.8,2.6,3.9,2.6,6.4c0,2.5-0.9,4.6-2.6,6.4c-1.7,1.8-3.9,2.7-6.3,2.7
		c-2.4,0-4.6-0.9-6.3-2.7c-1.7-1.8-2.6-3.9-2.6-6.4c0-2.4,0.9-4.6,2.6-6.4C216,0.9,218.1,0,220.5,0L220.5,0z M250,35.9v-5.5
		c0-5.2-4.2-9.4-9.4-9.4h-40.1c-5.2,0-9.4,4.2-9.4,9.4v20.7h44.7v3.1H191v5.5c0,5.2,4.2,9.4,9.4,9.4h40.1c5.2,0,9.4-4.2,9.4-9.4
		V39.1h-44.7v-3.1H250z"/>
</g>
</svg>
