<?xml version="1.0" encoding="utf-8"?>
<!-- Generator: Adobe Illustrator 13.0.1, SVG Export Plug-In  -->
<!DOCTYPE svg PUBLIC "-//W3C//DTD SVG 1.1//EN" "http://www.w3.org/Graphics/SVG/1.1/DTD/svg11.dtd" [
	<!ENTITY ns_flows "http://ns.adobe.com/Flows/1.0/">
]>
<svg version="1.1"
	 xmlns="http://www.w3.org/2000/svg" xmlns:xlink="http://www.w3.org/1999/xlink" xmlns:a="http://ns.adobe.com/AdobeSVGViewerExtensions/3.0/"
	 x="0px" y="0px" width="149px" height="26px" viewBox="-0.676 -0.371 149 26" enable-background="new -0.676 -0.371 149 26"
	 xml:space="preserve">
<defs>
</defs>
<path fill="#DF0024" d="M16.921,2.054l-2.509,4.658c-0.584-0.467-1.233-0.837-1.947-1.111c-0.712-0.274-1.458-0.414-2.234-0.421
	c-0.62,0-1.215,0.161-1.786,0.482S7.567,6.467,7.527,7.11C7.542,7.556,7.703,7.921,8.01,8.206c0.308,0.285,0.676,0.515,1.105,0.688
	c0.428,0.174,0.832,0.314,1.211,0.422l1.608,0.46c1.728,0.445,3.146,1.148,4.259,2.11c1.111,0.962,1.687,2.362,1.725,4.202
	c0.016,1.167-0.16,2.295-0.531,3.386c-0.369,1.09-1.029,2.034-1.978,2.834c-0.965,0.761-2.044,1.314-3.237,1.662
	s-2.409,0.519-3.647,0.514c-1.537-0.007-3.03-0.239-4.479-0.697C2.596,23.327,1.248,22.682,0,21.849l2.702-4.842
	c0.788,0.676,1.648,1.239,2.581,1.689c0.934,0.449,1.938,0.684,3.016,0.7c0.775,0.005,1.47-0.181,2.084-0.555
	c0.613-0.375,0.938-0.967,0.973-1.773c-0.021-0.557-0.253-1.007-0.692-1.351c-0.438-0.344-0.953-0.615-1.542-0.813
	C8.531,14.707,8,14.55,7.527,14.433c-1.326-0.335-2.48-0.727-3.46-1.174c-0.979-0.448-1.739-1.085-2.28-1.91
	S0.973,9.376,0.965,7.906c0.014-1.571,0.377-2.936,1.09-4.093c0.712-1.157,1.694-2.055,2.947-2.69
	c1.252-0.637,2.694-0.96,4.327-0.969c1.251,0.007,2.553,0.178,3.904,0.514C14.586,1.004,15.814,1.466,16.921,2.054z"/>
<path fill="#DF0024" d="M41.521,5.358v5.76h0.611c0.702,0.012,1.385-0.052,2.049-0.188c0.665-0.138,1.214-0.413,1.649-0.829
	s0.661-1.037,0.677-1.863c-0.016-0.827-0.241-1.447-0.677-1.863s-0.984-0.691-1.649-0.828c-0.664-0.137-1.347-0.2-2.049-0.188
	H41.521z M47.762,14.397l7.624,9.467h-7.85l-5.951-8.885h-0.064v8.885h-6.306V0.762h9.426c1.613-0.003,3.052,0.245,4.315,0.747
	c1.264,0.501,2.262,1.277,2.993,2.326c0.731,1.05,1.104,2.395,1.12,4.036c-0.006,1.629-0.461,3.042-1.363,4.239
	C50.803,13.308,49.488,14.069,47.762,14.397z M29.121,5.854V23.87h-6.305V5.854h-5.211V0.768h16.727v5.086H29.121z"/>
<path fill="#DF0024" d="M85.702,5.325v4.474h0.708c0.873,0.029,1.651-0.099,2.332-0.384c0.681-0.284,1.04-0.902,1.077-1.854
	c-0.013-0.692-0.204-1.199-0.571-1.52c-0.367-0.319-0.83-0.522-1.387-0.606c-0.558-0.085-1.127-0.122-1.709-0.11H85.702z
	 M89.112,23.832h-9.716V0.729h9.008c2.187-0.026,3.926,0.424,5.22,1.348c1.293,0.925,1.955,2.477,1.986,4.657
	c0.011,1.049-0.188,1.977-0.6,2.785c-0.411,0.808-1.101,1.452-2.071,1.934v0.062c1.728,0.231,2.986,0.863,3.78,1.896
	s1.186,2.361,1.175,3.987c-0.026,1.604-0.457,2.877-1.291,3.82c-0.834,0.942-1.914,1.617-3.241,2.021
	C92.035,23.645,90.618,23.842,89.112,23.832z M85.702,14.272v4.964h0.804c0.649,0.017,1.359-0.007,2.131-0.071
	c0.771-0.063,1.438-0.269,2.002-0.614c0.563-0.347,0.858-0.936,0.886-1.766c-0.025-0.909-0.32-1.54-0.886-1.891
	c-0.563-0.353-1.242-0.549-2.035-0.591c-0.794-0.042-1.546-0.052-2.258-0.031H85.702z M68.875,15.26l-2.574-7.354h-0.064
	l-2.605,7.354H68.875z M70.579,19.856h-8.686l-1.673,4.014h-6.691l9.329-23.103h6.885l9.136,23.103h-6.724L70.579,19.856z"/>
<path fill="#DF0024" d="M112.955,15.26l-2.573-7.354h-0.064l-2.605,7.354H112.955z M114.66,19.856h-8.686l-1.673,4.014H97.61
	l9.329-23.103h6.885l9.136,23.103h-6.724L114.66,19.856z"/>
<path fill="#DF0024" d="M135.188,10.97h12.514c0.004,1.675-0.147,3.258-0.454,4.749s-0.98,2.952-2.022,4.382
	c-1.205,1.569-2.664,2.72-4.375,3.451c-1.712,0.73-3.589,1.092-5.63,1.083c-2.56-0.016-4.807-0.531-6.741-1.547
	c-1.935-1.017-3.445-2.436-4.532-4.259c-1.087-1.822-1.64-3.952-1.659-6.389c0.019-2.517,0.576-4.704,1.674-6.562
	c1.1-1.857,2.632-3.298,4.599-4.321s4.262-1.542,6.886-1.558c2.506,0,4.69,0.537,6.554,1.612c1.863,1.076,3.324,2.694,4.384,4.854
	l-5.984,2.39c-0.439-1.118-1.104-2.007-1.994-2.666c-0.89-0.658-1.973-0.995-3.249-1.011c-1.384,0.024-2.544,0.395-3.479,1.107
	c-0.936,0.714-1.641,1.623-2.114,2.729c-0.474,1.104-0.711,2.257-0.713,3.457c0.003,1.217,0.249,2.373,0.738,3.467
	c0.489,1.095,1.209,1.99,2.16,2.686c0.95,0.695,2.118,1.056,3.504,1.078c1.393,0,2.549-0.336,3.471-1.007
	c0.921-0.671,1.459-1.674,1.612-3.007h-5.147V10.97z"/>
</svg>
