<svg id="_x2014_ÎÓÈ_x5F_1" xmlns="http://www.w3.org/2000/svg" viewBox="0 0 399.066 350"><style>.st0{fill:#002661}</style><path id="XMLID_13_" class="st0" d="M142.776 93.016c-12.16 4.456-25.633-1.785-30.092-13.948s1.785-25.63 13.945-30.089L256.293 1.44c12.157-4.459 25.63 1.785 30.089 13.945 4.459 12.157-1.785 25.63-13.945 30.089L142.776 93.016z"/><path id="XMLID_12_" class="st0" d="M142.776 163.199c-12.16 4.456-25.633-1.788-30.092-13.951s1.785-25.63 13.945-30.089L256.293 71.62c12.157-4.459 25.63 1.785 30.089 13.945 4.459 12.157-1.785 25.63-13.945 30.089l-129.661 47.545z"/><path id="XMLID_11_" class="st0" d="M142.776 233.383c-12.16 4.456-25.633-1.788-30.092-13.951s1.785-25.632 13.945-30.089l129.664-47.542c12.157-4.456 25.63 1.785 30.089 13.948 4.459 12.157-1.785 25.63-13.945 30.092l-129.661 47.542z"/><g><path id="XMLID_10_" class="st0" d="M0 291.699h43.496v11.82H15.358v10.275h26.983v12.264H15.358v10.611h28.593v11.909H0z"/><path id="XMLID_9_" class="st0" d="M111.085 291.699h15.476v56.912h-15.476z"/><path id="XMLID_8_" class="st0" d="M183.015 293.525l-1.04 12.181c-12.5-7.234-31.664-4.929-32.001 14.046-.352 18.957 19.731 21.729 32.465 15.287l.801 12.432c-22.482 7.004-49.341-.121-49.223-27.719.112-27.037 27.193-34.513 48.998-26.227z"/><path id="XMLID_7_" class="st0" d="M228.571 292.644l-1.043 11.853c-7.799-4.297-22.604-4.409-22.604 2.335 0 9.988 26.395 2.778 26.395 24.164 0 21.037-25.124 21.271-41.424 16.392l1.155-12.544c10.21 4.758 24.672 5.801 24.672-2.45 0-9.06-26.51-3.957-26.51-24.291-.003-16.679 20.653-21.15 39.359-15.459z"/><path id="XMLID_6_" class="st0" d="M275.262 292.644l-1.028 11.853c-7.807-4.297-22.604-4.409-22.604 2.335 0 9.988 26.395 2.778 26.395 24.164 0 21.037-25.136 21.271-41.434 16.392l1.161-12.544c10.207 4.758 24.663 5.801 24.663-2.45 0-9.06-26.501-3.957-26.501-24.291-.005-16.679 20.645-21.15 39.348-15.459z"/><path id="XMLID_5_" class="st0" d="M346.521 291.699h19.607l18.712 36.708v-36.708h14.226v56.912h-18.47l-19.734-37.403v37.403h-14.341z"/><path class="st0" d="M310.838 290.328c16.076.012 28.339 9.421 28.339 29.95 0 19.625-12.326 29.722-28.339 29.722-15.987.006-28.239-9.864-28.239-29.722 0-20.533 12.187-29.95 28.239-29.95zm-12.397 29.947c0 8.676 3.72 18.493 12.394 18.478 8.676-.012 12.326-9.802 12.388-18.478.062-7.843-3.715-18.458-12.388-18.472-8.673-.004-12.394 9.804-12.394 18.472zM69.536 315.679h8.49c3.821.062 7.267-2.234 7.228-6.43-.024-3.717-3.073-6.359-7.003-6.303h-8.715v12.733zm-14.802-23.98h27.887c7.574 0 18.124 3.324 18.124 15.151 0 7.562-3.431 11.803-9.953 13.765.307-.024 3.723 1.466 5.136 5.742.056.142 7.976 22.205 8.067 22.255H87.554l-5.851-17.101c-.898-2.627-2.852-4.365-5.624-4.365-2.408 0-6.197-.157-6.197 0v21.466H54.734v-56.913z"/></g></svg>