<svg id="Layer_1" xmlns="http://www.w3.org/2000/svg" viewBox="0 0 175.748 25.934"><style>.st0{fill-rule:evenodd;clip-rule:evenodd;fill:#0066b1}</style><path class="st0" d="M42.079 7.43h6.501l.286 2.143c.5-1.714 3.787-2.929 5.787-2.929 4.644 0 6.501 2.858 6.501 7.859v10.788h-7.216v-9.645c0-1.929-.357-3.358-2.286-3.358-1.786 0-2.715 1.929-2.715 3.286v9.716h-6.858V7.43zM0 25.362V.071h12.074c7.216 0 10.502 3.501 10.502 8.573 0 5.43-3 9.145-10.502 9.145H8.002v7.573H0zm11.216-13.717c1.929 0 4.001-.429 4.001-2.643 0-2.286-2.215-2.786-4.001-2.786H8.002v5.429h3.214zM121.523 7.43h6.573l.214 2.143c.572-1.714 3.858-2.929 5.858-2.929 4.572 0 6.501 2.858 6.501 7.859v10.859h-7.216v-9.716c0-1.929-.429-3.358-2.358-3.358-1.715 0-2.644 1.929-2.644 3.286v9.788h-6.93V7.43h.002zM88.374 18.932c0 .714.357 1.786.786 2.143.5.357 1.143.714 1.929.714 1.286 0 2.286-.357 2.286-1.572.071-3.001-10.859-.357-10.859-7.501 0-5.001 3.858-6.144 7.859-6.144s9.502.786 9.287 6.216H93.59c0-.5-.214-.857-.5-1.286-.429-.5-.929-.714-1.857-.786-1.215-.071-2.358.143-2.358 1.072.071 2.786 11.288.929 11.288 7.502 0 4.572-3.215 6.644-9.431 6.644-3.929-.071-8.859-2.072-8.859-7.001h6.501v-.001zM162.317 14.36c0-.429 0-1-.571-1.715-.286-.357-.929-1.143-1.929-1.143-2.715 0-3.429 2.644-3.429 4.787 0 2.5 1.143 4.572 3.286 4.572 1.858 0 2.786-1.715 2.786-3.144h6.287c.143 3.715-2.429 8.145-9.359 8.145-5.644 0-9.645-3.929-9.645-9.645 0-6.93 5.144-9.573 9.573-9.573 6.001 0 9.43 3.644 9.359 7.716h-6.358zM34.435 25.362l-.715-1.5c-1.357 1.143-2.786 1.786-5.072 1.786-2.215-.071-6.573-.357-6.573-5.144 0-7.858 11.716-4.286 11.716-8.144 0-1.286-1.429-1.215-2.215-1.215-1.429 0-2.358.286-2.572 2.429h-6.001c0-3.715 1.143-6.858 9.002-6.858 7.644 0 8.43 4.001 8.43 7.93v8.145c0 1.072.071 1.572.786 2.358v.143l-6.786.07zm-.571-8.216c-2.429 1.143-5.501 1.072-5.572 2.858 0 1.143.643 1.715 2.072 1.715 2.357-.001 3.642-2.43 3.5-4.573zm40.865 8.216l-.714-1.5c-1.358 1.143-2.858 1.786-5.073 1.786-2.286-.071-6.644-.357-6.644-5.144 0-7.858 11.717-4.286 11.788-8.144 0-1.286-1.5-1.215-2.215-1.215-1.5 0-2.358.286-2.572 2.429h-6.001c0-3.715 1.072-6.858 9.002-6.858 7.573 0 8.359 4.001 8.359 7.93v8.145c0 1.072.071 1.572.786 2.358v.143l-6.716.07zm-.572-8.216c-2.429 1.143-5.573 1.072-5.573 2.858 0 1.143.571 1.715 2.072 1.715 2.287-.001 3.644-2.43 3.501-4.573zM148.6 25.362V7.43h-6.644v17.932h6.644zm-6.644-20.218h6.644V0h-6.644v5.144zM110.807 6.787c5.93 0 9.573 4.144 9.573 9.573 0 5.501-3.644 9.573-9.573 9.573-5.93 0-9.645-4.072-9.645-9.573 0-5.429 3.715-9.573 9.645-9.573zm-3.143 9.573c0 2.215.714 4.929 3.143 5.001 2.429 0 3.072-2.786 3.072-5.001 0-2.143-.643-4.93-3.072-4.93-2.429.001-3.072 2.787-3.143 4.93zM172.962 21.861c.429 0 1.072.071 1.072-.5 0-.5-.429-.571-.786-.571h-.857v1.071h.571zm1.429 1.715h-.429l-.857-1.429h-.715v1.429h-.357v-3.072h1.286c.574 0 1.085.172 1.085.858 0 .571-.37.786-.942.786l.929 1.428zm1.036-1.465c0-1.357-1.072-2.429-2.358-2.429a2.41 2.41 0 0 0-2.429 2.429c0 1.286 1.072 2.358 2.429 2.358a2.38 2.38 0 0 0 2.358-2.358zm-5.108-.035a2.714 2.714 0 1 1 2.715 2.715 2.714 2.714 0 0 1-2.715-2.715z"/></svg>