<svg id="Calque_1" xmlns="http://www.w3.org/2000/svg" viewBox="0 0 443.759 215.585"><style>.st0{fill:#6c797e}.st1{fill:#48555b}.st2{fill:#e86c8a}.st3{fill:#00b4d8}.st4{fill:#fbc400}.st5{fill:#79ab20}</style><path class="st0" d="M13.847 200.273a9.78 9.78 0 0 0-4.877-1.338c-4.092 0-6.29 3.018-6.29 7.185 0 4.645 2.46 7.185 6.347 7.185.969 0 1.938-.128 2.908-.396v-7.259h2.57v8.939c-1.627.605-3.649.974-5.61.974-5.772 0-8.895-3.649-8.895-9.259 0-5.82 3.439-9.57 9.049-9.57 2.074 0 4.065.548 5.689 1.495l-.891 2.044zM35.242 215.273v-18.302h2.57v16.149h6.873v2.153zM70.453 198.856c-4.224 0-5.715 3.281-5.715 7.084 0 4.324 1.491 7.447 6.053 7.447 4.302 0 5.746-3.307 5.746-7.109-.001-4.219-1.549-7.422-6.084-7.422m.079 16.729c-5.746 0-8.548-3.566-8.548-9.307 0-5.715 3.065-9.623 8.732-9.623 5.61 0 8.57 3.697 8.57 9.285 0 5.821-2.991 9.645-8.754 9.645M104.405 206.856h-2.597v6.32h3.197c1.838 0 3.391-1.048 3.391-3.043 0-2.122-1.369-3.277-3.991-3.277m-.369-7.815h-2.228v5.794h2.649c2.074 0 2.859-1.285 2.859-2.987.001-1.733-.942-2.807-3.28-2.807m.711 16.232h-5.478V196.97h5.009c3.72 0 5.663 1.627 5.663 4.535 0 1.838-.969 3.224-2.439 3.93 1.965.369 3.566 2.075 3.566 4.461-.001 3.619-2.756 5.377-6.321 5.377M136.523 199.62l-.022.048c-1.079 2.938-2.153 5.904-3.123 8.812h6.294a313.757 313.757 0 0 0-3.149-8.86m5.272 15.653a211.477 211.477 0 0 0-1.443-4.75H132.8a152.875 152.875 0 0 0-1.491 4.75h-2.649c2.018-6.478 4.167-12.535 6.526-18.303h2.886c2.544 6.11 4.746 12.299 6.688 18.303h-2.965zM163.949 215.273v-18.302h2.571v16.149h6.872v2.153zM227.449 215.585c-1.438 0-2.754-.21-4.166-.574l.338-2.255c1.259.391 2.596.632 4.039.632 2.285 0 3.588-1.101 3.588-3.018 0-1.891-1.597-2.623-3.614-3.539-2.491-1.128-4.22-2.413-4.22-5.167 0-3.093 2.439-5.009 5.873-5.009 1.202 0 2.645.21 3.588.548l-.416 2.07a11.726 11.726 0 0 0-3.251-.491c-2.101 0-3.069 1.101-3.069 2.566 0 1.887 1.521 2.623 3.333 3.466 2.513 1.148 4.557 2.28 4.557 5.241-.001 3.565-2.724 5.53-6.58 5.53M253.695 215.273v-18.302h10.071v2.123h-7.5v5.609h6.531v2.128h-6.531v6.315h7.605v2.127zM288.911 199.067h-2.202v6.083h2.065c2.549 0 3.702-1.333 3.702-3.096.001-1.543-.89-2.987-3.565-2.987m4.298 16.206l-4.403-8.074h-2.097v8.074h-2.574V196.97h5.035c3.934 0 6.061 1.86 6.061 4.825 0 2.671-1.68 4.245-3.828 4.903l4.903 8.574h-3.097zM323.147 215.273h-2.934a177.117 177.117 0 0 1-6.61-18.303h3.014c1.342 5.084 3.254 10.619 5.22 15.549l.026-.026a201.144 201.144 0 0 0 5.061-15.522h2.728a211.923 211.923 0 0 1-6.505 18.302M348.552 196.971h2.57v18.303h-2.57zM379.601 215.506c-5.193 0-8.522-3.197-8.522-9.15 0-5.977 3.408-9.622 8.496-9.622 1.732 0 3.145.232 4.798.995l-.842 2.044c-1.308-.579-2.491-.838-4.009-.838-3.491 0-5.689 2.938-5.689 7.185 0 4.75 2.381 7.162 6.109 7.162 1.391 0 2.702-.368 3.829-.864l.68 2.04a12.05 12.05 0 0 1-4.85 1.048M403.645 215.273v-18.302h10.07v2.123h-7.5v5.609h6.526v2.128h-6.526v6.315h7.6v2.127zM437.18 215.585c-1.443 0-2.755-.21-4.176-.574l.347-2.255a13.51 13.51 0 0 0 4.04.632c2.28 0 3.592-1.101 3.592-3.018 0-1.891-1.601-2.623-3.618-3.539-2.496-1.128-4.224-2.413-4.224-5.167 0-3.093 2.439-5.009 5.877-5.009 1.201 0 2.648.21 3.588.548l-.417 2.07a11.779 11.779 0 0 0-3.255-.491c-2.096 0-3.065 1.101-3.065 2.566 0 1.887 1.522 2.623 3.329 3.466 2.518 1.148 4.562 2.28 4.562 5.241-.001 3.565-2.73 5.53-6.58 5.53"/><path class="st1" d="M27.553 109.922l-10.342 31.114h20.864l-10.522-31.114zm18.597 55.422l-5.899-17.509H15.04l-5.899 17.509H.706l22.224-64.132h10.605l22.228 64.132H46.15zM103.304 108.83v56.514h-9.071V108.83H74.461v-7.434h48.619v7.434zM168.629 109.922l-10.347 31.114h20.869l-10.522-31.114zm18.592 55.422l-5.899-17.509h-25.211l-5.899 17.509h-8.434l22.224-64.132h10.614l22.22 64.132h-9.615zM220.432 165.344v-63.953h8.978v56.426h27.755v7.527zM282.213 101.391h9.07v63.953h-9.07zM342.723 109.922l-10.347 31.114h20.869l-10.522-31.114zm18.591 55.422l-5.898-17.509h-25.211l-5.899 17.509h-8.435l22.225-64.132h10.605l22.227 64.132h-9.614zM434.982 165.344l-32.381-50.523v50.523h-8.08v-63.953h9.254l30.843 48.168v-48.168h8.162v63.953z"/><path class="st2" d="M247.831 59.171l-21.109 9.413V41.075l21.109-9.408z"/><path class="st3" d="M201.625 59.171l21.105 9.413V41.075l-21.105-9.408z"/><path class="st4" d="M272.941 9.403L251.822 0v27.5l21.119 9.413z"/><path class="st5" d="M226.722 9.403L247.836 0v27.5l-21.114 9.413z"/></svg>