<svg xmlns="http://www.w3.org/2000/svg" width="149" height="26" viewBox="-0.676 -0.371 149 26"><path fill="#DF0024" d="M16.921 2.054l-2.509 4.658a7.261 7.261 0 0 0-1.947-1.111 6.333 6.333 0 0 0-2.234-.421c-.62 0-1.215.161-1.786.482s-.878.805-.918 1.448c.015.446.176.811.483 1.096a3.58 3.58 0 0 0 1.105.688c.428.174.832.314 1.211.422l1.608.46c1.728.445 3.146 1.148 4.259 2.11 1.111.962 1.687 2.362 1.725 4.202a10.01 10.01 0 0 1-.531 3.386c-.369 1.09-1.029 2.034-1.978 2.834-.965.761-2.044 1.314-3.237 1.662s-2.409.519-3.647.514a15.002 15.002 0 0 1-4.479-.697A15.914 15.914 0 0 1 0 21.849l2.702-4.842a11.862 11.862 0 0 0 2.581 1.689 7.117 7.117 0 0 0 3.016.7c.775.005 1.47-.181 2.084-.555.613-.375.938-.967.973-1.773a1.725 1.725 0 0 0-.692-1.351 5.109 5.109 0 0 0-1.542-.813 21.218 21.218 0 0 0-1.595-.471c-1.326-.335-2.48-.727-3.46-1.174-.979-.448-1.739-1.085-2.28-1.91S.973 9.376.965 7.906c.014-1.571.377-2.936 1.09-4.093.712-1.157 1.694-2.055 2.947-2.69C6.254.486 7.696.163 9.329.154c1.251.007 2.553.178 3.904.514 1.353.336 2.581.798 3.688 1.386zM41.521 5.358v5.76h.611a9.383 9.383 0 0 0 2.049-.188c.665-.138 1.214-.413 1.649-.829s.661-1.037.677-1.863c-.016-.827-.241-1.447-.677-1.863s-.984-.691-1.649-.828a9.322 9.322 0 0 0-2.049-.188h-.611zm6.241 9.039l7.624 9.467h-7.85l-5.951-8.885h-.064v8.885h-6.306V.762h9.426c1.613-.003 3.052.245 4.315.747 1.264.501 2.262 1.277 2.993 2.326.731 1.05 1.104 2.395 1.12 4.036-.006 1.629-.461 3.042-1.363 4.239-.903 1.198-2.218 1.959-3.944 2.287zM29.121 5.854V23.87h-6.305V5.854h-5.211V.768h16.727v5.086h-5.211z"/><path fill="#DF0024" d="M85.702 5.325v4.474h.708c.873.029 1.651-.099 2.332-.384.681-.284 1.04-.902 1.077-1.854-.013-.692-.204-1.199-.571-1.52-.367-.319-.83-.522-1.387-.606a9.959 9.959 0 0 0-1.709-.11h-.45zm3.41 18.507h-9.716V.729h9.008c2.187-.026 3.926.424 5.22 1.348 1.293.925 1.955 2.477 1.986 4.657.011 1.049-.188 1.977-.6 2.785-.411.808-1.101 1.452-2.071 1.934v.062c1.728.231 2.986.863 3.78 1.896s1.186 2.361 1.175 3.987c-.026 1.604-.457 2.877-1.291 3.82-.834.942-1.914 1.617-3.241 2.021-1.327.406-2.744.603-4.25.593zm-3.41-9.56v4.964h.804c.649.017 1.359-.007 2.131-.071.771-.063 1.438-.269 2.002-.614.563-.347.858-.936.886-1.766-.025-.909-.32-1.54-.886-1.891-.563-.353-1.242-.549-2.035-.591a27.466 27.466 0 0 0-2.258-.031h-.644zm-16.827.988l-2.574-7.354h-.064l-2.605 7.354h5.243zm1.704 4.596h-8.686L60.22 23.87h-6.691L62.858.767h6.885l9.136 23.103h-6.724l-1.576-4.014zM112.955 15.26l-2.573-7.354h-.064l-2.605 7.354h5.242zm1.705 4.596h-8.686l-1.673 4.014H97.61L106.939.767h6.885l9.136 23.103h-6.724l-1.576-4.014zM135.188 10.97h12.514c.004 1.675-.147 3.258-.454 4.749s-.98 2.952-2.022 4.382c-1.205 1.569-2.664 2.72-4.375 3.451-1.712.73-3.589 1.092-5.63 1.083-2.56-.016-4.807-.531-6.741-1.547-1.935-1.017-3.445-2.436-4.532-4.259-1.087-1.822-1.64-3.952-1.659-6.389.019-2.517.576-4.704 1.674-6.562 1.1-1.857 2.632-3.298 4.599-4.321s4.262-1.542 6.886-1.558c2.506 0 4.69.537 6.554 1.612 1.863 1.076 3.324 2.694 4.384 4.854l-5.984 2.39c-.439-1.118-1.104-2.007-1.994-2.666-.89-.658-1.973-.995-3.249-1.011-1.384.024-2.544.395-3.479 1.107a6.667 6.667 0 0 0-2.114 2.729 8.713 8.713 0 0 0-.713 3.457 8.454 8.454 0 0 0 .738 3.467 6.605 6.605 0 0 0 2.16 2.686c.95.695 2.118 1.056 3.504 1.078 1.393 0 2.549-.336 3.471-1.007.921-.671 1.459-1.674 1.612-3.007h-5.147V10.97z"/></svg>