<svg id="Layer_1" xmlns="http://www.w3.org/2000/svg" viewBox="0 0 374.862 72.935"><style>.st0{fill:#25249b}.st1{fill:#e60b2a}</style><path class="st0" d="M88.102.493v11.763c-.023 0-.053.038-.088.113s-.067.113-.097.113c-.041 0-.076-.075-.105-.226-.246-2.208-.494-3.969-.743-5.281-.249-1.312-.636-2.457-1.16-3.437s-1.258-1.719-2.202-2.22c-.387-.2-.841-.3-1.362-.3-.082 0-.284.007-.606.021-.322.015-.627.021-.914.021l.079 27.976h3.665v.482H74.347v-.482h3.498l-.044-27.974c-.146 0-.369-.007-.668-.021a15.698 15.698 0 0 0-.659-.021c-.527 0-.935.086-1.222.257-.855.515-1.55 1.174-2.083 1.979s-.936 1.685-1.208 2.643-.456 1.796-.549 2.515a187.6 187.6 0 0 0-.448 4.026h-.211V.493h17.349zM94.869 1.062V14.24c.012-.572.198-1.178.558-1.817s.888-1.178 1.582-1.614 1.504-.654 2.43-.654c1.148 0 2.12.318 2.914.955s1.191 1.751 1.191 3.345v14.583h2.663v.568h-7.629v-.526h2.479V13.661c0-.8-.142-1.512-.426-2.134s-.681-.933-1.191-.933c-.721 0-1.433.237-2.136.713s-1.285 1.205-1.745 2.188-.69 2.182-.69 3.597v11.945h2.338v.525c-.551-.029-1.559-.043-3.023-.043-.914 0-1.783.005-2.606.016s-1.419.02-1.789.027l.07-.525h2.487V1.587h-2.593l.035-.482 5.081-.043zM113.81 10.498a3.87 3.87 0 0 1 1.551 1.211c.401.529.795 1.194 1.182 1.995.721 1.458 1.081 3.392 1.081 5.801h-8.604c0 3.149.167 5.62.501 7.412.234 1.1 1.04 1.86 2.417 2.282.305.093.615.139.932.139 1.266 0 2.285-.585 3.059-1.755a9.924 9.924 0 0 0 1.617-4.078h.255c-.422 2.959-1.418 4.861-2.988 5.705-.551.322-1.198.482-1.942.482-.92 0-1.831-.278-2.733-.835-2.543-1.472-3.814-4.269-3.814-8.392 0-.686.035-1.357.105-2.015.135-1.193.347-2.27.637-3.231s.713-1.842 1.27-2.642a6.926 6.926 0 0 1 2.127-1.982c.574-.357 1.137-.536 1.688-.536.402-.001.955.146 1.659.439zm.14.707c-.504-.615-1.069-.922-1.696-.922-.527 0-.993.204-1.397.611-.785.758-1.288 1.691-1.507 2.799s-.33 2.488-.33 4.139v1.104h6.152c0-.25.006-.625.018-1.125s.018-.886.018-1.158c-.001-2.546-.42-4.361-1.258-5.448zM128.496.579h17.095v9.704h-.281a111.218 111.218 0 0 0-.299-3.19c-.076-.654-.227-1.389-.453-2.204s-.561-1.528-1.006-2.139-1.025-1.028-1.74-1.249c-.984-.293-2.124-.44-3.419-.44-.193 0-.604.007-1.23.021-.627.015-1.213.021-1.758.021l-.501.129v12.213c.469 0 1.033.005 1.692.016l1.507.027c.645 0 1.122-.339 1.433-1.019s.529-1.476.655-2.391.248-1.812.365-2.691l.176.042v13.082h-.211a637.02 637.02 0 0 1-.237-2.128c-.07-.64-.176-1.253-.316-1.839-.141-.586-.362-1.074-.664-1.463s-.702-.584-1.2-.584h-3.199v14.454c.34 0 .853.015 1.538.043a39.81 39.81 0 0 0 1.556.043c1.148 0 2.167-.15 3.054-.451.888-.3 1.683-.868 2.386-1.705.469-.55.845-1.16 1.129-1.828s.492-1.33.624-1.984.242-1.397.33-2.23c.088-.833.173-1.628.255-2.386h.211v11.109l-17.675.043v-.568h3.349l.325-.482V1.233c-.393-.086-.968-.143-1.727-.172a51.644 51.644 0 0 0-1.762-.043V.579zM169.251.493v.482c-2.549 0-3.823.979-3.823 2.938v19.805c0 1.98-.826 3.606-2.479 4.878-.885.672-2.121 1.008-3.709 1.008a9.36 9.36 0 0 1-3.019-.499c-.981-.333-1.8-.81-2.457-1.432-1.465-1.373-2.197-3.027-2.197-4.965V1.019h-3.384l.044-.482h9.791v.482h-3.568v23.933c0 .872.243 1.635.729 2.29a4.613 4.613 0 0 0 1.862 1.485c.708.293 1.44.439 2.195.439a6.436 6.436 0 0 0 3.174-.826c.993-.55 1.661-1.315 2.007-2.294.263-.843.395-2.026.395-3.549V4.182c0-2.166-1.007-3.249-3.021-3.249a4.812 4.812 0 0 0-.94.085V.493h8.4zM170.517.536h13.317c.837 0 1.567.318 2.188.955s1.089 1.473 1.406 2.509c.433 1.208.65 2.513.65 3.914 0 1.129-.167 2.08-.501 2.852-.281.801-.687 1.46-1.217 1.979-.53.518-1.066.908-1.608 1.168-.542.261-1.282.56-2.219.896.961.365 1.635.638 2.021.82.387.182.795.488 1.226.917.431.429.751.99.962 1.684.316 1.029.549 2.438.699 4.225.149 1.787.316 3.122.501 4.005s.625 1.714 1.323 2.493c.146.171.58.257 1.301.257a10.801 10.801 0 0 0 1.327-.086v.483h-1.512c-1.26 0-2.317-.183-3.173-.547-.855-.365-1.477-1.104-1.863-2.22-.375-.986-.661-2.643-.857-4.97-.196-2.327-.419-3.998-.668-5.013-.249-1.015-.81-1.522-1.683-1.522H177.1v13.704h2.909v.525l-9.492-.043v-.482h3.489V1.019h-3.489V.536zM184.834 4c-.357-1.144-1.002-1.905-1.934-2.284s-2.109-.568-3.533-.568c-.27 0-.659.007-1.169.021s-.876.021-1.098.021v13.307a20.442 20.442 0 0 0 1.398.043c1.295 0 2.515-.105 3.661-.316s1.871-.588 2.175-1.131c.721-1.308 1.081-3.006 1.081-5.093a13.843 13.843 0 0 0-.581-4zM199.125.836c1.125 0 2.163.418 3.116 1.254.951.836 1.762 1.87 2.43 3.099.732 1.33 1.293 2.933 1.684 4.809a28.8 28.8 0 0 1 .584 5.86c0 3.667-.574 6.669-1.723 9.007-.539 1.115-1.374 2.184-2.505 3.206-1.131 1.022-2.432 1.534-3.902 1.534-1.465 0-2.577-.297-3.335-.89-.76-.593-1.581-1.658-2.466-3.195-.551-1.022-1.012-2.107-1.384-3.254s-.655-2.354-.848-3.619a25.151 25.151 0 0 1-.29-3.796c0-3.667.721-6.831 2.162-9.49 1.599-2.93 3.758-4.439 6.477-4.525zm.035.569c-1.166.021-2.087.345-2.765.971-.676.626-1.108 1.253-1.296 1.883-.375 1.316-.674 3.085-.896 5.31s-.334 4.48-.334 6.769c0 3.461.229 6.243.686 8.346.217.937.46 1.614.729 2.033s.639.856 1.107 1.314c.709.644 1.477.965 2.303.965.873 0 1.726-.351 2.558-1.051.434-.393.837-.94 1.208-1.641.373-.701.582-1.402.629-2.103.146-2.16.261-4.014.343-5.562.082-1.548.123-3.062.123-4.542 0-3.948-.322-7.255-.967-9.922-.146-.687-.56-1.319-1.239-1.899-.68-.582-1.41-.871-2.189-.871z"/><path class="st1" d="M216.554.097c.433-.065.709-.097.826-.097 1.969 0 3.627 1.037 4.975 3.11.264-.129.566-.413.91-.853.342-.44.66-.836.953-1.19s.571-.566.835-.638V11.77h-.22c-.498-2.117-.894-3.696-1.187-4.737-.293-1.041-.753-2.125-1.38-3.251s-1.45-2.051-2.47-2.774c-.832-.558-1.696-.837-2.593-.837-1.102 0-1.907.455-2.417 1.362a17.016 17.016 0 0 0-1.569 3.615 19.206 19.206 0 0 0-.703 3.717c-.113 1.276-.171 2.772-.171 4.489 0 2.01.048 3.873.146 5.589a45.26 45.26 0 0 0 .514 4.816c.246 1.495.589 2.814 1.028 3.958.205.508.65.935 1.336 1.282s1.418.52 2.197.52c.562 0 1.09-.089 1.582-.268 1.236-.429 2.086-1.508 2.549-3.238s.694-3.678.694-5.844c0-.829-.02-1.501-.057-2.016a40.377 40.377 0 0 0-.093-1.104h-3.744v-.526h10.116v.526h-3.885l.035 12.953c-.352-.986-.635-1.678-.848-2.075-.215-.397-.432-.704-.65-.922a54.01 54.01 0 0 0-.805-.777c-1.008 2.288-2.329 3.545-3.964 3.774a6.633 6.633 0 0 1-.896.086c-2.01 0-3.762-1.04-5.256-3.12-1.049-1.423-1.827-3.165-2.333-5.228-.508-2.062-.761-4.241-.761-6.536 0-3.367.478-6.501 1.433-9.404.557-1.658 1.346-2.98 2.369-3.967 1.023-.986 2.191-1.565 3.504-1.736z"/><path class="st1" d="M227.76.536h13.317c.838 0 1.566.318 2.188.955s1.09 1.473 1.406 2.509c.433 1.208.649 2.513.649 3.914 0 1.129-.167 2.08-.501 2.852-.281.801-.688 1.46-1.217 1.979-.531.518-1.066.908-1.609 1.168-.541.261-1.281.56-2.219.896.961.365 1.635.638 2.021.82.387.182.795.488 1.227.917.43.429.751.99.962 1.684.316 1.029.55 2.438.698 4.225.15 1.787.316 3.122.502 4.005.184.883.625 1.714 1.322 2.493.146.171.58.257 1.301.257a10.537 10.537 0 0 0 1.327-.086v.483h-1.512c-1.26 0-2.317-.183-3.173-.547-.855-.365-1.477-1.104-1.863-2.22-.375-.986-.66-2.643-.857-4.97-.195-2.327-.418-3.998-.668-5.013-.248-1.015-.81-1.522-1.683-1.522h-5.036v13.704h2.909v.525l-9.492-.043v-.482h3.489V1.019h-3.489V.536zM242.077 4c-.357-1.144-1.002-1.905-1.934-2.284s-2.109-.568-3.533-.568c-.27 0-.659.007-1.169.021s-.876.021-1.099.021v13.307a20.442 20.442 0 0 0 1.398.043c1.295 0 2.515-.105 3.661-.316 1.145-.211 1.87-.588 2.175-1.131.721-1.308 1.081-3.006 1.081-5.093 0-1.38-.193-2.714-.58-4zM256.368.836c1.125 0 2.164.418 3.115 1.254.953.836 1.763 1.87 2.431 3.099.732 1.33 1.294 2.933 1.683 4.809a28.66 28.66 0 0 1 .585 5.86c0 3.667-.574 6.669-1.723 9.007-.539 1.115-1.374 2.184-2.505 3.206-1.131 1.022-2.432 1.534-3.902 1.534-1.465 0-2.576-.297-3.336-.89-.758-.593-1.58-1.658-2.465-3.195a19.635 19.635 0 0 1-1.385-3.254 23.146 23.146 0 0 1-.848-3.619 25.151 25.151 0 0 1-.29-3.796c0-3.667.721-6.831 2.162-9.49 1.6-2.93 3.759-4.439 6.478-4.525zm.035.569c-1.166.021-2.088.345-2.764.971-.678.626-1.109 1.253-1.297 1.883-.375 1.316-.674 3.085-.896 5.31s-.334 4.48-.334 6.769c0 3.461.229 6.243.686 8.346.217.937.46 1.614.729 2.033s.639.856 1.107 1.314c.709.644 1.477.965 2.303.965.873 0 1.726-.351 2.558-1.051.434-.393.836-.94 1.209-1.641.371-.701.581-1.402.628-2.103.146-2.16.261-4.014.343-5.562.082-1.548.123-3.062.123-4.542 0-3.948-.322-7.255-.967-9.922-.146-.687-.56-1.319-1.239-1.899-.68-.582-1.409-.871-2.189-.871zM284.669.493v.482c-2.549 0-3.823.979-3.823 2.938v19.805c0 1.98-.826 3.606-2.479 4.878-.885.672-2.121 1.008-3.709 1.008a9.36 9.36 0 0 1-3.019-.499c-.982-.333-1.801-.81-2.457-1.432-1.465-1.373-2.197-3.027-2.197-4.965V1.019h-3.384l.044-.482h9.791v.482h-3.568v23.933c0 .872.243 1.635.729 2.29a4.62 4.62 0 0 0 1.862 1.485c.708.293 1.44.439 2.195.439a6.44 6.44 0 0 0 3.175-.826c.992-.55 1.66-1.315 2.006-2.294.264-.843.396-2.026.396-3.549V4.182c0-2.166-1.007-3.249-3.021-3.249a4.84 4.84 0 0 0-.94.085V.493h8.399zM286.383.579c.404 0 .961-.007 1.671-.021.709-.014 1.411-.032 2.105-.054.695-.021 1.335-.038 1.922-.048a78.701 78.701 0 0 1 1.434-.016c1.547 0 2.919.083 4.115.247 1.195.165 2.26.475 3.191.933a5.729 5.729 0 0 1 2.277 2.005c.587.879.947 2.001 1.082 3.367.047.529.07.894.07 1.094 0 2.138-.756 4.085-2.268 5.844-1.066 1.229-2.854 1.844-5.361 1.844-.439 0-1.726-.089-3.858-.268v12.256c0 .851 1.225 1.276 3.674 1.276v.482l-9.94.043v-.525c.551 0 1.24-.095 2.07-.284.828-.189 1.243-.591 1.243-1.207l-.044-26.485h-3.384V.579zm14.379 3.111c-.199-.779-.661-1.368-1.384-1.765-.725-.397-1.517-.649-2.378-.756s-1.828-.161-2.9-.161h-1.336v13.843c1.98.236 3.193.354 3.639.354 2.033 0 3.401-.615 4.104-1.845.627-1.066.94-2.59.94-4.572 0-1.724-.228-3.423-.685-5.098z"/><path class="st0" d="M0 43.736h9.817v.482H6.434v28.019h3.384v.525H0v-.525h3.27V44.219H0v-.483zM11.584 43.736h5.977l9.65 21.521V47.199c0-1.986-1.151-2.98-3.454-2.98v-.482h7.629v.482c-2.426 0-3.639.848-3.639 2.541v25.96h-.431L15.759 46.985v21.606c0 1.587.806 2.698 2.417 3.334.258.101.542.163.853.188.311.024.554.037.729.037v.611l-8.314-.043v-.568c.908 0 1.494-.028 1.758-.086.586-.1 1.031-.586 1.336-1.458s.501-1.923.589-3.152.132-2.652.132-4.268V45.881c0-1.107-1.225-1.662-3.674-1.662v-.483zM50.897 43.693v11.763c-.023 0-.053.038-.088.112-.035.075-.067.113-.097.113-.041 0-.076-.075-.105-.226-.246-2.208-.494-3.969-.743-5.28-.249-1.312-.636-2.457-1.16-3.438-.524-.979-1.258-1.719-2.202-2.219-.387-.2-.841-.301-1.362-.301-.082 0-.284.008-.606.021-.322.015-.627.021-.914.021l.079 27.976h3.665v.482H37.143v-.482h3.498l-.044-27.976c-.146 0-.369-.007-.668-.021a15.698 15.698 0 0 0-.659-.021c-.527 0-.935.086-1.222.258a6.44 6.44 0 0 0-2.083 1.979c-.533.804-.936 1.685-1.208 2.643s-.456 1.796-.549 2.515a187.6 187.6 0 0 0-.448 4.026h-.211V43.693h17.348zM52.805 43.779H69.9v9.704h-.281c-.123-1.473-.223-2.536-.299-3.19s-.227-1.389-.453-2.203-.561-1.527-1.006-2.139-1.025-1.028-1.74-1.25c-.984-.293-2.124-.439-3.419-.439-.193 0-.604.008-1.23.021-.627.015-1.213.021-1.758.021l-.501.129v12.213c.469 0 1.033.005 1.692.016l1.507.027c.645 0 1.122-.34 1.433-1.019.311-.68.529-1.476.655-2.392.126-.914.248-1.812.365-2.691l.176.043v13.082h-.211c-.088-.779-.167-1.489-.237-2.129s-.176-1.253-.316-1.839-.362-1.074-.664-1.464a1.445 1.445 0 0 0-1.2-.584h-3.199V72.15c.34 0 .853.015 1.538.043s1.204.043 1.556.043c1.148 0 2.167-.15 3.054-.45.888-.301 1.683-.869 2.386-1.705a7.071 7.071 0 0 0 1.129-1.828c.284-.669.492-1.33.624-1.983.132-.654.242-1.397.33-2.23s.173-1.628.255-2.386h.211v11.108l-17.677.044v-.568h3.349l.325-.482V44.434c-.393-.086-.968-.143-1.727-.172a51.644 51.644 0 0 0-1.762-.043v-.44zM72.36 43.736h13.317c.837 0 1.567.318 2.188.955.621.636 1.089 1.473 1.406 2.508.433 1.209.65 2.514.65 3.914 0 1.13-.167 2.08-.501 2.853-.281.801-.687 1.46-1.217 1.979s-1.066.907-1.608 1.169c-.542.261-1.282.559-2.219.895.961.365 1.635.639 2.021.82.387.183.795.488 1.226.917s.751.99.962 1.684c.316 1.029.549 2.438.699 4.225s.316 3.122.501 4.005.625 1.714 1.323 2.493c.146.172.58.258 1.301.258.281 0 .546-.011.795-.032s.426-.04.532-.054v.482h-1.512c-1.26 0-2.317-.183-3.173-.547s-1.477-1.104-1.863-2.22c-.375-.986-.661-2.644-.857-4.97-.196-2.327-.419-3.998-.668-5.013-.249-1.016-.81-1.523-1.683-1.523h-5.036v13.704h2.909v.525l-9.493-.043v-.482h3.489V44.219H72.36v-.483zm14.318 3.463c-.357-1.143-1.002-1.904-1.934-2.283s-2.109-.568-3.533-.568c-.27 0-.659.008-1.169.021s-.876.021-1.099.021v13.307a21.919 21.919 0 0 0 1.398.043c1.295 0 2.515-.105 3.661-.316s1.871-.588 2.175-1.131c.721-1.309 1.081-3.006 1.081-5.094 0-1.379-.194-2.713-.58-4zM95.467 43.736h5.977l9.65 21.521V47.199c0-1.986-1.151-2.98-3.454-2.98v-.482h7.629v.482c-2.426 0-3.639.848-3.639 2.541v25.96h-.431L99.642 46.985v21.606c0 1.587.806 2.698 2.417 3.334.258.101.542.163.853.188.311.024.554.037.729.037v.611l-8.314-.043v-.568c.908 0 1.494-.028 1.758-.086.586-.1 1.031-.586 1.336-1.458s.501-1.923.589-3.152.132-2.652.132-4.268V45.881c0-1.107-1.225-1.662-3.674-1.662v-.483zM125.196 44.305c.252.915 1.168 4.369 2.748 10.363 1.58 5.994 2.614 9.917 3.104 11.769l1.534 5.801h2.911l-.105.482-9.505.043.035-.525h3.35l-2.128-8.836h-6.981l-1.697 6.42c-.047.287-.07.477-.07.569 0 1.231 1.26 1.847 3.781 1.847v.482h-7.922v-.482c1.853 0 3.004-.865 3.456-2.595.463-1.823 1.196-4.713 2.198-8.67 1.002-3.956 1.952-7.724 2.849-11.301.897-3.578 1.375-5.543 1.433-5.893.023-.093.097-.14.22-.14.141 0 .292.064.453.193.159.129.271.287.336.473zm1.767 18.443l-3.42-13.35-3.209 13.35h6.629zM154.292 43.693v11.763c-.023 0-.053.038-.088.112-.035.075-.067.113-.097.113-.041 0-.076-.075-.105-.226-.246-2.208-.494-3.969-.743-5.28-.249-1.312-.636-2.457-1.16-3.438-.524-.979-1.258-1.719-2.202-2.219-.387-.2-.841-.301-1.362-.301-.082 0-.284.008-.606.021-.322.015-.627.021-.914.021l.079 27.976h3.665v.482h-10.222v-.482h3.498l-.044-27.976c-.146 0-.369-.007-.668-.021a15.698 15.698 0 0 0-.659-.021c-.527 0-.935.086-1.222.258a6.44 6.44 0 0 0-2.083 1.979c-.533.804-.936 1.685-1.208 2.643s-.456 1.796-.549 2.515a187.6 187.6 0 0 0-.448 4.026h-.211V43.693h17.349zM155.812 43.736h9.817v.482h-3.384v28.019h3.384v.525h-9.817v-.525h3.27V44.219h-3.27v-.483z"/><path class="st0" d="M172.898 44.037c1.125 0 2.164.418 3.116 1.254s1.762 1.869 2.43 3.1c.732 1.329 1.293 2.932 1.683 4.809.39 1.876.584 3.83.584 5.859 0 3.668-.574 6.67-1.723 9.008-.539 1.115-1.374 2.184-2.505 3.206s-2.432 1.533-3.902 1.533c-1.465 0-2.577-.297-3.335-.891-.759-.593-1.581-1.658-2.465-3.195-.551-1.021-1.012-2.106-1.384-3.254s-.655-2.354-.848-3.619a25.131 25.131 0 0 1-.29-3.796c0-3.667.721-6.83 2.162-9.489 1.6-2.931 3.759-4.439 6.477-4.525zm.036.568c-1.166.021-2.087.345-2.764.971-.677.625-1.109 1.253-1.296 1.883-.375 1.315-.674 3.085-.896 5.309a67.825 67.825 0 0 0-.334 6.77c0 3.461.229 6.243.686 8.345.217.938.46 1.614.729 2.033.27.418.639.856 1.107 1.313.709.645 1.477.966 2.303.966.873 0 1.726-.351 2.558-1.051.434-.394.836-.94 1.208-1.642s.582-1.401.628-2.103c.146-2.159.261-4.014.343-5.562.082-1.549.123-3.062.123-4.543 0-3.947-.322-7.255-.967-9.922-.146-.688-.56-1.32-1.239-1.899s-1.41-.868-2.189-.868zM183.199 43.736h5.977l9.65 21.521V47.199c0-1.986-1.151-2.98-3.454-2.98v-.482h7.629v.482c-2.426 0-3.639.848-3.639 2.541v25.96h-.431l-11.558-25.734v21.606c0 1.587.806 2.698 2.417 3.334.258.101.542.163.853.188.311.024.554.037.729.037v.611l-8.314-.043v-.568c.908 0 1.494-.028 1.758-.086.586-.1 1.031-.586 1.336-1.458s.501-1.923.589-3.152.132-2.652.132-4.268V45.881c0-1.107-1.225-1.662-3.674-1.662v-.483zM212.929 44.305c.252.915 1.168 4.369 2.748 10.363 1.579 5.994 2.613 9.917 3.104 11.769.488 1.852 1 3.785 1.533 5.801h2.911l-.105.482-9.505.043.035-.525H217l-2.127-8.836h-6.982l-1.697 6.42c-.047.287-.07.477-.07.569 0 1.231 1.261 1.847 3.781 1.847v.482h-7.922v-.482c1.853 0 3.004-.865 3.455-2.595l2.199-8.67c1.002-3.956 1.951-7.724 2.848-11.301.897-3.578 1.375-5.543 1.434-5.893.023-.093.097-.14.221-.14.141 0 .291.064.452.193.159.129.272.287.337.473zm1.767 18.443l-3.421-13.35-3.21 13.35h6.631zM225.07 43.693h9.501v.525h-3.278v28.019c1.688-.05 3.065-.159 4.136-.327 1.068-.168 2.031-.525 2.887-1.072s1.503-1.371 1.942-2.472c.768-1.895 1.356-4.808 1.767-8.739h.255V72.72l-17.569.043v-.483h3.63V44.219h-3.234l-.037-.526zM270.976 43.822l6.249-.043v.482h-3.199v27.976h3.349v.482h-9.677v-.482h3.524V45.441c-.445 2.002-1.118 4.99-2.019 8.964-.899 3.975-1.839 8.021-2.819 12.139-.979 4.117-1.527 6.176-1.645 6.176-.088 0-.441-1.229-1.063-3.688s-1.409-5.694-2.361-9.704a3544.88 3544.88 0 0 1-2.124-8.976c-.463-1.973-.824-3.52-1.082-4.643V70.35c0 .479.135.854.404 1.126.27.272.611.46 1.025.563.413.104.84.16 1.279.171l1.002.027.035.568-8.097-.086v-.482c2.373 0 3.56-.644 3.56-1.93l.035-24.202c0-.557-.191-.951-.576-1.184-.383-.232-.838-.381-1.361-.445-.525-.064-1.127-.137-1.807-.215v-.482h7.165l4.828 21.734h.22l5.155-21.691z"/><path class="st0" d="M285.003 44.037c1.125 0 2.163.418 3.115 1.254s1.763 1.869 2.431 3.1c.732 1.329 1.293 2.932 1.683 4.809.39 1.876.585 3.83.585 5.859 0 3.668-.574 6.67-1.723 9.008-.539 1.115-1.374 2.184-2.505 3.206s-2.432 1.533-3.902 1.533c-1.465 0-2.576-.297-3.336-.891-.758-.593-1.58-1.658-2.465-3.195a19.563 19.563 0 0 1-1.385-3.254 23.146 23.146 0 0 1-.848-3.619 25.131 25.131 0 0 1-.29-3.796c0-3.667.721-6.83 2.162-9.489 1.6-2.931 3.759-4.439 6.478-4.525zm.035.568c-1.166.021-2.088.345-2.764.971-.678.625-1.109 1.253-1.297 1.883-.375 1.315-.674 3.085-.896 5.309a67.825 67.825 0 0 0-.334 6.77c0 3.461.229 6.243.686 8.345.217.938.46 1.614.729 2.033.27.418.639.856 1.107 1.313.709.645 1.477.966 2.303.966.873 0 1.726-.351 2.558-1.051.434-.394.836-.94 1.209-1.642.371-.701.581-1.401.628-2.103.146-2.159.261-4.014.343-5.562.082-1.549.123-3.062.123-4.543 0-3.947-.322-7.255-.967-9.922-.146-.688-.56-1.32-1.239-1.899s-1.41-.868-2.189-.868zM315.571 43.736v.482a1.54 1.54 0 0 0-.536-.086c-.686 0-1.388.359-2.105 1.078s-1.287 2.071-1.709 4.059l-1.16 5.635c-.504 2.448-1.166 5.647-1.986 9.597s-1.38 6.6-1.679 7.951c-.082.321-.275.482-.58.482-.152 0-.249-.072-.29-.215-.275-1.051-.966-3.735-2.07-8.053s-2.131-8.341-3.08-12.068-1.655-6.507-2.118-8.337h-3.094v-.568l9.861.043v.482h-3.779l5.546 22.175.325.354 3.92-19.548c.047-.343.07-.574.07-.696 0-1.522-1.198-2.284-3.595-2.284v-.525l8.059.042zM317.769 43.779h17.095v9.704h-.281c-.123-1.473-.223-2.536-.299-3.19s-.228-1.389-.453-2.203-.561-1.527-1.006-2.139-1.025-1.028-1.74-1.25c-.984-.293-2.124-.439-3.419-.439-.193 0-.604.008-1.23.021-.627.015-1.213.021-1.758.021l-.501.129v12.213c.469 0 1.033.005 1.691.016l1.508.027c.645 0 1.122-.34 1.433-1.019.311-.68.528-1.476.655-2.392.125-.914.247-1.812.364-2.691l.176.043v13.082h-.211c-.088-.779-.167-1.489-.237-2.129s-.176-1.253-.316-1.839-.362-1.074-.664-1.464a1.443 1.443 0 0 0-1.199-.584h-3.199V72.15c.34 0 .853.015 1.538.043s1.204.043 1.556.043c1.148 0 2.166-.15 3.055-.45.887-.301 1.683-.869 2.386-1.705a7.102 7.102 0 0 0 1.13-1.828c.283-.669.492-1.33.623-1.983.133-.654.242-1.397.33-2.23s.173-1.628.255-2.386h.211v11.108l-17.675.043v-.568h3.349l.325-.482V44.434c-.393-.086-.969-.143-1.727-.172a51.75 51.75 0 0 0-1.763-.043v-.44zM337.324 43.736h13.317c.838 0 1.566.318 2.188.955.621.636 1.089 1.473 1.405 2.508.434 1.209.65 2.514.65 3.914 0 1.13-.167 2.08-.501 2.853-.281.801-.688 1.46-1.218 1.979s-1.066.907-1.607 1.169c-.543.261-1.282.559-2.22.895.961.365 1.635.639 2.021.82.387.183.796.488 1.226.917.432.429.752.99.963 1.684.316 1.029.549 2.438.699 4.225.148 1.787.316 3.122.5 4.005.186.883.626 1.714 1.323 2.493.146.172.58.258 1.301.258.281 0 .546-.011.796-.032.248-.021.426-.04.531-.054v.482h-1.512c-1.26 0-2.317-.183-3.173-.547s-1.477-1.104-1.863-2.22c-.375-.986-.661-2.644-.856-4.97-.197-2.327-.42-3.998-.668-5.013-.25-1.016-.811-1.523-1.684-1.523h-5.036v13.704h2.909v.525l-9.492-.043v-.482h3.489V44.219h-3.489v-.483zm14.318 3.463c-.357-1.143-1.002-1.904-1.934-2.283s-2.109-.568-3.533-.568c-.27 0-.659.008-1.169.021s-.876.021-1.099.021v13.307a21.919 21.919 0 0 0 1.398.043c1.295 0 2.515-.105 3.66-.316s1.871-.588 2.176-1.131c.721-1.309 1.081-3.006 1.081-5.094 0-1.379-.194-2.713-.58-4zM365.933 43.736c1.359 0 2.482.289 3.371.869.887.578 1.662 1.443 2.324 2.594.797-.699 1.503-1.693 2.118-2.98l.035 10.455-.176-.097c-.375-1.823-.685-3.199-.927-4.128-.244-.93-.646-1.883-1.205-2.857a6.686 6.686 0 0 0-2.263-2.365c-1.066-.7-2.074-1.051-3.023-1.051-.539 0-1.043.101-1.512.301-1.412.672-2.288 1.522-2.628 2.552-.334.972-.501 1.733-.501 2.284 0 .65.179 1.176.536 1.576 1.037 1.244 2.32 2.344 3.85 3.303l4.447 2.787c1.436.901 2.541 1.948 3.318 3.142.775 1.194 1.164 2.788 1.164 4.783 0 .464-.012.829-.035 1.094-.199 2.645-1.362 4.636-3.489 5.972a4.792 4.792 0 0 1-2.663.794c-1.512 0-2.941-.601-4.289-1.802a6.376 6.376 0 0 1-.893-.959 21.621 21.621 0 0 1-.689-.928c-.422.393-.861.984-1.318 1.774s-.797 1.414-1.02 1.871V61.086h.246a23.126 23.126 0 0 0 1.033 4.573 13.639 13.639 0 0 0 2.021 3.881c.857 1.141 1.882 1.965 3.071 2.472a4.49 4.49 0 0 0 1.837.397c1.436 0 2.634-.615 3.595-1.845.428-.515.774-1.135 1.042-1.86a6.163 6.163 0 0 0 .399-2.129c0-.821-.217-1.512-.65-2.069-.621-.8-1.585-1.619-2.892-2.455a344.973 344.973 0 0 1-4.421-2.885c-1.641-1.086-2.908-2.259-3.802-3.517-.894-1.259-1.34-2.756-1.34-4.493 0-1.207.24-2.527.721-3.957.705-2.065 2.24-3.22 4.608-3.463z"/></svg>