<?xml version="1.0" encoding="utf-8"?>
<!-- Generator: Adobe Illustrator 19.2.0, SVG Export Plug-In . SVG Version: 6.00 Build 0)  -->
<svg version="1.1" id="Layer_1" xmlns="http://www.w3.org/2000/svg" xmlns:xlink="http://www.w3.org/1999/xlink" x="0px" y="0px"
	 viewBox="0 0 175.748 25.934" style="enable-background:new 0 0 175.748 25.934;" xml:space="preserve">
<style type="text/css">
	.st0{fill-rule:evenodd;clip-rule:evenodd;fill:#0066B1;}
</style>
<g>
	<path class="st0" d="M42.079,7.43h6.501l0.286,2.143c0.5-1.714,3.787-2.929,5.787-2.929c4.644,0,6.501,2.858,6.501,7.859v10.788
		h-7.216v-9.645c0-1.929-0.357-3.358-2.286-3.358c-1.786,0-2.715,1.929-2.715,3.286v9.716h-6.858V7.43L42.079,7.43z"/>
	<path class="st0" d="M0,25.362V0.071h12.074c7.216,0,10.502,3.501,10.502,8.573c0,5.43-3,9.145-10.502,9.145H8.002v7.573H0
		L0,25.362z M11.216,11.645c1.929,0,4.001-0.429,4.001-2.643c0-2.286-2.215-2.786-4.001-2.786H8.002v5.429H11.216L11.216,11.645z"/>
	<path class="st0" d="M121.523,7.43h6.573l0.214,2.143c0.572-1.714,3.858-2.929,5.858-2.929c4.572,0,6.501,2.858,6.501,7.859v10.859
		h-7.216v-9.716c0-1.929-0.429-3.358-2.358-3.358c-1.715,0-2.644,1.929-2.644,3.286v9.788h-6.93V7.43L121.523,7.43z"/>
	<path class="st0" d="M88.374,18.932c0,0.714,0.357,1.786,0.786,2.143c0.5,0.357,1.143,0.714,1.929,0.714
		c1.286,0,2.286-0.357,2.286-1.572c0.071-3.001-10.859-0.357-10.859-7.501c0-5.001,3.858-6.144,7.859-6.144s9.502,0.786,9.287,6.216
		h-6.072c0-0.5-0.214-0.857-0.5-1.286c-0.429-0.5-0.929-0.714-1.857-0.786c-1.215-0.071-2.358,0.143-2.358,1.072
		c0.071,2.786,11.288,0.929,11.288,7.502c0,4.572-3.215,6.644-9.431,6.644c-3.929-0.071-8.859-2.072-8.859-7.001H88.374
		L88.374,18.932z"/>
	<path class="st0" d="M162.317,14.36c0-0.429,0-1-0.571-1.715c-0.286-0.357-0.929-1.143-1.929-1.143
		c-2.715,0-3.429,2.644-3.429,4.787c0,2.5,1.143,4.572,3.286,4.572c1.858,0,2.786-1.715,2.786-3.144h6.287
		c0.143,3.715-2.429,8.145-9.359,8.145c-5.644,0-9.645-3.929-9.645-9.645c0-6.93,5.144-9.573,9.573-9.573
		c6.001,0,9.43,3.644,9.359,7.716H162.317L162.317,14.36z"/>
	<path class="st0" d="M34.435,25.362l-0.715-1.5c-1.357,1.143-2.786,1.786-5.072,1.786c-2.215-0.071-6.573-0.357-6.573-5.144
		c0-7.858,11.716-4.286,11.716-8.144c0-1.286-1.429-1.215-2.215-1.215c-1.429,0-2.358,0.286-2.572,2.429h-6.001
		c0-3.715,1.143-6.858,9.002-6.858c7.644,0,8.43,4.001,8.43,7.93v8.145c0,1.072,0.071,1.572,0.786,2.358v0.143L34.435,25.362
		L34.435,25.362z M33.864,17.146c-2.429,1.143-5.501,1.072-5.572,2.858c0,1.143,0.643,1.715,2.072,1.715
		C32.721,21.718,34.006,19.289,33.864,17.146L33.864,17.146z M74.729,25.362l-0.714-1.5c-1.358,1.143-2.858,1.786-5.073,1.786
		c-2.286-0.071-6.644-0.357-6.644-5.144c0-7.858,11.717-4.286,11.788-8.144c0-1.286-1.5-1.215-2.215-1.215
		c-1.5,0-2.358,0.286-2.572,2.429h-6.001c0-3.715,1.072-6.858,9.002-6.858c7.573,0,8.359,4.001,8.359,7.93v8.145
		c0,1.072,0.071,1.572,0.786,2.358v0.143L74.729,25.362L74.729,25.362z M74.157,17.146c-2.429,1.143-5.573,1.072-5.573,2.858
		c0,1.143,0.571,1.715,2.072,1.715C72.943,21.718,74.3,19.289,74.157,17.146L74.157,17.146z"/>
	<path class="st0" d="M148.6,25.362V7.43h-6.644v17.932H148.6L148.6,25.362z M141.956,5.144h6.644V0h-6.644V5.144L141.956,5.144z"/>
	<path class="st0" d="M110.807,6.787c5.93,0,9.573,4.144,9.573,9.573c0,5.501-3.644,9.573-9.573,9.573
		c-5.93,0-9.645-4.072-9.645-9.573C101.162,10.931,104.877,6.787,110.807,6.787L110.807,6.787z M107.664,16.36
		c0,2.215,0.714,4.929,3.143,5.001c2.429,0,3.072-2.786,3.072-5.001c0-2.143-0.643-4.93-3.072-4.93
		C108.378,11.431,107.735,14.217,107.664,16.36L107.664,16.36z"/>
	<path class="st0" d="M172.962,21.861c0.429,0,1.072,0.071,1.072-0.5c0-0.5-0.429-0.571-0.786-0.571h-0.857v1.071H172.962
		L172.962,21.861z M174.391,23.576h-0.429l-0.857-1.429h-0.715v1.429h-0.357v-3.072h1.286c0.574,0,1.085,0.172,1.085,0.858
		c0,0.571-0.37,0.786-0.942,0.786L174.391,23.576L174.391,23.576z M175.427,22.111c0-1.357-1.072-2.429-2.358-2.429
		c-1.357,0-2.429,1.072-2.429,2.429c0,1.286,1.072,2.358,2.429,2.358C174.355,24.469,175.427,23.397,175.427,22.111L175.427,22.111z
		 M170.319,22.076c0-1.5,1.214-2.715,2.715-2.715c1.5,0,2.715,1.215,2.715,2.715c0,1.5-1.215,2.715-2.715,2.715
		C171.533,24.79,170.319,23.576,170.319,22.076L170.319,22.076z"/>
</g>
</svg>
