<?xml version="1.0" encoding="utf-8"?>
<!-- Generator: Adobe Illustrator 19.2.0, SVG Export Plug-In . SVG Version: 6.00 Build 0)  -->
<svg version="1.1" id="Layer_1" xmlns="http://www.w3.org/2000/svg" xmlns:xlink="http://www.w3.org/1999/xlink" x="0px" y="0px"
	 viewBox="0 0 234.4 44.3" style="enable-background:new 0 0 234.4 44.3;" xml:space="preserve">
<style type="text/css">
	.st0{fill:#FFFFFF;}
	.st1{fill:#4EC9F5;}
</style>
<g>
	<path class="st0" d="M29.9,27.3h5.4c6.2,0,9.3-2.7,9.3-8V9.6c0-5.3-3.1-8-9.3-8H9.9L0,11.5v31.4h9.4V27.3h9.1l16.6,15.6h13.7
		L29.9,27.3z M9.4,20.3V8.7H31c1.5,0,2.5,0.2,3.1,0.5c0.8,0.5,1.2,1.4,1.2,2.8v5c0,1.4-0.4,2.3-1.2,2.8c-0.6,0.3-1.6,0.5-3.1,0.5
		L9.4,20.3L9.4,20.3z"/>
	<path class="st0" d="M169.1,1.6h-29.5l-5.9,5.9v35.4h9.4V26.8H169c6.2,0,9.3-2.7,9.3-8V9.6C178.4,4.3,175.3,1.6,169.1,1.6
		 M169.1,16.5c0,1.4-0.4,2.4-1.2,2.8c-0.6,0.3-1.6,0.5-3.1,0.5h-21.6V8.7h21.6c1.5,0,2.5,0.2,3.1,0.5c0.8,0.5,1.2,1.4,1.2,2.8V16.5z
		"/>
	<path class="st0" d="M221.5,42.9L234.4,30V11.4c0-3.8-0.7-6.4-2.2-7.8c-1.4-1.3-4.1-2-8.1-2h-30.4c-3.9,0-6.6,0.7-8.1,2
		c-1.4,1.3-2.2,3.9-2.2,7.8v21.7c0,3.8,0.7,6.4,2.2,7.8c1.4,1.3,4.1,2,8.1,2H221.5z M193.1,9h31.6v26.1h-31.6V9z"/>
	<polygon class="st1" points="126.8,0 109.8,17 94.3,1.6 94.3,1.6 94.3,1.6 84,1.6 126.8,44.3 126.8,34 115,22.2 126.8,10.4 	"/>
	<polygon class="st1" points="104.6,32.6 99.4,27.4 91.3,35.5 60.6,35.5 60.6,25.9 77.7,25.9 77.7,18.5 60.6,18.5 60.6,8.9 
		80.9,8.9 73.5,1.6 53.3,1.6 53.3,42.8 94.3,42.8 94.3,42.8 94.3,42.8 	"/>
</g>
</svg>
