<?xml version="1.0" encoding="utf-8"?>
<!-- Generator: Adobe Illustrator 19.0.0, SVG Export Plug-In . SVG Version: 6.00 Build 0)  -->
<svg version="1.1" id="Layer_1" xmlns="http://www.w3.org/2000/svg" xmlns:xlink="http://www.w3.org/1999/xlink" x="0px" y="0px"
	 viewBox="-485 376.6 308.3 48.4" style="enable-background:new -485 376.6 308.3 48.4;" xml:space="preserve">
<style type="text/css">
	.st0{fill:#FFFFFF;}
	.st1{fill:#4EC9F5;}
</style>
<g>
	<path class="st0" d="M-455.1,408h5.4c6.2,0,9.3-2.7,9.3-8v-9.7c0-5.3-3.1-8-9.3-8h-25.4l-9.9,9.9v31.4h9.4V408h9.1l16.6,15.6h13.7
		L-455.1,408z M-475.6,401v-11.6h21.6c1.5,0,2.5,0.2,3.1,0.5c0.8,0.5,1.2,1.4,1.2,2.8v5c0,1.4-0.4,2.3-1.2,2.8
		c-0.6,0.3-1.6,0.5-3.1,0.5H-475.6z"/>
	<path class="st0" d="M-315.9,382.3h-29.5l-5.9,5.9v35.4h9.4v-16.1h25.9c6.2,0,9.3-2.7,9.3-8v-9.2
		C-306.6,385-309.7,382.3-315.9,382.3 M-315.9,397.2c0,1.4-0.4,2.4-1.2,2.8c-0.6,0.3-1.6,0.5-3.1,0.5h-21.6v-11.1h21.6
		c1.5,0,2.5,0.2,3.1,0.5c0.8,0.5,1.2,1.4,1.2,2.8V397.2z"/>
	<path class="st0" d="M-263.5,423.6l12.9-12.9v-18.6c0-3.8-0.7-6.4-2.2-7.8c-1.4-1.3-4.1-2-8.1-2h-30.4c-3.9,0-6.6,0.7-8.1,2
		c-1.4,1.3-2.2,3.9-2.2,7.8v21.7c0,3.8,0.7,6.4,2.2,7.8c1.4,1.3,4.1,2,8.1,2H-263.5z M-291.9,389.7h31.6v26.1h-31.6V389.7z"/>
	<polygon class="st1" points="-358.2,380.7 -375.2,397.7 -390.7,382.3 -390.7,382.3 -390.7,382.3 -401,382.3 -358.2,425 
		-358.2,414.7 -370,402.9 -358.2,391.1 	"/>
	<polygon class="st1" points="-380.4,413.3 -385.6,408.1 -393.7,416.2 -424.4,416.2 -424.4,406.6 -407.3,406.6 -407.3,399.2 
		-424.4,399.2 -424.4,389.6 -404.1,389.6 -411.5,382.3 -431.7,382.3 -431.7,423.5 -390.7,423.5 -390.7,423.5 -390.7,423.5 	"/>
</g>
</svg>
