<?xml version="1.0" encoding="utf-8"?>
<!-- Generator: Adobe Illustrator 19.2.0, SVG Export Plug-In . SVG Version: 6.00 Build 0)  -->
<svg version="1.1" id="Layer_1" xmlns="http://www.w3.org/2000/svg" xmlns:xlink="http://www.w3.org/1999/xlink" x="0px" y="0px"
	 viewBox="0 0 186.2 40.667" style="enable-background:new 0 0 186.2 40.667;" xml:space="preserve">
<style type="text/css">
	.st0{fill:#002F67;}
	.st1{fill:#939598;}
</style>
<g>
	<path class="st0" d="M49.956,40.552c-0.626,0-1.251-0.174-1.251-0.174V39.66c0,0,0.688,0.194,1.251,0.194
		c0.738,0,1.352-0.213,1.352-1.096c0-0.718-0.425-1.018-0.913-1.367l-0.726-0.524c-0.463-0.33-0.863-0.805-0.863-1.542
		c0-1.367,1.163-1.755,2.127-1.755c0.563,0,1.164,0.155,1.164,0.155v0.689c0,0-0.613-0.174-1.164-0.174
		c-0.663,0-1.151,0.32-1.151,1.009c0,0.572,0.325,0.873,0.738,1.174l0.675,0.494c0.563,0.417,1.114,0.902,1.114,1.804
		C52.309,40.339,50.945,40.552,49.956,40.552L49.956,40.552z"/>
	<path class="st0" d="M57.902,40.455l-0.438-1.61h-2.428l-0.438,1.61h-1.101l2.165-6.79h1.176l2.165,6.79H57.902L57.902,40.455z
		 M56.638,35.722L56.638,35.722c-0.175-0.659-0.388-1.6-0.388-1.6s-0.213,0.941-0.388,1.6l-0.663,2.464h2.102L56.638,35.722
		L56.638,35.722z"/>
	<path class="st0" d="M66.707,40.455h-1.352l-1.952-6.79h1.189l1.076,4.655c0.162,0.699,0.363,1.795,0.363,1.795
		s0.213-1.096,0.375-1.795l1.064-4.655h1.188L66.707,40.455L66.707,40.455z"/>
	<path class="st0" d="M73.624,40.455l-0.437-1.61h-2.428l-0.438,1.61H69.22l2.165-6.79h1.176l2.165,6.79H73.624L73.624,40.455z
		 M72.361,35.722L72.361,35.722c-0.175-0.659-0.388-1.6-0.388-1.6s-0.213,0.941-0.388,1.6l-0.663,2.464h2.102L72.361,35.722
		L72.361,35.722z"/>
	<path class="st0" d="M81.994,40.455l-0.088-3.55c-0.012-0.747,0.013-1.765,0.013-1.765s-0.401,0.922-0.651,1.358l-1.539,2.725
		l-1.552-2.725c-0.25-0.436-0.638-1.348-0.638-1.348s0.026,1.067,0.012,1.756l-0.088,3.55h-0.988l0.3-6.79h0.801l2.153,4.122
		l2.165-4.122h0.788l0.3,6.79H81.994L81.994,40.455z"/>
	<path class="st0" d="M89.137,40.455l-0.438-1.61h-2.428l-0.438,1.61h-1.101l2.165-6.79h1.176l2.165,6.79H89.137L89.137,40.455z
		 M87.873,35.722L87.873,35.722c-0.174-0.659-0.388-1.6-0.388-1.6s-0.212,0.941-0.388,1.6l-0.663,2.464h2.103L87.873,35.722
		L87.873,35.722z"/>
	<path class="st0" d="M92.404,40.552c-0.359,0-0.64-0.301-0.64-0.66c0-0.359,0.281-0.65,0.64-0.65c0.359,0,0.631,0.291,0.631,0.65
		C93.036,40.261,92.763,40.552,92.404,40.552L92.404,40.552z"/>
	<path class="st0" d="M100.357,40.552c-1.439,0-2.165-0.476-2.165-1.843v-5.044h1.001v5.189c0,0.756,0.363,1.067,1.164,1.067
		c0.714,0,1.164-0.301,1.164-1.067v-5.189h1.001v5.044C102.521,40.038,101.745,40.552,100.357,40.552L100.357,40.552z"/>
	<polygon class="st0" points="104.461,40.455 104.461,39.864 107.088,34.335 104.461,34.335 104.461,33.666 108.089,33.666 
		108.089,34.257 105.462,39.786 108.089,39.786 108.089,40.455 104.461,40.455 	"/>
	<path class="st0" d="M116.083,40.455h-1.351l-1.952-6.79h1.19l1.076,4.655c0.163,0.699,0.363,1.795,0.363,1.795
		s0.212-1.096,0.375-1.795l1.064-4.655h1.189L116.083,40.455L116.083,40.455z"/>
	<path class="st0" d="M123,40.455l-0.438-1.61h-2.428l-0.438,1.61h-1.101l2.165-6.79h1.176l2.165,6.79H123L123,40.455z
		 M121.737,35.722L121.737,35.722c-0.175-0.659-0.388-1.6-0.388-1.6s-0.213,0.941-0.388,1.6l-0.663,2.464h2.102L121.737,35.722
		L121.737,35.722z"/>
	<path class="st0" d="M126.692,40.552c-0.625,0-1.251-0.174-1.251-0.174V39.66c0,0,0.688,0.194,1.251,0.194
		c0.738,0,1.351-0.213,1.351-1.096c0-0.718-0.425-1.018-0.913-1.367l-0.726-0.524c-0.462-0.33-0.862-0.805-0.862-1.542
		c0-1.367,1.164-1.755,2.127-1.755c0.563,0,1.164,0.155,1.164,0.155v0.689c0,0-0.613-0.174-1.164-0.174
		c-0.663,0-1.152,0.32-1.152,1.009c0,0.572,0.326,0.873,0.739,1.174l0.675,0.494c0.563,0.417,1.114,0.902,1.114,1.804
		C129.044,40.339,127.68,40.552,126.692,40.552L126.692,40.552z"/>
	<path class="st0" d="M131.524,40.552c-0.359,0-0.64-0.301-0.64-0.66c0-0.359,0.281-0.65,0.64-0.65c0.359,0,0.63,0.291,0.63,0.65
		C132.154,40.261,131.882,40.552,131.524,40.552L131.524,40.552z"/>
	<polygon class="st0" points="137.597,40.455 137.597,39.864 140.225,34.335 137.597,34.335 137.597,33.666 141.226,33.666 
		141.226,34.257 138.598,39.786 141.226,39.786 141.226,40.455 137.597,40.455 	"/>
	<path class="st0" d="M146.918,40.455l-0.439-1.61h-2.427l-0.438,1.61h-1.102l2.165-6.79h1.177l2.165,6.79H146.918L146.918,40.455z
		 M145.653,35.722L145.653,35.722c-0.175-0.659-0.388-1.6-0.388-1.6s-0.212,0.941-0.388,1.6l-0.663,2.464h2.102L145.653,35.722
		L145.653,35.722z"/>
	<path class="st0" d="M155.723,40.455h-1.351l-1.952-6.79h1.189l1.076,4.655c0.162,0.699,0.363,1.795,0.363,1.795
		s0.213-1.096,0.376-1.795l1.063-4.655h1.189L155.723,40.455L155.723,40.455z"/>
	<path class="st0" d="M162.641,40.455l-0.439-1.61h-2.427l-0.438,1.61h-1.102l2.165-6.79h1.177l2.165,6.79H162.641L162.641,40.455z
		 M161.377,35.722L161.377,35.722c-0.176-0.659-0.388-1.6-0.388-1.6s-0.212,0.941-0.388,1.6l-0.663,2.464h2.102L161.377,35.722
		L161.377,35.722z"/>
	<path class="st0" d="M166.332,40.552c-0.626,0-1.251-0.174-1.251-0.174V39.66c0,0,0.688,0.194,1.251,0.194
		c0.738,0,1.351-0.213,1.351-1.096c0-0.718-0.426-1.018-0.913-1.367l-0.726-0.524c-0.463-0.33-0.863-0.805-0.863-1.542
		c0-1.367,1.164-1.755,2.127-1.755c0.563,0,1.164,0.155,1.164,0.155v0.689c0,0-0.612-0.174-1.164-0.174
		c-0.663,0-1.151,0.32-1.151,1.009c0,0.572,0.325,0.873,0.738,1.174l0.676,0.494c0.564,0.417,1.114,0.902,1.114,1.804
		C168.684,40.339,167.32,40.552,166.332,40.552L166.332,40.552z"/>
	<path class="st0" d="M171.164,40.552c-0.359,0-0.641-0.301-0.641-0.66c0-0.359,0.282-0.65,0.641-0.65c0.358,0,0.63,0.291,0.63,0.65
		C171.794,40.261,171.522,40.552,171.164,40.552L171.164,40.552z"/>
	<path class="st1" d="M36.6,24.68c0.472-0.803,0.737-2.068,0.737-2.992c0-2.24-0.3-4.263-2.958-6.777
		c-1.745-1.654-4.984-3.03-8.082-3.03c-6.58,0-12.068,3.767-18.882,10.901c-2.291-1.192-3.503-2.936-3.503-5.265
		c0-2.834,1.026-5.68,5.67-10.322c2.156-2.154,5.562-4.767,8.442-6.524C18.842,0.171,19.238,0,19.538,0
		c0.301,0,0.638,0.087,1.664,0.6c3.004,1.505,7.587,4.287,10.753,6.805c6.251,4.968,7.471,8.599,7.471,12.428
		C39.426,21.7,38.574,23.663,36.6,24.68L36.6,24.68z"/>
	<path class="st0" d="M2.828,15.985c-0.474,0.803-0.736,2.07-0.736,2.993c0,2.238,0.298,4.262,2.955,6.778
		c1.746,1.653,4.986,3.027,8.086,3.027c6.576,0,12.064-3.766,18.88-10.898c2.305,1.137,3.504,2.614,3.504,4.94
		c0,3.135-0.962,5.793-5.671,10.647c-2.042,2.1-6.04,5.038-8.474,6.523c-0.819,0.498-1.181,0.672-1.481,0.672
		c-0.305,0-0.642-0.088-1.666-0.601c-3.003-1.505-7.94-4.56-10.721-6.965C1.714,28.096,0,24.383,0,20.801
		C0,18.932,0.854,17,2.828,15.985L2.828,15.985z"/>
	<polygon class="st0" points="54.691,29.529 54.691,23.315 52.049,23.315 52.049,29.529 48.841,29.529 48.841,15.409 52.049,15.409 
		52.049,20.956 54.691,20.956 54.691,15.409 57.899,15.409 57.899,29.529 54.691,29.529 	"/>
	<polygon class="st0" points="66.017,24.981 66.017,29.529 62.894,29.529 62.894,24.981 59.533,17.997 63.032,17.997 64.456,22.774 
		65.879,17.997 69.378,17.997 66.017,24.981 	"/>
	<path class="st0" d="M74.123,26.037v3.492h-3.144V17.997h3.48c3.243,0,4.626,0.955,4.626,3.953
		C79.084,24.949,77.325,25.954,74.123,26.037L74.123,26.037z M74.616,19.842L74.616,19.842h-0.494v4.482
		C75.803,24.175,76,23.566,76,21.951C76,20.221,75.605,19.842,74.616,19.842L74.616,19.842z"/>
	<path class="st0" d="M85.351,29.694c-2.096,0-4.626-0.544-4.626-5.931c0-5.272,2.511-5.93,4.626-5.93
		c2.036,0,4.626,0.675,4.626,5.93C89.977,29.035,87.566,29.694,85.351,29.694L85.351,29.694z M85.351,19.71L85.351,19.71
		c-1.009,0-1.502,0.626-1.502,4.052c0,3.493,0.593,4.053,1.502,4.053c0.869,0,1.503-0.494,1.503-4.053
		C86.854,20.534,86.418,19.71,85.351,19.71L85.351,19.71z"/>
	<path class="st1" d="M102.125,29.529l-0.461-2.769h-2.978l-0.463,2.769h-3.48l3.48-14.679h3.922l3.461,14.679H102.125
		L102.125,29.529z M100.846,21.141L100.846,21.141c-0.209-1.405-0.671-4.697-0.671-4.697s-0.441,3.313-0.651,4.697l-0.482,3.166
		h2.265L100.846,21.141L100.846,21.141z"/>
	<polygon class="st1" points="113.047,29.529 107.335,29.529 107.335,17.997 110.477,17.997 110.477,27.42 113.443,27.42 
		113.047,29.529 	"/>
	<path class="st1" d="M118.484,26.037v3.492h-3.143V17.997h3.479c3.243,0,4.627,0.955,4.627,3.953
		C123.446,24.949,121.686,25.954,118.484,26.037L118.484,26.037z M118.978,19.842L118.978,19.842h-0.494v4.482
		c1.681-0.149,1.878-0.758,1.878-2.373C120.362,20.221,119.966,19.842,118.978,19.842L118.978,19.842z"/>
	<polygon class="st1" points="131.887,20.106 128.328,20.106 128.328,22.527 131.59,22.527 131.59,24.455 128.328,24.455 
		128.328,27.42 132.084,27.42 132.084,29.529 125.184,29.529 125.184,17.997 132.184,17.997 131.887,20.106 	"/>
	<path class="st1" d="M143.792,29.529l-0.444-2.663h-2.865l-0.444,2.663h-3.347l3.347-14.12h3.773l3.328,14.12H143.792
		L143.792,29.529z M142.561,21.46L142.561,21.46c-0.202-1.351-0.645-4.518-0.645-4.518s-0.423,3.188-0.625,4.518l-0.465,3.046h2.179
		L142.561,21.46L142.561,21.46z"/>
	<path class="st1" d="M152.634,29.529h-3.381V17.997h3.381c2.728,0,5.297,0.577,5.297,5.683
		C157.931,28.853,155.539,29.529,152.634,29.529L152.634,29.529z M152.851,19.974L152.851,19.974h-0.455v7.545h0.356
		c1.463,0,2.036-0.477,2.036-3.838C154.788,20.419,154.096,19.974,152.851,19.974L152.851,19.974z"/>
	<path class="st1" d="M165.107,29.529l-0.455-2.636c-0.178-1.054-0.416-1.746-0.771-2.043l-0.771,0.065v4.613h-3.143V17.997h3.973
		c2.551,0,4.309,0.543,4.309,3.327c0,1.532-0.73,2.422-1.877,2.932c0.791,0.329,1.206,1.351,1.463,2.521l0.613,2.752H165.107
		L165.107,29.529z M163.704,19.859L163.704,19.859h-0.593v3.36c1.522-0.115,1.997-0.379,1.997-1.861
		C165.107,20.089,164.653,19.859,163.704,19.859L163.704,19.859z"/>
	<polygon class="st1" points="170.681,29.529 170.681,17.997 173.864,17.997 173.864,29.529 170.681,29.529 	"/>
	<path class="st1" d="M182.918,29.529l-0.435-2.175h-2.806l-0.436,2.175h-3.281l3.281-11.532h3.697l3.262,11.532H182.918
		L182.918,29.529z M181.712,22.939L181.712,22.939c-0.198-1.104-0.633-3.69-0.633-3.69s-0.415,2.603-0.613,3.69l-0.454,2.488h2.134
		L181.712,22.939L181.712,22.939z"/>
</g>
</svg>
