<?xml version="1.0" encoding="utf-8"?>
<!-- Generator: Adobe Illustrator 19.2.0, SVG Export Plug-In . SVG Version: 6.00 Build 0)  -->
<svg version="1.1" id="Layer_1" xmlns="http://www.w3.org/2000/svg" xmlns:xlink="http://www.w3.org/1999/xlink" x="0px" y="0px"
	 viewBox="0 0 365 295.924" style="enable-background:new 0 0 365 295.924;" xml:space="preserve">
<style type="text/css">
	.st0{clip-path:url(#SVGID_2_);fill:#C51F1B;}
</style>
<g>
	<g>
		<defs>
			<rect id="SVGID_1_" width="365" height="295.924"/>
		</defs>
		<clipPath id="SVGID_2_">
			<use xlink:href="#SVGID_1_"  style="overflow:visible;"/>
		</clipPath>
		<path class="st0" d="M69.329,262.301l0.034-25.11c15.742,0,21.522-0.787,24.264,18.509h1.659v-21.48l-42.866,0.017v2.954h7.422
			v55.264h-8.184v2.911h44.178v-22.58h-2.209c-2.2,17.07-6.534,19.677-18.67,19.677h-5.628V265.61h3.258
			c5.45,0.135,8.548,3.318,9.656,12.686h2.006l-0.017-27.759h-1.972c0,0.135-0.389,11.933-9.91,11.764H69.329z"/>
		<path class="st0" d="M51.813,263.408H27.625v2.742h8.285v19.872c-1.396,5.044-8.836,7.151-11.053,7.151
			c-15.445,0-14.337-22.597-14.337-28.648c0-5.535-0.559-28.665,14.337-28.665c10.494,0,16.021,10.452,18.23,19.838h1.676
			c0-3.868,0.068-22.267,0.025-22.224l-7.219,5.112c0.161-0.034-3.309-4.942-12.712-4.942c-18.23,0-24.916,18.187-24.856,30.882
			c0.085,11.611,5.433,31.398,24.856,31.398c6.11,0,10.41-3.106,12.712-6.635l7.727,6.085V266.15h6.517V263.408z"/>
		<path class="st0" d="M263.096,273.313l8.819-26.422l9.403,26.422H263.096z M228.846,262.76h-9.919v-25.601h12.686
			c7.448,1.125,7.752,9.733,7.752,12.466C239.366,256.252,236.598,262.76,228.846,262.76 M334.407,272.789
			c-2.209,17.07-6.534,19.635-18.67,19.635h-0.745v-55.256h7.727v-2.979h-25.398v2.979h7.727v55.256h-6.136l-22.563-59.885h-3.326
			l-18.788,54.494c0.042-0.161-1.422,4.663-4.519,5.264c-2.852,0.135-2.64-1.354-2.64-1.879v-10.469
			c0-2.751-0.212-8.996-3.064-11.857c-3.208-3.225-8.675-3.462-8.548-3.588c0,0,13.88-2.869,13.88-16.055
			c0-9.242-6.432-13.837-17.18-14.243h-30.493v2.971h7.794v55.256h-7.794v2.937h25.017v-2.937h-7.803v-26.566h10.401
			c18.052,1.49-3.097,29.528,20.557,29.503h14.912v-2.945c-0.829,0-6.297,0.152-6.635-3.648c-0.22-2.759,3.597-12.635,3.597-12.635
			h20.303l6.373,16.292h-7.075v2.937h55.298v-22.58H334.407z"/>
		<path class="st0" d="M171.588,237.155c15.742,0,21.556-0.753,24.298,18.551h1.659v-21.488h-62.501v2.937h1.633
			c2.209,0,7.439,0.161,7.744,4.773v35.249l-29.24-42.959H99.262v2.937h2.64c3.14,0,7.541,0.144,7.744,4.773v45.168
			c0,4.409-6.601,6.077-9.36,6.077h-0.034v2.192h21.547v-2.192c-2.759,0-9.403-1.667-9.403-6.077l0.076-39.768
			c11.578,16.546,33.421,48.071,33.624,48.037h1.092v-53.436c0.296-4.612,5.535-4.773,7.735-4.773h7.177v55.307h-8.184v2.903h44.186
			v-22.58h-2.217c-2.2,17.079-6.525,19.677-18.67,19.677h-5.628v-26.854h3.258c5.45,0.135,8.548,3.318,9.656,12.686h2.014
			l-0.017-27.759h-1.972c0,0.135-0.398,11.942-9.919,11.764h-3.021V237.155z"/>
		<polygon class="st0" points="364.4,237.165 364.4,234.186 339.467,234.186 339.467,237.165 347.296,237.165 347.33,292.395 
			339.467,292.395 339.467,295.366 364.4,295.366 364.4,292.395 356.572,292.395 356.572,237.165 		"/>
		<path class="st0" d="M275.536,183.406c0.745-1.904,2.184-3.114,4.172-3.495l20.176-4.502l-1.82-17.993l-0.059-0.389
			c-0.499-2.361-1.997-9.538-11.374-10.308c-36.062-2.911-44.423-8.26-53.191-13.922l-0.034-0.076l-0.051,0.025l-0.567-0.372
			c-9.369-6.06-18.67-6.11-19.584-6.085c-10.215,0.008-23.138,4.054-24.196,4.392c-3.114,0.914-6.034,1.845-8.853,2.751
			c-11.298,3.631-21.056,6.779-37.441,6.288l-2.988-0.085l-0.77,2.886c-0.593,2.226-5.18,20.345-0.753,31.982
			c-3.969,3.123-3.961,6.737-3.944,7.228c0.161,3.978-0.779,4.959-1.083,5.281c-1.896,1.955-8.175,2.217-13.465,2.217h-0.068h-1.93
			l-1.134,1.557c-3.258,4.494-10.308,5.543-14.819,4.393c-1.989-6.034-2.04-10.647-0.127-13.397c2.26-3.25,7.05-3.605,9.005-3.605
			h1.134c4.79,0,8.683-3.918,8.683-8.734V137.01c1.464-2.251,2.632-4.849,3.656-7.769c7.913-1.269,13.973-7.981,13.973-16.055
			c0-3.097-0.914-6.093-2.564-8.649c7.321-3.521,13.575-10.714,13.575-20.151c0-9.428-4.748-13.753-9.25-16.588
			c1.27-3.622,3.368-9.986,4.79-16.393l6.331-22.681c2.835-8.895,10.232-14.633,18.864-14.633h111.528
			c-4.722,6.644-11.425,9.783-20.718,9.783h-67.485l-3.529,7.549h60.486c-4.756,7.558-11.713,11.121-21.59,11.121h-43.856
			l-3.521,7.549h39.125c-4.739,7.278-11.62,10.714-21.319,10.714h-23.908l-3.521,7.549h25.06c0.229,0.313,0.855,1.456,0.855,4.519
			c0,4.841-4.079,8.793-9.089,8.793c-1.727,0-3.191-0.398-5.772-1.447c-1.109-0.474-2.217-0.939-3.326-1.405l-5.814,5.213
			c1.092,0.465,2.175,0.931,3.267,1.388v0.008c5.036,2.175,7.837,3.318,11.645,3.318c4.612,0,8.776-1.913,11.721-4.959
			c4.299,0.271,11.222,0.846,17.934,1.396c8.015,0.66,15.589,1.278,19.499,1.49c1.963,0.102,3.8,0.195,5.552,0.279
			c3.326,0.161,6.373,0.313,9.411,0.533c15.225,24.721,23.028,27.971,52.506,31.5c2.124,3.808,4.045,7.828,5.865,11.882v48.122
			l0.008,0.279c0.161,2.217,0.161,2.962-0.135,3.368c-1.024,1.337-5.577,3.233-7.16,3.885l-24.848,9.369
			C275.409,191.429,274.224,186.766,275.536,183.406 M270.161,196.481h-49.129l21.056-22.224c4.248-4.392,5.603-9.673,3.817-14.861
			c-1.024-2.996-3.8-8.726-6.694-14.607c8.353,3.885,21.023,7.371,46.801,9.453c3.106,0.254,3.927,1.312,4.545,4.139l1.134,11.121
			l-13.473,3.013c-4.519,0.889-8.065,3.859-9.733,8.158C266.641,185.411,267.267,190.997,270.161,196.481 M181.552,196.481
			c-1.363-5.349-0.804-9.614,1.633-12.407c2.327-2.666,5.907-3.478,8.438-3.115l14.362,2.666l0.364,0.059h1.997l10.147-10.934
			l0.093-0.102c1.735-2.023,7.008-8.133,1.625-15.936l-13.566-22.351c2.251-0.322,4.502-0.516,6.584-0.516l0.093-0.008
			c0.068,0.008,6.872-0.093,14.159,4.147c0.982,2.116,2.353,4.9,3.885,7.998c2.844,5.772,6.39,12.957,7.38,15.86
			c0.313,0.914,1.269,3.682-2.124,7.194l-25.999,27.446H181.552z M177.481,179.115c-2.734,3.131-5.4,8.598-3.673,17.366h-46.251
			c4.968-0.491,8.582-1.659,11.07-4.249c3.03-3.148,3.301-7.456,3.199-10.528c0.102-0.271,0.601-1.312,2.869-2.336l3.986-1.82
			l-2.395-3.673c-3.952-6.077-2.226-19.347-0.694-26.557h0.355c15.682,0,25.83-3.258,36.527-6.703
			c2.793-0.897,5.67-1.82,8.709-2.708l0.093-0.034c0.059-0.017,3.191-1.007,7.448-1.997l15.081,24.848l0.127,0.203
			c1.506,2.141,1.693,3.563-1.041,6.745l-7.558,8.158l-12.39-2.302l-0.11-0.017C187.239,172.649,181.213,174.849,177.481,179.115
			 M95.422,177.473c-3.216,4.629-3.605,11.011-1.185,19.008h-7.82v-61.02c2.801-0.423,5.814-1.227,8.624-2.505
			c-0.161,2.657-0.525,4.765-1.024,7.574c-0.118,0.652-0.237,1.337-0.355,2.065l-0.753,4.401h4.477
			c6.686,0,11.679-1.049,15.513-3.03v25.474c0,0.652-0.508,1.185-1.126,1.185h-1.134C103.995,170.626,98.452,173.123,95.422,177.473
			 M78.851,189.863l-35.613-9.267l-35.613,9.267v-63.702l35.613-9.242l35.613,9.242V189.863z M12.195,196.481l31.043-8.082
			l31.043,8.082H12.195z M24.611,102.692c1.49-2.268,4.892-4.232,9.149-3.495l3.225,0.559l1.016-3.106
			c0.271-0.829,0.635-1.447,1.143-1.921c0.906-0.855,2.26-1.261,3.978-1.21c4.553,0.144,10.257,3.317,14.887,8.285
			c1.684,1.803,3.174,3.893,4.502,6.017c0.262,0.44,0.559,0.923,0.821,1.346c0.372,0.592,0.686,1.075,0.753,1.185
			c0.169,0.288,2.454,3.732,2.293,3.952c1.566-2.201,3.131-4.401,4.697-6.593c0.042-0.059-0.025-0.262-0.161-0.55
			c-0.347-0.753-1.176-2.056-1.676-2.835l-0.355-0.559l-0.025-0.051c-0.051-0.076-0.262-0.406-0.533-0.829
			c-0.525-0.821-1.27-2.006-1.6-2.649l9.851-15.758c2.463,0.516,4.553,0.592,5.552,0.592h0.246c13.896,0,28.267-8.015,28.267-21.437
			v-0.322c-0.169-3.656-0.855-7.143-1.405-9.944c-0.364-1.845-0.702-3.588-0.702-4.46c0-1.464,2.065-3.097,5.027-3.097h4.494
			l-2.031-11.645c6.322-4.655,10.206-12.238,10.012-19.482c6.813,5.23,11.62,14.286,12.5,23.934
			c0.254,2.793-0.296,6.711-1.202,10.833l-0.491,1.718l0.085,0.025c-1.608,6.72-3.986,13.643-5.239,16.918l-1.168,3.03l2.827,1.6
			c5.078,2.869,8.192,4.968,8.192,11.645c0,7.659-6.898,13.533-13.558,14.777l-9.106,1.701l7.702,5.146
			c2.471,1.642,3.944,4.333,3.944,7.177c0,4.807-4.088,8.726-9.115,8.726h-2.903l-0.821,2.666
			c-2.827,9.208-5.899,13.71-15.767,14.667c0.449-2.793,0.77-5.484,0.77-9.293c0-0.897-0.076-3.402-0.118-4.206l-0.44-8.582
			l-6.034,6.127c-2.048,2.082-5.679,3.732-9.674,4.519v-7.49l-43.179-11.205l-15.361,3.986
			C24.45,109.674,23.756,104.012,24.611,102.692 M71.243,74.958c0.11-0.516,0.533-0.931,0.982-0.923l6.5,0.212
			c7.93-0.279,16.004-3.546,16.918-11.798c0-5.586-3.969-11.028-9.572-11.028c-2.996,0-6.364,2.065-10.147,4.57
			c-2.463,1.642-4.418,2.928-5.89,2.928c-0.999,0-1.811-0.669-1.811-1.21l0.051-0.279l4.155-5.56l-3.588-2.412
			c-0.77-0.499-1.955-1.447-2.09-2.15c-0.068-0.33,0.415-0.931,0.567-1.109c1.49-1.735,3.199-3.851,4.917-6.457
			c1.066-1.481,1.676-2.302,3.453-2.302c1.76,0,3.191,1.413,3.191,3.14c0,1.142,1.261,2.048,2.818,2.048
			c1.557,0,2.26-1.109,3.224-2.048c0,0,3.699-3.402,1.743-5.01c-2.243-1.828-11.214,1.913-8.717-6.322l0.626-1.176
			c0.956-1.269,5.247-4.443,14.108-4.443c1.676,0,3.453,0.118,5.264,0.338l1.329,0.169l18.814-11.603
			c0.169,0.398,0.22,0.677,0.22,0.677l0.025,0.119c0.982,5.696-2.615,12.475-8.353,15.767l-2.294,1.312l1.481,8.489
			c-4.833,1.481-8.201,5.357-8.201,10.012c0,1.608,0.372,3.504,0.846,5.907c0.525,2.674,1.117,5.696,1.27,8.768
			c0,8.827-12.187,14.675-22.495,14.337l-0.262-0.008c-0.432-0.008-6.991-0.533-8.599-1.803
			C71.404,75.881,71.158,75.356,71.243,74.958 M86.832,16.029c1.193-1.515,3.123-3.199,5.433-4.722
			c1.803-1.193,4.155-2.251,6.457-2.92c3.648-1.049,7.837-1.117,12.17-0.288l-13.346,8.235c-1.659-0.169-3.292-0.262-4.866-0.262
			c-2.26,0-4.342,0.186-6.254,0.491L86.832,16.029 M290.185,14.091h50.322c-4.714,6.644-11.425,9.783-20.718,9.783h-37.145
			C285.607,21.276,288.12,18.01,290.185,14.091 M287.663,42.544h-37.145c3.284-2.877,6.017-6.601,8.201-11.121h50.542
			C304.505,38.981,297.548,42.544,287.663,42.544 M258.101,60.808h-37.145c3.174-2.801,5.84-6.381,7.989-10.714h50.474
			C274.681,57.363,267.8,60.808,258.101,60.808 M266.641,89.151c11.764,1.938,21.403,7.236,28.639,15.742
			c1.549,1.82,3.038,3.758,4.511,5.848c-19.795-2.598-26.684-5.476-37.754-22.284C263.509,88.652,265.033,88.88,266.641,89.151
			 M345.628,170.618c0.728,1.168,1.346,2.268,1.947,3.326c0.736,1.303,1.464,2.581,2.31,3.902c-5.73-0.355-10.071-3.529-14.083-9.53
			C339.5,167.021,343.977,167.935,345.628,170.618 M298.564,196.481l7.718-2.92l0.11-0.042c10.96-4.536,12.517-7.371,12.009-14.658
			V149.4c8.336,21.175,16.216,36.062,32.38,36.053c2.201,0,4.553-0.271,7.075-0.838l6.305-1.43l-4.342-4.782
			c-2.768-3.055-4.113-5.425-5.662-8.167c-0.635-1.126-1.295-2.293-2.09-3.58c-3.783-6.136-12.779-8.218-20.066-4.951
			c-3.309-6.567-6.635-15.124-10.638-25.686l-0.872-2.014c-0.694-1.574-1.388-3.165-2.09-4.756v-0.262h-0.118
			c-2.48-5.577-5.129-11.171-8.294-16.419c-2.878-4.765-5.806-8.878-8.946-12.568c-8.429-9.902-19.592-16.055-33.167-18.297
			c-9.386-1.549-16.038-1.879-24.45-2.294c-1.743-0.076-3.571-0.178-5.51-0.279c-3.808-0.212-11.679-0.846-19.296-1.481
			c-5.129-0.415-10.393-0.846-14.531-1.151c0.279-1.168,0.44-2.37,0.44-3.622c0-1.684-0.152-3.182-0.449-4.519h54.02
			c13.922,0,24.002-6.161,29.993-18.272c13.846-0.127,23.858-6.407,29.773-18.661h1.921c14.413,0,24.721-6.576,30.628-19.55
			l2.437-5.34H169.83c-12.026,0-22.267,7.854-26.092,19.982l-0.118,0.423c-3.115-8.675-8.81-16.038-16.114-20.379
			c-10.147-6.043-21.691-8.065-30.891-5.425c-3.038,0.88-6.068,2.251-8.522,3.876c-2.116,1.388-5.069,3.631-7.228,6.381
			c-2.336,2.996-4.595,6.627-6.254,10.02c-1.058,0.872-1.87,1.752-2.437,2.615l-2.192,4.113l-0.118,0.229
			c-2.615,5.924-5.806,10.029-8.294,12.923c-2.463,2.877-2.59,5.611-2.26,7.397c0.364,1.946,1.413,3.546,2.531,4.748l-0.068,0.11
			c-0.728,1.261-1.109,2.7-1.109,4.164c0,4.824,4.198,8.48,9.369,8.48c3.758,0,6.83-1.752,10.08-3.901
			c1.32-0.88,4.815-3.199,5.958-3.326c1.447,0,2.767,1.32,2.767,2.767c0,3.952-5.103,6.085-8.759,6.347l-7.431,0.796
			c-5.349,0.508-7.888,3.343-7.888,5.874c0,2.547,1.219,3.978,2.074,4.832l0.55,0.559l1.887,1.684l-7.888,12.695
			c-5.62-5.205-12.195-8.362-18.027-8.539c-3.766-0.127-7.024,1.007-9.419,3.275c-0.694,0.66-1.303,1.413-1.828,2.234h-0.135
			c-6.229,0-11.239,3.335-13.693,7.084c-2.666,4.096-1.71,11.18,1.676,16.588l-19.897,5.163v95.118H365v-18.958H298.564z"/>
		<polygon class="st0" points="70.964,135.944 47.165,129.766 47.165,137.561 70.964,143.747 		"/>
		<polygon class="st0" points="15.516,143.744 39.315,137.566 39.315,129.762 15.516,135.941 		"/>
		<polygon class="st0" points="15.516,159.419 39.315,153.25 39.315,145.438 15.516,151.616 		"/>
		<polygon class="st0" points="70.964,151.615 47.165,145.446 47.165,153.249 70.964,159.418 		"/>
		<polygon class="st0" points="70.964,167.304 47.165,161.117 47.165,168.92 70.964,175.098 		"/>
		<polygon class="st0" points="15.516,175.1 39.315,168.922 39.315,161.119 15.516,167.305 		"/>
	</g>
</g>
</svg>
