<?xml version="1.0" encoding="utf-8"?>
<!-- Generator: Adobe Illustrator 19.2.0, SVG Export Plug-In . SVG Version: 6.00 Build 0)  -->
<svg version="1.1" id="Layer_1" xmlns="http://www.w3.org/2000/svg" xmlns:xlink="http://www.w3.org/1999/xlink" x="0px" y="0px"
	 viewBox="0 0 374.862 72.935" style="enable-background:new 0 0 374.862 72.935;" xml:space="preserve">
<style type="text/css">
	.st0{fill:#25249B;}
	.st1{fill:#E60B2A;}
</style>
<g>
	<path class="st0" d="M88.102,0.493v11.763c-0.023,0-0.053,0.038-0.088,0.113s-0.067,0.113-0.097,0.113
		c-0.041,0-0.076-0.075-0.105-0.226c-0.246-2.208-0.494-3.969-0.743-5.281c-0.249-1.312-0.636-2.457-1.16-3.437
		s-1.258-1.719-2.202-2.22c-0.387-0.2-0.841-0.3-1.362-0.3c-0.082,0-0.284,0.007-0.606,0.021c-0.322,0.015-0.627,0.021-0.914,0.021
		l0.079,27.976h3.665v0.482H74.347v-0.482h3.498L77.801,1.062c-0.146,0-0.369-0.007-0.668-0.021
		c-0.299-0.014-0.519-0.021-0.659-0.021c-0.527,0-0.935,0.086-1.222,0.257c-0.855,0.515-1.55,1.174-2.083,1.979
		s-0.936,1.685-1.208,2.643s-0.456,1.796-0.549,2.515c-0.094,0.718-0.243,2.061-0.448,4.026h-0.211V0.493H88.102z"/>
	<path class="st0" d="M94.869,1.062V14.24c0.012-0.572,0.198-1.178,0.558-1.817s0.888-1.178,1.582-1.614s1.504-0.654,2.43-0.654
		c1.148,0,2.12,0.318,2.914,0.955s1.191,1.751,1.191,3.345v14.583h2.663v0.568h-7.629V29.08h2.479V13.661
		c0-0.8-0.142-1.512-0.426-2.134s-0.681-0.933-1.191-0.933c-0.721,0-1.433,0.237-2.136,0.713s-1.285,1.205-1.745,2.188
		s-0.69,2.182-0.69,3.597v11.945h2.338v0.525c-0.551-0.029-1.559-0.043-3.023-0.043c-0.914,0-1.783,0.005-2.606,0.016
		s-1.419,0.02-1.789,0.027l0.07-0.525h2.487V1.587h-2.593l0.035-0.482L94.869,1.062z"/>
	<path class="st0" d="M113.81,10.498c0.633,0.279,1.15,0.683,1.551,1.211c0.401,0.529,0.795,1.194,1.182,1.995
		c0.721,1.458,1.081,3.392,1.081,5.801h-8.604c0,3.149,0.167,5.62,0.501,7.412c0.234,1.1,1.04,1.86,2.417,2.282
		c0.305,0.093,0.615,0.139,0.932,0.139c1.266,0,2.285-0.585,3.059-1.755c0.85-1.256,1.389-2.615,1.617-4.078h0.255
		c-0.422,2.959-1.418,4.861-2.988,5.705c-0.551,0.322-1.198,0.482-1.942,0.482c-0.92,0-1.831-0.278-2.733-0.835
		c-2.543-1.472-3.814-4.269-3.814-8.392c0-0.686,0.035-1.357,0.105-2.015c0.135-1.193,0.347-2.27,0.637-3.231
		s0.713-1.842,1.27-2.642c0.557-0.8,1.266-1.461,2.127-1.982c0.574-0.357,1.137-0.536,1.688-0.536
		C112.553,10.058,113.106,10.205,113.81,10.498z M113.95,11.205c-0.504-0.615-1.069-0.922-1.696-0.922
		c-0.527,0-0.993,0.204-1.397,0.611c-0.785,0.758-1.288,1.691-1.507,2.799s-0.33,2.488-0.33,4.139v1.104h6.152
		c0-0.25,0.006-0.625,0.018-1.125s0.018-0.886,0.018-1.158C115.207,14.107,114.788,12.292,113.95,11.205z"/>
	<path class="st0" d="M128.496,0.579h17.095v9.704h-0.281c-0.123-1.473-0.223-2.536-0.299-3.19
		c-0.076-0.654-0.227-1.389-0.453-2.204s-0.561-1.528-1.006-2.139s-1.025-1.028-1.74-1.249c-0.984-0.293-2.124-0.44-3.419-0.44
		c-0.193,0-0.604,0.007-1.23,0.021c-0.627,0.015-1.213,0.021-1.758,0.021l-0.501,0.129v12.213c0.469,0,1.033,0.005,1.692,0.016
		s1.162,0.02,1.507,0.027c0.645,0,1.122-0.339,1.433-1.019s0.529-1.476,0.655-2.391s0.248-1.812,0.365-2.691l0.176,0.042v13.082
		h-0.211c-0.088-0.779-0.167-1.489-0.237-2.128c-0.07-0.64-0.176-1.253-0.316-1.839c-0.141-0.586-0.362-1.074-0.664-1.463
		s-0.702-0.584-1.2-0.584h-3.199v14.454c0.34,0,0.853,0.015,1.538,0.043c0.686,0.029,1.204,0.043,1.556,0.043
		c1.148,0,2.167-0.15,3.054-0.451c0.888-0.3,1.683-0.868,2.386-1.705c0.469-0.55,0.845-1.16,1.129-1.828s0.492-1.33,0.624-1.984
		s0.242-1.397,0.33-2.23c0.088-0.833,0.173-1.628,0.255-2.386h0.211v11.109l-17.675,0.043v-0.568h3.349l0.325-0.482V1.233
		c-0.393-0.086-0.968-0.143-1.727-0.172c-0.759-0.028-1.346-0.043-1.762-0.043V0.579z"/>
	<path class="st0" d="M169.251,0.493v0.482c-2.549,0-3.823,0.979-3.823,2.938v19.805c0,1.98-0.826,3.606-2.479,4.878
		c-0.885,0.672-2.121,1.008-3.709,1.008c-1.031,0-2.038-0.167-3.019-0.499c-0.981-0.333-1.8-0.81-2.457-1.432
		c-1.465-1.373-2.197-3.027-2.197-4.965V1.019h-3.384l0.044-0.482h9.791v0.482h-3.568v23.933c0,0.872,0.243,1.635,0.729,2.29
		c0.486,0.654,1.106,1.149,1.862,1.485c0.708,0.293,1.44,0.439,2.195,0.439c1.124,0,2.182-0.275,3.174-0.826
		c0.993-0.55,1.661-1.315,2.007-2.294c0.263-0.843,0.395-2.026,0.395-3.549V4.182c0-2.166-1.007-3.249-3.021-3.249
		c-0.229,0-0.426,0.011-0.593,0.032c-0.167,0.021-0.283,0.039-0.347,0.053V0.493H169.251z"/>
	<path class="st0" d="M170.517,0.536h13.317c0.837,0,1.567,0.318,2.188,0.955s1.089,1.473,1.406,2.509
		c0.433,1.208,0.65,2.513,0.65,3.914c0,1.129-0.167,2.08-0.501,2.852c-0.281,0.801-0.687,1.46-1.217,1.979
		c-0.53,0.518-1.066,0.908-1.608,1.168c-0.542,0.261-1.282,0.56-2.219,0.896c0.961,0.365,1.635,0.638,2.021,0.82
		c0.387,0.182,0.795,0.488,1.226,0.917c0.431,0.429,0.751,0.99,0.962,1.684c0.316,1.029,0.549,2.438,0.699,4.225
		c0.149,1.787,0.316,3.122,0.501,4.005c0.185,0.883,0.625,1.714,1.323,2.493c0.146,0.171,0.58,0.257,1.301,0.257
		c0.281,0,0.546-0.011,0.795-0.032s0.426-0.039,0.532-0.054v0.483h-1.512c-1.26,0-2.317-0.183-3.173-0.547
		c-0.855-0.365-1.477-1.104-1.863-2.22c-0.375-0.986-0.661-2.643-0.857-4.97c-0.196-2.327-0.419-3.998-0.668-5.013
		c-0.249-1.015-0.81-1.522-1.683-1.522H177.1v13.704h2.909v0.525l-9.492-0.043v-0.482h3.489V1.019h-3.489V0.536z M184.834,4
		c-0.357-1.144-1.002-1.905-1.934-2.284s-2.109-0.568-3.533-0.568c-0.27,0-0.659,0.007-1.169,0.021S177.322,1.19,177.1,1.19v13.307
		c0.094,0.007,0.264,0.016,0.51,0.027s0.542,0.016,0.888,0.016c1.295,0,2.515-0.105,3.661-0.316s1.871-0.588,2.175-1.131
		c0.721-1.308,1.081-3.006,1.081-5.093C185.414,6.62,185.221,5.286,184.834,4z"/>
	<path class="st0" d="M199.125,0.836c1.125,0,2.163,0.418,3.116,1.254c0.951,0.836,1.762,1.87,2.43,3.099
		c0.732,1.33,1.293,2.933,1.684,4.809c0.389,1.876,0.584,3.83,0.584,5.86c0,3.667-0.574,6.669-1.723,9.007
		c-0.539,1.115-1.374,2.184-2.505,3.206c-1.131,1.022-2.432,1.534-3.902,1.534c-1.465,0-2.577-0.297-3.335-0.89
		c-0.76-0.593-1.581-1.658-2.466-3.195c-0.551-1.022-1.012-2.107-1.384-3.254s-0.655-2.354-0.848-3.619
		c-0.193-1.266-0.29-2.531-0.29-3.796c0-3.667,0.721-6.831,2.162-9.49C194.247,2.431,196.406,0.922,199.125,0.836z M199.16,1.405
		c-1.166,0.021-2.087,0.345-2.765,0.971c-0.676,0.626-1.108,1.253-1.296,1.883c-0.375,1.316-0.674,3.085-0.896,5.31
		s-0.334,4.48-0.334,6.769c0,3.461,0.229,6.243,0.686,8.346c0.217,0.937,0.46,1.614,0.729,2.033s0.639,0.856,1.107,1.314
		c0.709,0.644,1.477,0.965,2.303,0.965c0.873,0,1.726-0.351,2.558-1.051c0.434-0.393,0.837-0.94,1.208-1.641
		c0.373-0.701,0.582-1.402,0.629-2.103c0.146-2.16,0.261-4.014,0.343-5.562c0.082-1.548,0.123-3.062,0.123-4.542
		c0-3.948-0.322-7.255-0.967-9.922c-0.146-0.687-0.56-1.319-1.239-1.899C200.669,1.694,199.939,1.405,199.16,1.405z"/>
	<path class="st1" d="M216.554,0.097C216.987,0.032,217.263,0,217.38,0c1.969,0,3.627,1.037,4.975,3.11
		c0.264-0.129,0.566-0.413,0.91-0.853c0.342-0.44,0.66-0.836,0.953-1.19s0.571-0.566,0.835-0.638v11.341h-0.22
		c-0.498-2.117-0.894-3.696-1.187-4.737c-0.293-1.041-0.753-2.125-1.38-3.251s-1.45-2.051-2.47-2.774
		c-0.832-0.558-1.696-0.837-2.593-0.837c-1.102,0-1.907,0.455-2.417,1.362c-0.691,1.209-1.214,2.414-1.569,3.615
		c-0.354,1.201-0.588,2.44-0.703,3.717c-0.113,1.276-0.171,2.772-0.171,4.489c0,2.01,0.048,3.873,0.146,5.589
		c0.096,1.716,0.268,3.322,0.514,4.816c0.246,1.495,0.589,2.814,1.028,3.958c0.205,0.508,0.65,0.935,1.336,1.282
		c0.686,0.347,1.418,0.52,2.197,0.52c0.562,0,1.09-0.089,1.582-0.268c1.236-0.429,2.086-1.508,2.549-3.238s0.694-3.678,0.694-5.844
		c0-0.829-0.02-1.501-0.057-2.016c-0.039-0.515-0.069-0.883-0.093-1.104h-3.744v-0.526h10.116v0.526h-3.885l0.035,12.953
		c-0.352-0.986-0.635-1.678-0.848-2.075c-0.215-0.397-0.432-0.704-0.65-0.922c-0.221-0.218-0.488-0.477-0.805-0.777
		c-1.008,2.288-2.329,3.545-3.964,3.774c-0.387,0.057-0.686,0.086-0.896,0.086c-2.01,0-3.762-1.04-5.256-3.12
		c-1.049-1.423-1.827-3.165-2.333-5.228c-0.508-2.062-0.761-4.241-0.761-6.536c0-3.367,0.478-6.501,1.433-9.404
		c0.557-1.658,1.346-2.98,2.369-3.967C214.073,0.847,215.241,0.268,216.554,0.097z"/>
	<path class="st1" d="M227.76,0.536h13.317c0.838,0,1.566,0.318,2.188,0.955s1.09,1.473,1.406,2.509
		c0.433,1.208,0.649,2.513,0.649,3.914c0,1.129-0.167,2.08-0.501,2.852c-0.281,0.801-0.688,1.46-1.217,1.979
		c-0.531,0.518-1.066,0.908-1.609,1.168c-0.541,0.261-1.281,0.56-2.219,0.896c0.961,0.365,1.635,0.638,2.021,0.82
		c0.387,0.182,0.795,0.488,1.227,0.917c0.43,0.429,0.751,0.99,0.962,1.684c0.316,1.029,0.55,2.438,0.698,4.225
		c0.15,1.787,0.316,3.122,0.502,4.005c0.184,0.883,0.625,1.714,1.322,2.493c0.146,0.171,0.58,0.257,1.301,0.257
		c0.281,0,0.547-0.011,0.795-0.032c0.25-0.021,0.427-0.039,0.532-0.054v0.483h-1.512c-1.26,0-2.317-0.183-3.173-0.547
		c-0.855-0.365-1.477-1.104-1.863-2.22c-0.375-0.986-0.66-2.643-0.857-4.97c-0.195-2.327-0.418-3.998-0.668-5.013
		c-0.248-1.015-0.81-1.522-1.683-1.522h-5.036v13.704h2.909v0.525l-9.492-0.043v-0.482h3.489V1.019h-3.489V0.536z M242.077,4
		c-0.357-1.144-1.002-1.905-1.934-2.284s-2.109-0.568-3.533-0.568c-0.27,0-0.659,0.007-1.169,0.021s-0.876,0.021-1.099,0.021v13.307
		c0.094,0.007,0.264,0.016,0.51,0.027s0.542,0.016,0.888,0.016c1.295,0,2.515-0.105,3.661-0.316c1.145-0.211,1.87-0.588,2.175-1.131
		c0.721-1.308,1.081-3.006,1.081-5.093C242.657,6.62,242.464,5.286,242.077,4z"/>
	<path class="st1" d="M256.368,0.836c1.125,0,2.164,0.418,3.115,1.254c0.953,0.836,1.763,1.87,2.431,3.099
		c0.732,1.33,1.294,2.933,1.683,4.809c0.391,1.876,0.585,3.83,0.585,5.86c0,3.667-0.574,6.669-1.723,9.007
		c-0.539,1.115-1.374,2.184-2.505,3.206c-1.131,1.022-2.432,1.534-3.902,1.534c-1.465,0-2.576-0.297-3.336-0.89
		c-0.758-0.593-1.58-1.658-2.465-3.195c-0.551-1.022-1.012-2.107-1.385-3.254c-0.371-1.147-0.654-2.354-0.848-3.619
		c-0.193-1.266-0.29-2.531-0.29-3.796c0-3.667,0.721-6.831,2.162-9.49C251.49,2.431,253.649,0.922,256.368,0.836z M256.403,1.405
		c-1.166,0.021-2.088,0.345-2.764,0.971c-0.678,0.626-1.109,1.253-1.297,1.883c-0.375,1.316-0.674,3.085-0.896,5.31
		s-0.334,4.48-0.334,6.769c0,3.461,0.229,6.243,0.686,8.346c0.217,0.937,0.46,1.614,0.729,2.033s0.639,0.856,1.107,1.314
		c0.709,0.644,1.477,0.965,2.303,0.965c0.873,0,1.726-0.351,2.558-1.051c0.434-0.393,0.836-0.94,1.209-1.641
		c0.371-0.701,0.581-1.402,0.628-2.103c0.146-2.16,0.261-4.014,0.343-5.562c0.082-1.548,0.123-3.062,0.123-4.542
		c0-3.948-0.322-7.255-0.967-9.922c-0.146-0.687-0.56-1.319-1.239-1.899C257.912,1.694,257.183,1.405,256.403,1.405z"/>
	<path class="st1" d="M284.669,0.493v0.482c-2.549,0-3.823,0.979-3.823,2.938v19.805c0,1.98-0.826,3.606-2.479,4.878
		c-0.885,0.672-2.121,1.008-3.709,1.008c-1.031,0-2.038-0.167-3.019-0.499c-0.982-0.333-1.801-0.81-2.457-1.432
		c-1.465-1.373-2.197-3.027-2.197-4.965V1.019h-3.384l0.044-0.482h9.791v0.482h-3.568v23.933c0,0.872,0.243,1.635,0.729,2.29
		c0.486,0.654,1.107,1.149,1.862,1.485c0.708,0.293,1.44,0.439,2.195,0.439c1.124,0,2.183-0.275,3.175-0.826
		c0.992-0.55,1.66-1.315,2.006-2.294c0.264-0.843,0.396-2.026,0.396-3.549V4.182c0-2.166-1.007-3.249-3.021-3.249
		c-0.229,0-0.426,0.011-0.594,0.032c-0.166,0.021-0.282,0.039-0.346,0.053V0.493H284.669z"/>
	<path class="st1" d="M286.383,0.579c0.404,0,0.961-0.007,1.671-0.021c0.709-0.014,1.411-0.032,2.105-0.054
		c0.695-0.021,1.335-0.038,1.922-0.048c0.586-0.011,1.063-0.016,1.434-0.016c1.547,0,2.919,0.083,4.115,0.247
		c1.195,0.165,2.26,0.475,3.191,0.933c0.933,0.458,1.691,1.126,2.277,2.005c0.587,0.879,0.947,2.001,1.082,3.367
		c0.047,0.529,0.07,0.894,0.07,1.094c0,2.138-0.756,4.085-2.268,5.844c-1.066,1.229-2.854,1.844-5.361,1.844
		c-0.439,0-1.726-0.089-3.858-0.268v12.256c0,0.851,1.225,1.276,3.674,1.276v0.482l-9.94,0.043v-0.525
		c0.551,0,1.24-0.095,2.07-0.284c0.828-0.189,1.243-0.591,1.243-1.207l-0.044-26.485h-3.384V0.579z M300.762,3.69
		c-0.199-0.779-0.661-1.368-1.384-1.765c-0.725-0.397-1.517-0.649-2.378-0.756s-1.828-0.161-2.9-0.161h-1.336v13.843
		c1.98,0.236,3.193,0.354,3.639,0.354c2.033,0,3.401-0.615,4.104-1.845c0.627-1.066,0.94-2.59,0.94-4.572
		C301.447,7.064,301.219,5.365,300.762,3.69z"/>
	<path class="st0" d="M0,43.736h9.817v0.482H6.434v28.019h3.384v0.525H0v-0.525h3.27V44.219H0V43.736z"/>
	<path class="st0" d="M11.584,43.736h5.977l9.65,21.521V47.199c0-1.986-1.151-2.98-3.454-2.98v-0.482h7.629v0.482
		c-2.426,0-3.639,0.848-3.639,2.541v25.96h-0.431L15.759,46.985v21.606c0,1.587,0.806,2.698,2.417,3.334
		c0.258,0.101,0.542,0.163,0.853,0.188c0.311,0.024,0.554,0.037,0.729,0.037v0.611l-8.314-0.043v-0.568
		c0.908,0,1.494-0.028,1.758-0.086c0.586-0.1,1.031-0.586,1.336-1.458s0.501-1.923,0.589-3.152s0.132-2.652,0.132-4.268V45.881
		c0-1.107-1.225-1.662-3.674-1.662V43.736z"/>
	<path class="st0" d="M50.897,43.693v11.763c-0.023,0-0.053,0.038-0.088,0.112c-0.035,0.075-0.067,0.113-0.097,0.113
		c-0.041,0-0.076-0.075-0.105-0.226c-0.246-2.208-0.494-3.969-0.743-5.28c-0.249-1.312-0.636-2.457-1.16-3.438
		c-0.524-0.979-1.258-1.719-2.202-2.219c-0.387-0.2-0.841-0.301-1.362-0.301c-0.082,0-0.284,0.008-0.606,0.021
		c-0.322,0.015-0.627,0.021-0.914,0.021l0.079,27.976h3.665v0.482H37.143v-0.482h3.498l-0.044-27.976
		c-0.146,0-0.369-0.007-0.668-0.021c-0.299-0.014-0.519-0.021-0.659-0.021c-0.527,0-0.935,0.086-1.222,0.258
		c-0.855,0.514-1.55,1.174-2.083,1.979c-0.533,0.804-0.936,1.685-1.208,2.643s-0.456,1.796-0.549,2.515
		c-0.094,0.718-0.243,2.061-0.448,4.026h-0.211V43.693H50.897z"/>
	<path class="st0" d="M52.805,43.779h17.095v9.704h-0.281c-0.123-1.473-0.223-2.536-0.299-3.19s-0.227-1.389-0.453-2.203
		s-0.561-1.527-1.006-2.139s-1.025-1.028-1.74-1.25c-0.984-0.293-2.124-0.439-3.419-0.439c-0.193,0-0.604,0.008-1.23,0.021
		c-0.627,0.015-1.213,0.021-1.758,0.021l-0.501,0.129v12.213c0.469,0,1.033,0.005,1.692,0.016s1.162,0.021,1.507,0.027
		c0.645,0,1.122-0.34,1.433-1.019c0.311-0.68,0.529-1.476,0.655-2.392c0.126-0.914,0.248-1.812,0.365-2.691l0.176,0.043v13.082
		h-0.211c-0.088-0.779-0.167-1.489-0.237-2.129s-0.176-1.253-0.316-1.839s-0.362-1.074-0.664-1.464
		c-0.302-0.389-0.702-0.584-1.2-0.584h-3.199v14.454c0.34,0,0.853,0.015,1.538,0.043s1.204,0.043,1.556,0.043
		c1.148,0,2.167-0.15,3.054-0.45c0.888-0.301,1.683-0.869,2.386-1.705c0.469-0.551,0.845-1.16,1.129-1.828
		c0.284-0.669,0.492-1.33,0.624-1.983c0.132-0.654,0.242-1.397,0.33-2.23s0.173-1.628,0.255-2.386h0.211v11.108L52.62,72.806v-0.568
		h3.349l0.325-0.482V44.434c-0.393-0.086-0.968-0.143-1.727-0.172c-0.759-0.028-1.346-0.043-1.762-0.043V43.779z"/>
	<path class="st0" d="M72.36,43.736h13.317c0.837,0,1.567,0.318,2.188,0.955c0.621,0.636,1.089,1.473,1.406,2.508
		c0.433,1.209,0.65,2.514,0.65,3.914c0,1.13-0.167,2.08-0.501,2.853c-0.281,0.801-0.687,1.46-1.217,1.979s-1.066,0.907-1.608,1.169
		c-0.542,0.261-1.282,0.559-2.219,0.895c0.961,0.365,1.635,0.639,2.021,0.82c0.387,0.183,0.795,0.488,1.226,0.917
		s0.751,0.99,0.962,1.684c0.316,1.029,0.549,2.438,0.699,4.225s0.316,3.122,0.501,4.005s0.625,1.714,1.323,2.493
		c0.146,0.172,0.58,0.258,1.301,0.258c0.281,0,0.546-0.011,0.795-0.032s0.426-0.04,0.532-0.054v0.482h-1.512
		c-1.26,0-2.317-0.183-3.173-0.547s-1.477-1.104-1.863-2.22c-0.375-0.986-0.661-2.644-0.857-4.97
		c-0.196-2.327-0.419-3.998-0.668-5.013c-0.249-1.016-0.81-1.523-1.683-1.523h-5.036v13.704h2.909v0.525L72.36,72.72v-0.482h3.489
		V44.219H72.36V43.736z M86.678,47.199c-0.357-1.143-1.002-1.904-1.934-2.283s-2.109-0.568-3.533-0.568
		c-0.27,0-0.659,0.008-1.169,0.021s-0.876,0.021-1.099,0.021v13.307c0.094,0.007,0.264,0.016,0.51,0.026s0.542,0.017,0.888,0.017
		c1.295,0,2.515-0.105,3.661-0.316s1.871-0.588,2.175-1.131c0.721-1.309,1.081-3.006,1.081-5.094
		C87.258,49.82,87.064,48.486,86.678,47.199z"/>
	<path class="st0" d="M95.467,43.736h5.977l9.65,21.521V47.199c0-1.986-1.151-2.98-3.454-2.98v-0.482h7.629v0.482
		c-2.426,0-3.639,0.848-3.639,2.541v25.96h-0.431L99.642,46.985v21.606c0,1.587,0.806,2.698,2.417,3.334
		c0.258,0.101,0.542,0.163,0.853,0.188c0.311,0.024,0.554,0.037,0.729,0.037v0.611l-8.314-0.043v-0.568
		c0.908,0,1.494-0.028,1.758-0.086c0.586-0.1,1.031-0.586,1.336-1.458s0.501-1.923,0.589-3.152s0.132-2.652,0.132-4.268V45.881
		c0-1.107-1.225-1.662-3.674-1.662V43.736z"/>
	<path class="st0" d="M125.196,44.305c0.252,0.915,1.168,4.369,2.748,10.363c1.58,5.994,2.614,9.917,3.104,11.769
		s1.001,3.785,1.534,5.801h2.911l-0.105,0.482l-9.505,0.043l0.035-0.525h3.35l-2.128-8.836h-6.981l-1.697,6.42
		c-0.047,0.287-0.07,0.477-0.07,0.569c0,1.231,1.26,1.847,3.781,1.847v0.482h-7.922v-0.482c1.853,0,3.004-0.865,3.456-2.595
		c0.463-1.823,1.196-4.713,2.198-8.67c1.002-3.956,1.952-7.724,2.849-11.301c0.897-3.578,1.375-5.543,1.433-5.893
		c0.023-0.093,0.097-0.14,0.22-0.14c0.141,0,0.292,0.064,0.453,0.193C125.019,43.961,125.131,44.119,125.196,44.305z
		 M126.963,62.748l-3.42-13.35l-3.209,13.35H126.963z"/>
	<path class="st0" d="M154.292,43.693v11.763c-0.023,0-0.053,0.038-0.088,0.112c-0.035,0.075-0.067,0.113-0.097,0.113
		c-0.041,0-0.076-0.075-0.105-0.226c-0.246-2.208-0.494-3.969-0.743-5.28c-0.249-1.312-0.636-2.457-1.16-3.438
		c-0.524-0.979-1.258-1.719-2.202-2.219c-0.387-0.2-0.841-0.301-1.362-0.301c-0.082,0-0.284,0.008-0.606,0.021
		c-0.322,0.015-0.627,0.021-0.914,0.021l0.079,27.976h3.665v0.482h-10.222v-0.482h3.498l-0.044-27.976
		c-0.146,0-0.369-0.007-0.668-0.021c-0.299-0.014-0.519-0.021-0.659-0.021c-0.527,0-0.935,0.086-1.222,0.258
		c-0.855,0.514-1.55,1.174-2.083,1.979c-0.533,0.804-0.936,1.685-1.208,2.643s-0.456,1.796-0.549,2.515
		c-0.094,0.718-0.243,2.061-0.448,4.026h-0.211V43.693H154.292z"/>
	<path class="st0" d="M155.812,43.736h9.817v0.482h-3.384v28.019h3.384v0.525h-9.817v-0.525h3.27V44.219h-3.27V43.736z"/>
	<path class="st0" d="M172.898,44.037c1.125,0,2.164,0.418,3.116,1.254s1.762,1.869,2.43,3.1c0.732,1.329,1.293,2.932,1.683,4.809
		c0.39,1.876,0.584,3.83,0.584,5.859c0,3.668-0.574,6.67-1.723,9.008c-0.539,1.115-1.374,2.184-2.505,3.206
		s-2.432,1.533-3.902,1.533c-1.465,0-2.577-0.297-3.335-0.891c-0.759-0.593-1.581-1.658-2.465-3.195
		c-0.551-1.021-1.012-2.106-1.384-3.254s-0.655-2.354-0.848-3.619c-0.193-1.265-0.29-2.53-0.29-3.796
		c0-3.667,0.721-6.83,2.162-9.489C168.021,45.631,170.18,44.123,172.898,44.037z M172.934,44.605
		c-1.166,0.021-2.087,0.345-2.764,0.971c-0.677,0.625-1.109,1.253-1.296,1.883c-0.375,1.315-0.674,3.085-0.896,5.309
		c-0.223,2.225-0.334,4.48-0.334,6.77c0,3.461,0.229,6.243,0.686,8.345c0.217,0.938,0.46,1.614,0.729,2.033
		c0.27,0.418,0.639,0.856,1.107,1.313c0.709,0.645,1.477,0.966,2.303,0.966c0.873,0,1.726-0.351,2.558-1.051
		c0.434-0.394,0.836-0.94,1.208-1.642s0.582-1.401,0.628-2.103c0.146-2.159,0.261-4.014,0.343-5.562
		c0.082-1.549,0.123-3.062,0.123-4.543c0-3.947-0.322-7.255-0.967-9.922c-0.146-0.688-0.56-1.32-1.239-1.899
		S173.713,44.605,172.934,44.605z"/>
	<path class="st0" d="M183.199,43.736h5.977l9.65,21.521V47.199c0-1.986-1.151-2.98-3.454-2.98v-0.482h7.629v0.482
		c-2.426,0-3.639,0.848-3.639,2.541v25.96h-0.431l-11.558-25.734v21.606c0,1.587,0.806,2.698,2.417,3.334
		c0.258,0.101,0.542,0.163,0.853,0.188c0.311,0.024,0.554,0.037,0.729,0.037v0.611l-8.314-0.043v-0.568
		c0.908,0,1.494-0.028,1.758-0.086c0.586-0.1,1.031-0.586,1.336-1.458s0.501-1.923,0.589-3.152s0.132-2.652,0.132-4.268V45.881
		c0-1.107-1.225-1.662-3.674-1.662V43.736z"/>
	<path class="st0" d="M212.929,44.305c0.252,0.915,1.168,4.369,2.748,10.363c1.579,5.994,2.613,9.917,3.104,11.769
		c0.488,1.852,1,3.785,1.533,5.801h2.911l-0.105,0.482l-9.505,0.043l0.035-0.525h3.35l-2.127-8.836h-6.982l-1.697,6.42
		c-0.047,0.287-0.07,0.477-0.07,0.569c0,1.231,1.261,1.847,3.781,1.847v0.482h-7.922v-0.482c1.853,0,3.004-0.865,3.455-2.595
		c0.463-1.823,1.196-4.713,2.199-8.67c1.002-3.956,1.951-7.724,2.848-11.301c0.897-3.578,1.375-5.543,1.434-5.893
		c0.023-0.093,0.097-0.14,0.221-0.14c0.141,0,0.291,0.064,0.452,0.193C212.751,43.961,212.864,44.119,212.929,44.305z
		 M214.696,62.748l-3.421-13.35l-3.21,13.35H214.696z"/>
	<path class="st0" d="M225.07,43.693h9.501v0.525h-3.278v28.019c1.688-0.05,3.065-0.159,4.136-0.327
		c1.068-0.168,2.031-0.525,2.887-1.072s1.503-1.371,1.942-2.472c0.768-1.895,1.356-4.808,1.767-8.739h0.255V72.72l-17.569,0.043
		V72.28h3.63v-0.751V44.219h-3.234L225.07,43.693z"/>
	<path class="st0" d="M270.976,43.822l6.249-0.043v0.482h-3.199v27.976h3.349v0.482h-9.677v-0.482h3.524V45.441
		c-0.445,2.002-1.118,4.99-2.019,8.964c-0.899,3.975-1.839,8.021-2.819,12.139c-0.979,4.117-1.527,6.176-1.645,6.176
		c-0.088,0-0.441-1.229-1.063-3.688s-1.409-5.694-2.361-9.704c-0.953-4.011-1.661-7.002-2.124-8.976
		c-0.463-1.973-0.824-3.52-1.082-4.643V70.35c0,0.479,0.135,0.854,0.404,1.126c0.27,0.272,0.611,0.46,1.025,0.563
		c0.413,0.104,0.84,0.16,1.279,0.171s0.773,0.021,1.002,0.027l0.035,0.568l-8.097-0.086v-0.482c2.373,0,3.56-0.644,3.56-1.93
		l0.035-24.202c0-0.557-0.191-0.951-0.576-1.184c-0.383-0.232-0.838-0.381-1.361-0.445c-0.525-0.064-1.127-0.137-1.807-0.215v-0.482
		h7.165l4.828,21.734h0.22L270.976,43.822z"/>
	<path class="st0" d="M285.003,44.037c1.125,0,2.163,0.418,3.115,1.254s1.763,1.869,2.431,3.1c0.732,1.329,1.293,2.932,1.683,4.809
		c0.39,1.876,0.585,3.83,0.585,5.859c0,3.668-0.574,6.67-1.723,9.008c-0.539,1.115-1.374,2.184-2.505,3.206
		s-2.432,1.533-3.902,1.533c-1.465,0-2.576-0.297-3.336-0.891c-0.758-0.593-1.58-1.658-2.465-3.195
		c-0.551-1.021-1.012-2.106-1.385-3.254c-0.371-1.147-0.654-2.354-0.848-3.619c-0.193-1.265-0.29-2.53-0.29-3.796
		c0-3.667,0.721-6.83,2.162-9.489C280.125,45.631,282.284,44.123,285.003,44.037z M285.038,44.605
		c-1.166,0.021-2.088,0.345-2.764,0.971c-0.678,0.625-1.109,1.253-1.297,1.883c-0.375,1.315-0.674,3.085-0.896,5.309
		c-0.223,2.225-0.334,4.48-0.334,6.77c0,3.461,0.229,6.243,0.686,8.345c0.217,0.938,0.46,1.614,0.729,2.033
		c0.27,0.418,0.639,0.856,1.107,1.313c0.709,0.645,1.477,0.966,2.303,0.966c0.873,0,1.726-0.351,2.558-1.051
		c0.434-0.394,0.836-0.94,1.209-1.642c0.371-0.701,0.581-1.401,0.628-2.103c0.146-2.159,0.261-4.014,0.343-5.562
		c0.082-1.549,0.123-3.062,0.123-4.543c0-3.947-0.322-7.255-0.967-9.922c-0.146-0.688-0.56-1.32-1.239-1.899
		S285.817,44.605,285.038,44.605z"/>
	<path class="st0" d="M315.571,43.736v0.482c-0.035-0.014-0.099-0.032-0.188-0.053c-0.092-0.021-0.207-0.033-0.348-0.033
		c-0.686,0-1.388,0.359-2.105,1.078s-1.287,2.071-1.709,4.059c-0.27,1.309-0.656,3.186-1.16,5.635
		c-0.504,2.448-1.166,5.647-1.986,9.597s-1.38,6.6-1.679,7.951c-0.082,0.321-0.275,0.482-0.58,0.482
		c-0.152,0-0.249-0.072-0.29-0.215c-0.275-1.051-0.966-3.735-2.07-8.053s-2.131-8.341-3.08-12.068s-1.655-6.507-2.118-8.337h-3.094
		v-0.568l9.861,0.043v0.482h-3.779l5.546,22.175l0.325,0.354l3.92-19.548c0.047-0.343,0.07-0.574,0.07-0.696
		c0-1.522-1.198-2.284-3.595-2.284v-0.525L315.571,43.736z"/>
	<path class="st0" d="M317.769,43.779h17.095v9.704h-0.281c-0.123-1.473-0.223-2.536-0.299-3.19s-0.228-1.389-0.453-2.203
		s-0.561-1.527-1.006-2.139s-1.025-1.028-1.74-1.25c-0.984-0.293-2.124-0.439-3.419-0.439c-0.193,0-0.604,0.008-1.23,0.021
		c-0.627,0.015-1.213,0.021-1.758,0.021l-0.501,0.129v12.213c0.469,0,1.033,0.005,1.691,0.016c0.66,0.011,1.162,0.021,1.508,0.027
		c0.645,0,1.122-0.34,1.433-1.019c0.311-0.68,0.528-1.476,0.655-2.392c0.125-0.914,0.247-1.812,0.364-2.691l0.176,0.043v13.082
		h-0.211c-0.088-0.779-0.167-1.489-0.237-2.129s-0.176-1.253-0.316-1.839s-0.362-1.074-0.664-1.464
		c-0.302-0.389-0.701-0.584-1.199-0.584h-3.199v14.454c0.34,0,0.853,0.015,1.538,0.043s1.204,0.043,1.556,0.043
		c1.148,0,2.166-0.15,3.055-0.45c0.887-0.301,1.683-0.869,2.386-1.705c0.469-0.551,0.845-1.16,1.13-1.828
		c0.283-0.669,0.492-1.33,0.623-1.983c0.133-0.654,0.242-1.397,0.33-2.23s0.173-1.628,0.255-2.386h0.211v11.108l-17.675,0.043
		v-0.568h3.349l0.325-0.482V44.434c-0.393-0.086-0.969-0.143-1.727-0.172c-0.76-0.028-1.347-0.043-1.763-0.043V43.779z"/>
	<path class="st0" d="M337.324,43.736h13.317c0.838,0,1.566,0.318,2.188,0.955c0.621,0.636,1.089,1.473,1.405,2.508
		c0.434,1.209,0.65,2.514,0.65,3.914c0,1.13-0.167,2.08-0.501,2.853c-0.281,0.801-0.688,1.46-1.218,1.979s-1.066,0.907-1.607,1.169
		c-0.543,0.261-1.282,0.559-2.22,0.895c0.961,0.365,1.635,0.639,2.021,0.82c0.387,0.183,0.796,0.488,1.226,0.917
		c0.432,0.429,0.752,0.99,0.963,1.684c0.316,1.029,0.549,2.438,0.699,4.225c0.148,1.787,0.316,3.122,0.5,4.005
		c0.186,0.883,0.626,1.714,1.323,2.493c0.146,0.172,0.58,0.258,1.301,0.258c0.281,0,0.546-0.011,0.796-0.032
		c0.248-0.021,0.426-0.04,0.531-0.054v0.482h-1.512c-1.26,0-2.317-0.183-3.173-0.547s-1.477-1.104-1.863-2.22
		c-0.375-0.986-0.661-2.644-0.856-4.97c-0.197-2.327-0.42-3.998-0.668-5.013c-0.25-1.016-0.811-1.523-1.684-1.523h-5.036v13.704
		h2.909v0.525l-9.492-0.043v-0.482h3.489V44.219h-3.489V43.736z M351.642,47.199c-0.357-1.143-1.002-1.904-1.934-2.283
		s-2.109-0.568-3.533-0.568c-0.27,0-0.659,0.008-1.169,0.021s-0.876,0.021-1.099,0.021v13.307c0.094,0.007,0.264,0.016,0.51,0.026
		s0.542,0.017,0.888,0.017c1.295,0,2.515-0.105,3.66-0.316s1.871-0.588,2.176-1.131c0.721-1.309,1.081-3.006,1.081-5.094
		C352.222,49.82,352.028,48.486,351.642,47.199z"/>
	<path class="st0" d="M365.933,43.736c1.359,0,2.482,0.289,3.371,0.869c0.887,0.578,1.662,1.443,2.324,2.594
		c0.797-0.699,1.503-1.693,2.118-2.98l0.035,10.455l-0.176-0.097c-0.375-1.823-0.685-3.199-0.927-4.128
		c-0.244-0.93-0.646-1.883-1.205-2.857c-0.56-0.977-1.313-1.765-2.263-2.365c-1.066-0.7-2.074-1.051-3.023-1.051
		c-0.539,0-1.043,0.101-1.512,0.301c-1.412,0.672-2.288,1.522-2.628,2.552c-0.334,0.972-0.501,1.733-0.501,2.284
		c0,0.65,0.179,1.176,0.536,1.576c1.037,1.244,2.32,2.344,3.85,3.303c1.529,0.958,3.012,1.887,4.447,2.787
		c1.436,0.901,2.541,1.948,3.318,3.142c0.775,1.194,1.164,2.788,1.164,4.783c0,0.464-0.012,0.829-0.035,1.094
		c-0.199,2.645-1.362,4.636-3.489,5.972c-0.814,0.529-1.702,0.794-2.663,0.794c-1.512,0-2.941-0.601-4.289-1.802
		c-0.287-0.242-0.584-0.562-0.893-0.959c-0.307-0.397-0.537-0.706-0.689-0.928c-0.422,0.393-0.861,0.984-1.318,1.774
		s-0.797,1.414-1.02,1.871V61.086h0.246c0.199,1.601,0.543,3.125,1.033,4.573c0.488,1.447,1.162,2.741,2.021,3.881
		c0.857,1.141,1.882,1.965,3.071,2.472c0.598,0.265,1.21,0.397,1.837,0.397c1.436,0,2.634-0.615,3.595-1.845
		c0.428-0.515,0.774-1.135,1.042-1.86c0.266-0.726,0.399-1.435,0.399-2.129c0-0.821-0.217-1.512-0.65-2.069
		c-0.621-0.8-1.585-1.619-2.892-2.455c-1.307-0.837-2.78-1.798-4.421-2.885c-1.641-1.086-2.908-2.259-3.802-3.517
		c-0.894-1.259-1.34-2.756-1.34-4.493c0-1.207,0.24-2.527,0.721-3.957C362.03,45.134,363.565,43.979,365.933,43.736z"/>
</g>
</svg>
