<?xml version="1.0" encoding="utf-8"?>
<!-- Generator: Adobe Illustrator 19.2.0, SVG Export Plug-In . SVG Version: 6.00 Build 0)  -->
<svg version="1.1" id="_x2014_ÎÓÈ_x5F_1" xmlns="http://www.w3.org/2000/svg" xmlns:xlink="http://www.w3.org/1999/xlink"
	 x="0px" y="0px" viewBox="0 0 399.066 350" style="enable-background:new 0 0 399.066 350;" xml:space="preserve">
<style type="text/css">
	.st0{fill:#002661;}
</style>
<g>
	<g>
		<path id="XMLID_13_" class="st0" d="M142.776,93.016c-12.16,4.456-25.633-1.785-30.092-13.948
			c-4.459-12.163,1.785-25.63,13.945-30.089L256.293,1.44c12.157-4.459,25.63,1.785,30.089,13.945
			c4.459,12.157-1.785,25.63-13.945,30.089L142.776,93.016z"/>
		<path id="XMLID_12_" class="st0" d="M142.776,163.199c-12.16,4.456-25.633-1.788-30.092-13.951
			c-4.459-12.163,1.785-25.63,13.945-30.089l129.664-47.539c12.157-4.459,25.63,1.785,30.089,13.945
			c4.459,12.157-1.785,25.63-13.945,30.089L142.776,163.199z"/>
		<path id="XMLID_11_" class="st0" d="M142.776,233.383c-12.16,4.456-25.633-1.788-30.092-13.951
			c-4.459-12.163,1.785-25.632,13.945-30.089l129.664-47.542c12.157-4.456,25.63,1.785,30.089,13.948
			c4.459,12.157-1.785,25.63-13.945,30.092L142.776,233.383z"/>
	</g>
	<g>
		<g>
			<polygon id="XMLID_10_" class="st0" points="0,291.699 43.496,291.699 43.496,303.519 15.358,303.519 15.358,313.794 
				42.341,313.794 42.341,326.058 15.358,326.058 15.358,336.669 43.951,336.669 43.951,348.578 0,348.578 			"/>
		</g>
		<g>
			<polygon id="XMLID_9_" class="st0" points="111.085,291.699 126.561,291.699 126.561,348.611 111.085,348.611 			"/>
		</g>
		<g>
			<path id="XMLID_8_" class="st0" d="M183.015,293.525l-1.04,12.181c-12.5-7.234-31.664-4.929-32.001,14.046
				c-0.352,18.957,19.731,21.729,32.465,15.287l0.801,12.432c-22.482,7.004-49.341-0.121-49.223-27.719
				C134.129,292.715,161.21,285.239,183.015,293.525L183.015,293.525z"/>
		</g>
		<g>
			<path id="XMLID_7_" class="st0" d="M228.571,292.644l-1.043,11.853c-7.799-4.297-22.604-4.409-22.604,2.335
				c0,9.988,26.395,2.778,26.395,24.164c0,21.037-25.124,21.271-41.424,16.392l1.155-12.544c10.21,4.758,24.672,5.801,24.672-2.45
				c0-9.06-26.51-3.957-26.51-24.291C189.209,291.424,209.865,286.953,228.571,292.644L228.571,292.644z"/>
		</g>
		<g>
			<path id="XMLID_6_" class="st0" d="M275.262,292.644l-1.028,11.853c-7.807-4.297-22.604-4.409-22.604,2.335
				c0,9.988,26.395,2.778,26.395,24.164c0,21.037-25.136,21.271-41.434,16.392l1.161-12.544c10.207,4.758,24.663,5.801,24.663-2.45
				c0-9.06-26.501-3.957-26.501-24.291C235.909,291.424,256.559,286.953,275.262,292.644L275.262,292.644z"/>
		</g>
		<g>
			<polygon id="XMLID_5_" class="st0" points="346.521,291.699 366.128,291.699 384.84,328.407 384.84,291.699 399.066,291.699 
				399.066,348.611 380.596,348.611 360.862,311.208 360.862,348.611 346.521,348.611 			"/>
		</g>
		<g>
			<path class="st0" d="M310.838,290.328c16.076,0.012,28.339,9.421,28.339,29.95c0,19.625-12.326,29.722-28.339,29.722
				c-15.987,0.006-28.239-9.864-28.239-29.722C282.599,299.745,294.786,290.328,310.838,290.328L310.838,290.328z M298.441,320.275
				c0,8.676,3.72,18.493,12.394,18.478c8.676-0.012,12.326-9.802,12.388-18.478c0.062-7.843-3.715-18.458-12.388-18.472
				C302.162,301.799,298.441,311.607,298.441,320.275L298.441,320.275z"/>
		</g>
		<g>
			<path class="st0" d="M69.536,315.679h8.49c3.821,0.062,7.267-2.234,7.228-6.43c-0.024-3.717-3.073-6.359-7.003-6.303h-8.715
				V315.679L69.536,315.679z M54.734,291.699h27.887c7.574,0,18.124,3.324,18.124,15.151c0,7.562-3.431,11.803-9.953,13.765
				c0.307-0.024,3.723,1.466,5.136,5.742c0.056,0.142,7.976,22.205,8.067,22.255H87.554l-5.851-17.101
				c-0.898-2.627-2.852-4.365-5.624-4.365c-2.408,0-6.197-0.157-6.197,0v21.466H54.734V291.699L54.734,291.699z"/>
		</g>
	</g>
</g>
</svg>
